<mxfile host="65bd71144e">
    <diagram id="1jHUgGoiaHZh2ULcftcj" name="ページ1">
        <mxGraphModel dx="1288" dy="744" grid="1" gridSize="10" guides="1" tooltips="1" connect="1" arrows="1" fold="1" page="1" pageScale="1" pageWidth="1654" pageHeight="1169" math="0" shadow="0">
            <root>
                <mxCell id="0"/>
                <mxCell id="1" parent="0"/>
                <mxCell id="28" value="" style="verticalLabelPosition=bottom;verticalAlign=top;html=1;shape=mxgraph.basic.patternFillRect;fillStyle=diagRev;step=5;fillStrokeWidth=0.2;fillStrokeColor=#dddddd;fillColor=#d5e8d4;strokeColor=#82b366;gradientColor=#97d077;" parent="1" vertex="1">
                    <mxGeometry x="665" y="185" width="350" height="390" as="geometry"/>
                </mxCell>
                <mxCell id="3" value="" style="html=1;outlineConnect=0;fillColor=#CCCCCC;strokeColor=#6881B3;gradientColor=none;gradientDirection=north;strokeWidth=2;shape=mxgraph.networks.cloud;fontColor=#ffffff;" parent="1" vertex="1">
                    <mxGeometry x="85" y="90" width="90" height="50" as="geometry"/>
                </mxCell>
                <mxCell id="4" value="" style="fontColor=#0066CC;verticalAlign=top;verticalLabelPosition=bottom;labelPosition=center;align=center;html=1;outlineConnect=0;fillColor=#CCCCCC;strokeColor=#6881B3;gradientColor=none;gradientDirection=north;strokeWidth=2;shape=mxgraph.networks.modem;" parent="1" vertex="1">
                    <mxGeometry x="80" y="210" width="100" height="30" as="geometry"/>
                </mxCell>
                <mxCell id="5" value="" style="fontColor=#0066CC;verticalAlign=top;verticalLabelPosition=bottom;labelPosition=center;align=center;html=1;outlineConnect=0;fillColor=#CCCCCC;strokeColor=#6881B3;gradientColor=none;gradientDirection=north;strokeWidth=2;shape=mxgraph.networks.wireless_hub;" parent="1" vertex="1">
                    <mxGeometry x="225" y="155" width="100" height="85" as="geometry"/>
                </mxCell>
                <mxCell id="6" value="" style="fontColor=#0066CC;verticalAlign=top;verticalLabelPosition=bottom;labelPosition=center;align=center;html=1;outlineConnect=0;fillColor=#CCCCCC;strokeColor=#6881B3;gradientColor=none;gradientDirection=north;strokeWidth=2;shape=mxgraph.networks.hub;" parent="1" vertex="1">
                    <mxGeometry x="225" y="290" width="100" height="30" as="geometry"/>
                </mxCell>
                <mxCell id="23" style="edgeStyle=none;shape=link;html=1;" parent="1" source="7" target="27" edge="1">
                    <mxGeometry relative="1" as="geometry">
                        <mxPoint x="645" y="305" as="targetPoint"/>
                    </mxGeometry>
                </mxCell>
                <mxCell id="7" value="" style="fontColor=#0066CC;verticalAlign=top;verticalLabelPosition=bottom;labelPosition=center;align=center;html=1;outlineConnect=0;fillColor=#CCCCCC;strokeColor=#6881B3;gradientColor=none;gradientDirection=north;strokeWidth=2;shape=mxgraph.networks.firewall;" parent="1" vertex="1">
                    <mxGeometry x="525" y="272.5" width="65" height="65" as="geometry"/>
                </mxCell>
                <mxCell id="9" value="" style="fontColor=#0066CC;verticalAlign=top;verticalLabelPosition=bottom;labelPosition=center;align=center;html=1;outlineConnect=0;fillColor=#CCCCCC;strokeColor=#6881B3;gradientColor=none;gradientDirection=north;strokeWidth=2;shape=mxgraph.networks.laptop;" parent="1" vertex="1">
                    <mxGeometry x="395" y="450" width="100" height="55" as="geometry"/>
                </mxCell>
                <mxCell id="10" value="" style="fontColor=#0066CC;verticalAlign=top;verticalLabelPosition=bottom;labelPosition=center;align=center;html=1;outlineConnect=0;fillColor=#CCCCCC;strokeColor=#6881B3;gradientColor=none;gradientDirection=north;strokeWidth=2;shape=mxgraph.networks.laptop;" parent="1" vertex="1">
                    <mxGeometry x="225" y="450" width="100" height="55" as="geometry"/>
                </mxCell>
                <mxCell id="17" style="edgeStyle=none;shape=link;html=1;exitX=1;exitY=0.5;exitDx=0;exitDy=0;exitPerimeter=0;entryX=0;entryY=0.5;entryDx=0;entryDy=0;entryPerimeter=0;" parent="1" source="6" target="7" edge="1">
                    <mxGeometry relative="1" as="geometry"/>
                </mxCell>
                <mxCell id="18" style="edgeStyle=none;shape=link;html=1;exitX=0.5;exitY=0;exitDx=0;exitDy=0;exitPerimeter=0;entryX=0.5;entryY=1;entryDx=0;entryDy=0;entryPerimeter=0;" parent="1" source="6" target="5" edge="1">
                    <mxGeometry relative="1" as="geometry"/>
                </mxCell>
                <mxCell id="19" style="edgeStyle=none;shape=link;html=1;entryX=0.5;entryY=1;entryDx=0;entryDy=0;entryPerimeter=0;" parent="1" source="4" target="3" edge="1">
                    <mxGeometry relative="1" as="geometry"/>
                </mxCell>
                <mxCell id="20" style="edgeStyle=none;shape=link;html=1;entryX=0.01;entryY=0.824;entryDx=0;entryDy=0;entryPerimeter=0;" parent="1" source="4" target="5" edge="1">
                    <mxGeometry relative="1" as="geometry"/>
                </mxCell>
                <mxCell id="21" style="edgeStyle=none;shape=link;html=1;entryX=0.5;entryY=0;entryDx=0;entryDy=0;entryPerimeter=0;" parent="1" source="6" target="10" edge="1">
                    <mxGeometry relative="1" as="geometry"/>
                </mxCell>
                <mxCell id="22" style="edgeStyle=none;shape=link;html=1;exitX=0.5;exitY=1;exitDx=0;exitDy=0;exitPerimeter=0;entryX=0.5;entryY=0;entryDx=0;entryDy=0;entryPerimeter=0;" parent="1" source="6" target="9" edge="1">
                    <mxGeometry relative="1" as="geometry"/>
                </mxCell>
                <mxCell id="24" value="" style="shadow=0;dashed=0;html=1;strokeColor=none;fillColor=#4495D1;labelPosition=center;verticalLabelPosition=bottom;verticalAlign=top;align=center;outlineConnect=0;shape=mxgraph.veeam.vm_linux;" parent="1" vertex="1">
                    <mxGeometry x="785" y="277.4" width="57.2" height="55.2" as="geometry"/>
                </mxCell>
                <mxCell id="25" value="" style="shadow=0;dashed=0;html=1;strokeColor=none;fillColor=#4495D1;labelPosition=center;verticalLabelPosition=bottom;verticalAlign=top;align=center;outlineConnect=0;shape=mxgraph.veeam.vm_windows;" parent="1" vertex="1">
                    <mxGeometry x="785" y="217.3" width="57.2" height="55.2" as="geometry"/>
                </mxCell>
                <mxCell id="27" value="" style="sketch=0;pointerEvents=1;shadow=0;dashed=0;html=1;strokeColor=none;fillColor=#005F4B;labelPosition=center;verticalLabelPosition=bottom;verticalAlign=top;align=center;outlineConnect=0;shape=mxgraph.veeam2.virtual_host;" parent="1" vertex="1">
                    <mxGeometry x="685" y="265.5" width="82" height="79" as="geometry"/>
                </mxCell>
                <mxCell id="29" value="" style="shadow=0;dashed=0;html=1;strokeColor=none;fillColor=#4495D1;labelPosition=center;verticalLabelPosition=bottom;verticalAlign=top;align=center;outlineConnect=0;shape=mxgraph.veeam.vm_linux;" parent="1" vertex="1">
                    <mxGeometry x="785" y="430" width="57.2" height="55.2" as="geometry"/>
                </mxCell>
                <mxCell id="31" value="" style="shadow=0;dashed=0;html=1;strokeColor=none;fillColor=#4495D1;labelPosition=center;verticalLabelPosition=bottom;verticalAlign=top;align=center;outlineConnect=0;shape=mxgraph.veeam.vm_linux;" parent="1" vertex="1">
                    <mxGeometry x="215" y="480" width="57.2" height="55.2" as="geometry"/>
                </mxCell>
                <mxCell id="32" value="10.0.2.0/24" style="text;strokeColor=none;align=left;fillColor=none;html=1;verticalAlign=middle;whiteSpace=wrap;rounded=0;" parent="1" vertex="1">
                    <mxGeometry x="595" y="272.5" width="70" height="30" as="geometry"/>
                </mxCell>
                <mxCell id="33" value="192.168.1.0/24" style="text;strokeColor=none;align=right;fillColor=none;html=1;verticalAlign=middle;whiteSpace=wrap;rounded=0;" parent="1" vertex="1">
                    <mxGeometry x="425" y="272.5" width="90" height="30" as="geometry"/>
                </mxCell>
                <mxCell id="34" value="Hub" style="text;strokeColor=none;align=center;fillColor=none;html=1;verticalAlign=middle;whiteSpace=wrap;rounded=0;" parent="1" vertex="1">
                    <mxGeometry x="225" y="265.5" width="32.8" height="30" as="geometry"/>
                </mxCell>
                <mxCell id="35" value="Router" style="text;strokeColor=none;align=center;fillColor=none;html=1;verticalAlign=middle;whiteSpace=wrap;rounded=0;" parent="1" vertex="1">
                    <mxGeometry x="225" y="187.3" width="50" height="30" as="geometry"/>
                </mxCell>
                <mxCell id="36" value="攻撃対象&lt;div&gt;Windows OS&lt;/div&gt;" style="text;strokeColor=none;align=left;fillColor=none;html=1;verticalAlign=middle;whiteSpace=wrap;rounded=0;" parent="1" vertex="1">
                    <mxGeometry x="835" y="217.3" width="80" height="30" as="geometry"/>
                </mxCell>
                <mxCell id="37" value="攻撃対象&lt;div&gt;Linux OS&lt;/div&gt;" style="text;strokeColor=none;align=left;fillColor=none;html=1;verticalAlign=middle;whiteSpace=wrap;rounded=0;" parent="1" vertex="1">
                    <mxGeometry x="835" y="277.4" width="80" height="30" as="geometry"/>
                </mxCell>
                <mxCell id="38" value="SIEM&lt;div&gt;IBM QRadar&lt;/div&gt;" style="text;strokeColor=none;align=left;fillColor=none;html=1;verticalAlign=middle;whiteSpace=wrap;rounded=0;" parent="1" vertex="1">
                    <mxGeometry x="835" y="430" width="90" height="30" as="geometry"/>
                </mxCell>
                <mxCell id="42" value="Hypervisor：Proxmox" style="text;strokeColor=none;align=left;fillColor=none;html=1;verticalAlign=middle;whiteSpace=wrap;rounded=0;" parent="1" vertex="1">
                    <mxGeometry x="675" y="187.3" width="130" height="30" as="geometry"/>
                </mxCell>
                <mxCell id="43" value="攻撃実行&lt;div&gt;Kali Linix&lt;/div&gt;" style="text;strokeColor=none;align=left;fillColor=none;html=1;verticalAlign=middle;whiteSpace=wrap;rounded=0;" parent="1" vertex="1">
                    <mxGeometry x="195" y="530" width="55" height="30" as="geometry"/>
                </mxCell>
                <mxCell id="44" value="" style="verticalLabelPosition=bottom;sketch=0;html=1;fillColor=#A153A0;strokeColor=#ffffff;verticalAlign=top;align=center;points=[[0,0.5,0],[0.125,0.25,0],[0.25,0,0],[0.5,0,0],[0.75,0,0],[0.875,0.25,0],[1,0.5,0],[0.875,0.75,0],[0.75,1,0],[0.5,1,0],[0.125,0.75,0]];pointerEvents=1;shape=mxgraph.cisco_safe.compositeIcon;bgIcon=mxgraph.cisco_safe.design.blank_device;resIcon=mxgraph.cisco_safe.design.log_collector_2;" parent="1" vertex="1">
                    <mxGeometry x="760" y="470" width="50" height="45" as="geometry"/>
                </mxCell>
                <mxCell id="64" style="edgeStyle=orthogonalEdgeStyle;html=1;exitX=0;exitY=0.5;exitDx=0;exitDy=0;strokeWidth=2;strokeColor=light-dark(#000000,#FF3399);exitPerimeter=0;" parent="1" source="44" target="60" edge="1">
                    <mxGeometry relative="1" as="geometry">
                        <mxPoint x="495" y="640" as="targetPoint"/>
                        <Array as="points">
                            <mxPoint x="605" y="493"/>
                            <mxPoint x="605" y="590"/>
                        </Array>
                    </mxGeometry>
                </mxCell>
                <mxCell id="45" value="セキュリティログ&lt;div&gt;正常系／異常系&lt;/div&gt;" style="text;strokeColor=none;align=center;fillColor=none;html=1;verticalAlign=middle;whiteSpace=wrap;rounded=0;" parent="1" vertex="1">
                    <mxGeometry x="725" y="520.0000000000001" width="120" height="30" as="geometry"/>
                </mxCell>
                <mxCell id="46" value="Firewall：Paloalto&lt;div&gt;Syslog&lt;/div&gt;" style="text;strokeColor=none;align=left;fillColor=none;html=1;verticalAlign=middle;whiteSpace=wrap;rounded=0;" parent="1" vertex="1">
                    <mxGeometry x="507.5" y="344.5" width="100" height="30" as="geometry"/>
                </mxCell>
                <mxCell id="49" value="Agent" style="sketch=0;outlineConnect=0;fontColor=#232F3E;gradientColor=none;strokeColor=#232F3E;fillColor=#ffffff;dashed=0;verticalLabelPosition=bottom;verticalAlign=top;align=center;html=1;fontSize=12;fontStyle=0;aspect=fixed;shape=mxgraph.aws4.resourceIcon;resIcon=mxgraph.aws4.agent;" parent="1" vertex="1">
                    <mxGeometry x="315" y="430" width="30" height="30" as="geometry"/>
                </mxCell>
                <mxCell id="50" value="Agent" style="sketch=0;outlineConnect=0;fontColor=#232F3E;gradientColor=none;strokeColor=#232F3E;fillColor=#ffffff;dashed=0;verticalLabelPosition=bottom;verticalAlign=top;align=center;html=1;fontSize=12;fontStyle=0;aspect=fixed;shape=mxgraph.aws4.resourceIcon;resIcon=mxgraph.aws4.agent;" parent="1" vertex="1">
                    <mxGeometry x="485" y="430" width="30" height="30" as="geometry"/>
                </mxCell>
                <mxCell id="55" style="edgeStyle=orthogonalEdgeStyle;html=1;dashed=1;strokeColor=light-dark(#000000,#FF8000);" parent="1" source="51" target="29" edge="1">
                    <mxGeometry relative="1" as="geometry">
                        <mxPoint x="875" y="360" as="targetPoint"/>
                        <Array as="points">
                            <mxPoint x="975" y="232"/>
                            <mxPoint x="975" y="370"/>
                            <mxPoint x="814" y="370"/>
                        </Array>
                    </mxGeometry>
                </mxCell>
                <mxCell id="51" value="Agent" style="sketch=0;outlineConnect=0;fontColor=#232F3E;gradientColor=none;strokeColor=#232F3E;fillColor=#ffffff;dashed=0;verticalLabelPosition=bottom;verticalAlign=top;align=center;html=1;fontSize=12;fontStyle=0;aspect=fixed;shape=mxgraph.aws4.resourceIcon;resIcon=mxgraph.aws4.agent;" parent="1" vertex="1">
                    <mxGeometry x="915" y="217.29999999999998" width="30" height="30" as="geometry"/>
                </mxCell>
                <mxCell id="56" style="edgeStyle=orthogonalEdgeStyle;html=1;dashed=1;strokeColor=light-dark(#000000,#FF8000);" parent="1" source="52" target="29" edge="1">
                    <mxGeometry relative="1" as="geometry">
                        <Array as="points">
                            <mxPoint x="975" y="292"/>
                            <mxPoint x="975" y="370"/>
                            <mxPoint x="814" y="370"/>
                        </Array>
                    </mxGeometry>
                </mxCell>
                <mxCell id="52" value="Agent" style="sketch=0;outlineConnect=0;fontColor=#232F3E;gradientColor=none;strokeColor=#232F3E;fillColor=#ffffff;dashed=0;verticalLabelPosition=bottom;verticalAlign=top;align=center;html=1;fontSize=12;fontStyle=0;aspect=fixed;shape=mxgraph.aws4.resourceIcon;resIcon=mxgraph.aws4.agent;" parent="1" vertex="1">
                    <mxGeometry x="915" y="277.4" width="30" height="30" as="geometry"/>
                </mxCell>
                <mxCell id="57" style="edgeStyle=orthogonalEdgeStyle;html=1;dashed=1;strokeColor=light-dark(#000000,#FF8000);exitX=0.5;exitY=1;exitDx=0;exitDy=0;" parent="1" source="46" target="29" edge="1">
                    <mxGeometry relative="1" as="geometry">
                        <mxPoint x="955" y="302" as="sourcePoint"/>
                        <mxPoint x="735" y="410" as="targetPoint"/>
                        <Array as="points">
                            <mxPoint x="558" y="400"/>
                            <mxPoint x="814" y="400"/>
                        </Array>
                    </mxGeometry>
                </mxCell>
                <mxCell id="58" style="edgeStyle=orthogonalEdgeStyle;html=1;dashed=1;strokeColor=light-dark(#000000,#FF8000);" parent="1" source="50" target="29" edge="1">
                    <mxGeometry relative="1" as="geometry">
                        <mxPoint x="555" y="500" as="sourcePoint"/>
                        <mxPoint x="665" y="450" as="targetPoint"/>
                        <Array as="points">
                            <mxPoint x="525" y="450"/>
                            <mxPoint x="525" y="450"/>
                        </Array>
                    </mxGeometry>
                </mxCell>
                <mxCell id="59" style="edgeStyle=orthogonalEdgeStyle;html=1;dashed=1;strokeColor=light-dark(#000000,#FF8000);" parent="1" source="49" target="29" edge="1">
                    <mxGeometry relative="1" as="geometry">
                        <mxPoint x="505" y="518" as="sourcePoint"/>
                        <mxPoint x="705" y="510" as="targetPoint"/>
                        <Array as="points">
                            <mxPoint x="365" y="445"/>
                            <mxPoint x="365" y="410"/>
                            <mxPoint x="545" y="410"/>
                            <mxPoint x="545" y="440"/>
                        </Array>
                    </mxGeometry>
                </mxCell>
                <mxCell id="61" value="" style="strokeColor=#dddddd;shadow=1;strokeWidth=1;rounded=1;absoluteArcSize=1;arcSize=2;" parent="1" vertex="1">
                    <mxGeometry x="380" y="515" width="130" height="60" as="geometry"/>
                </mxCell>
                <mxCell id="62" value="&lt;font color=&quot;#000000&quot;&gt;NVIDIA&lt;/font&gt;&lt;div&gt;&lt;font style=&quot;color: light-dark(rgb(237, 237, 237), rgb(255, 255, 255));&quot;&gt;RTX3060&lt;br&gt;&lt;/font&gt;GPU&lt;/div&gt;" style="editableCssRules=.*;html=1;fontColor=#999999;shape=image;verticalLabelPosition=middle;verticalAlign=middle;labelPosition=right;align=left;spacingLeft=20;part=1;points=[];imageAspect=0;image=data:image/svg+xml,PHN2ZyB4bWxucz0iaHR0cDovL3d3dy53My5vcmcvMjAwMC9zdmciIHhtbG5zOnY9Imh0dHBzOi8vdmVjdGEuaW8vbmFubyIgd2lkdGg9IjIwIiBoZWlnaHQ9IjIwIiB2aWV3Qm94PSIwIDAgMjAgMjAiPiYjeGE7CTxzdHlsZSB0eXBlPSJ0ZXh0L2NzcyI+JiN4YTsJLnN0MHtmaWxsOiM0Mjg1ZjQ7fSYjeGE7CS5zdDF7ZmlsbDojNjY5ZGY2O30mI3hhOwkuc3Qye2ZpbGw6I2FlY2JmYTt9JiN4YTsJPC9zdHlsZT4mI3hhOwk8cGF0aCBjbGFzcz0ic3QyIiBkPSJNNyA3aDZ2Nkg3eiIvPiYjeGE7CTxwYXRoIGNsYXNzPSJzdDEiIGQ9Ik05IDBoMnY0SDl6TTUgMGgydjRINXptOCAwaDJ2NGgtMnoiLz4mI3hhOwk8cGF0aCBjbGFzcz0ic3QwIiBkPSJNOSAxNmgydjRIOXptLTQgMGgydjRINXptOCAwaDJ2NGgtMnptMy01VjloNHYyem0wIDR2LTJoNHYyem0wLThWNWg0djJ6Ii8+JiN4YTsJPHBhdGggY2xhc3M9InN0MSIgZD0iTTAgMTFWOWg0djJ6bTAgNHYtMmg0djJ6bTAtOFY1aDR2MnoiLz4mI3hhOwk8cGF0aCBjbGFzcz0ic3QyIiBkPSJNMyAzdjE0aDE0VjN6bTEyIDEySDVWNWgxMHoiLz4mI3hhOwk8cGF0aCBjbGFzcz0ic3QxIiBkPSJNMTAgMTBsLTMgM2g2eiIvPiYjeGE7CTxwYXRoIGNsYXNzPSJzdDAiIGQ9Ik0xMyA3bC0zIDMgMyAzeiIvPiYjeGE7PC9zdmc+;" parent="61" vertex="1">
                    <mxGeometry width="30" height="30" relative="1" as="geometry">
                        <mxPoint x="15" y="15" as="offset"/>
                    </mxGeometry>
                </mxCell>
                <mxCell id="67" value="" style="shape=image;verticalLabelPosition=bottom;labelBackgroundColor=default;verticalAlign=top;aspect=fixed;imageAspect=0;image=data:image/png,iVBORw0KGgoAAAANSUhEUgAAAXMAAABFCAYAAAC47gaWAAAAAXNSR0IArs4c6QAAAARnQU1BAACxjwv8YQUAAAAJcEhZcwAADsMAAA7DAcdvqGQAAChZSURBVHhe7Z15fBXV2cd/Z5a7Jjc3+0pIAgkhyCIqoNLirnXt615t1VbrVop7a11Y1FpcUEDrhgvWalWEaq0VrCsqIqIsYtizEEI2stwkd53lvH/MJLmz3OQGgiTpfPM5/8yZmcydOec5z3me5zyHrJkxksLCwsLCYkjD6A9YWFhYWAw9LGFuYWFhMQywhLmFhYXFMMAS5hYWFhbDAEuYW1hYWAwDLGFuYWFhMQywhLmFhYXFMMAS5hYWFhbDAEuYW1hYWAwDLGFuYWFhMQywhLmFhYXFMMAS5hYWFhbDAEuYW1hYWAwDLGFuYWFhMQywhLmFhYXFMMAS5hYWFhbDAEuYW1hYWAwDyKHaaYiwHJwFxUiaNE1fBSpLCOzehvbN6/RVccMleJDyk9PBuhL0VRDb29Cy5kNI/g59FQCA8DZ4xh8NV+EYfRUi++vR+vWnYF0JSDnuFDB2h/6UgyJUWwX/zh/gnTLD9NnjgcoyhLZmhGoqEKrfCzkYAJVE/WkAANadiIwzLtQfPmCE9la0rF4JORzSVx0QXIIH+dfdiYoFd+mrDgv2jBwkTpwChuO7j8nhEJo/fQ9UljXnRkNYDmmnngdCBk4/kiMRdPzwHURfC1JmnDGw9xYFdGxah3DjPn0VCMfDnpUL7zEzkHTU8XAVlIDzJEHs7EBoXzU6Nn+D1rUfI1i9a8DaQSwIz4NLSIK7uAzukvFwFZXCkZUHPjkNrCsBshiB5O9EpKkOwerd8O8qR+f2TQjvq4EcDoHKkv6WprBOF5KPPw0M3/PdAaBz+/cIVGzTHIsJw4BPSoF3ygwQpudbUVmG6GtF67pPAbUNcQkeeCYfB3fxOBCWQ7BqJ9rWfw6hpSnqhv3jkAlzxu7AyOv+hMxzL9dXAaDo3LoR5XdcATkU1Ff2DWHgLhmHcQvfAMPb9LUQO33YfO3ZiDTW6asA9dkKZ81F+ulGIeffuQXlt/0S9uw8jFv4BlinW3/KQdG27lNUP/0gxi16E5zHq6+OEwpKKSBJCNXXoO7N59G2/gsILY2golao86kZOOqNNZpjB0OkuQGbfn0apIBfX3VAcB4vyh77BzZf8zN91WGAoPCmecg462IQhu0+KodD+P7G8xHcswug5t2F8DZM+fcmEJbTVx0wUjCAXQ/ego4fNuCoN78EiRpgDhY5HMKOub9D2zerNcdZVwK8x/wUhTffBy4xCWBYEEJ6TqAUlMqggoCapQvRtGo5hLbmmO/lQGHsDtgzcuCdegKyL74GvDcVhGUBwkB5nKhnQtdzUYDKkAUBvm+/QN2yFxCo3AGps71Poc4lJePIv30M1q1VsPYseRj73liiOWYKIWAdThTMmoe0k88DYdTnoxSCrxWVC2ej5YtVAAhYdwJGXHUz2IRENK1aATkUgHfKCXCNHouqRXMQaW7U3z0uBm6o10E4DokTjgHhOJPCwzGiCLa0LP1lccHY7Ug+9mSwDqfJvTmwTjc8E6fqL4uCAAxjuI5wHMAwACEghAFhWUP9wRYwrPK/D+rePBjeBsbhhGtkMYpueQBlj/wNiWVHgnE4obZ2AET5M1x/EIVhjR3poCBaYXG4IAR8ShrST78ADG8H4fjuwtgd8B49vdffTaBotANblPZICDGpO9iitvXuH0DA2J3IvewGjP7TAkV4cryiYRLSUxgGhOXA2B0Y8ZtbUThr7kEoJUYIw4BPTkP2RVejbMGrGHndn2BPzwZjs4OwnPo8umfqfi4WhOMVLfu4k1H64PMovmchHCMKlX7RC8o75gzvCVGDem8wNgfSz7gIaaecB8Zm675eFgU0f/wuWr/+RDmRECQfezJEfweE1maM+M2tGHnD3bBnj0DL6pXIOPNi/a3j5pAJc9bhApcY+yNzCR6kn3Z+lOCJHz4pBZlnXhLzWsLxSCidqD88PCEEhLfBmT8KJfc9g9QTzgLbR8O1MEIIg5SfnA7GZjO0K8JyyLnkWsXkFqPNDXUIxyHjZxci++JrNL+TiiKkQCfE9jaIne2QhYiihRMCxmZH8vTTkHfFrIM3R6rt2F0yHsX3LkbelTfBlp4FwvPm75xSxWRBZQDGWQFhWLDuRCQdPR1lj/4dmWddCi7Boz9tQGB4G1yFxci7cpbGUiALEbStW429rzwJKkQA5WfCe/R01C9fCsJy8H37JVq//BCuwhK0fvUxEsZOirpz/zhkwpxxusElJOoPd0NYDplnX9rvUZ0wLDwTp4JLTtVXdUMYBs6RoxXt438FQsB7U1F40zx4Jh8PYmJ+soiBqpVlnnWpxrwSXc+npiN56gzzelWcyJEw5HDIvETC+ksU04AkGs9VC41EAEkCpXKv9+4SFLqbg4qx7y1HIkCX6YFhwLoSkHvZjYowUoWnHA7Bv3sr9r7yBHY/8kdUP/0g2r76GFIo0O0/YHgb0k45D84RRdH/vH8QAoa3IWnSNJTMeRJJk6ZpngMAQGVQIdI9sIQb9yFYU4FQbTWE1mZloAmHQCWtOYUwLGxpmci/7k7kXH6jIm8G0PdAWBa2zFyMvnsheG+PTKKyhHBtNWpeXACx06e9xmYHFZVv5hl/NDLOugS1rz4FKokHZaYbuF8VDWHAe7xgerM3EwI2wQPP+KPNR94YMHYHvNNONLWVd0MIbCkZYOwHrqFSSYIcDkEKBkyLeQeK87pe7ItUEnvtuHIkDCoKMZ1xrNONwpmzwXuS9VVaKAUVBcPz9VVkIaxqQ8MHwjBwjSqFa/RYrekhCkIYpMw4M7aCIEvwffslfN9+YVraN3xl0CCpLCNUU2k4t7tsXAuhtRlyJNL7vb9fb2hTVKYIVO00nNt9zYavILS1AAAYlkP2hVfDlpHdo5HLMvw7t2DrH67AvtefQ8vnq9D43uvYcd9MNLz9CmjU4MS5PUg/48J+9eNoGJ6Ha9RYFM9+AvbsEdpvQClkIQKhvU0dWJ7ElpkXYNOvT8fm687F5t+ehY1Xnopdf74FrWs+RLixFnIoqLWRq7OInIuvQd5VN4N1ugZGoBMC1u1B3hWz4Mwr6DlOKaQOH3Y/8keEaio034ZSINJQC0duAUBlNK5cjta1H4NL9IJzJ0Ls0Ar+/nBIHKCEtyHznMtQOGuuvkoDlSS0fPEBdt430zCixsJVUIJxi/t2Hkb212PzteeYeocZuxOFN89Dxs+M9qnO7ZtRfuvlgCzDNXqs4nTRQQiD5OmnIfuCX+urIPk7ULHgLkRazJ0Yoq8NUiiACc/8C1ySUeD6d2yBb+NXBkdmF4RhkDB2ElyjxoJ1ukxHciqJqHlhAWr/8QxsKRk4avnX+lNARRH7P3oHje+/qa/qFTkSgX/75ri/V19wnmSMe/wf2HT1GfqqHw3G7sCo2+cj7ZTzegRSVweMElBUFLD+gikQ2339HtAYmx1TV23T3E+OhLFnySOoW/a85tz+YkvNwORla7URFKKI3Y/eiaaVb2nONYN1ulD60FJ4JkzpPiYFA9gx5wa0rftMcy7U88c/8y8480d1/x6x04dvz58KOdK/6BbCsnDmj0LZY6+BT07TVlIZcjiEjq0bUfn4vQjV1cRUogDlW3EeL9JOPldxMLoSQTitj4fKMmpffQq1f38SclQkDu9NwZGvfgbWrbUmVD87H/v+8YzmWBeMzY6cX1yPvF/OVMxBKrIQQdXiuWhcuQxUEDTXgBA4RxRh1J2PombJIwjVVoFSGa7CMcg6/0rUvbEEvg1faa+JkwEYnowwHKdo3H1AWBbeKTNgz8yLb6RkGKSfcaHhhZvBuhLB92KK6Qsp6EfHlm/RvmmdsWz+BqHaav0lgNqJOrdtMl6jlkDldqAXQdi5dSNqXnwMe5Y8bFqqn52P8lsvQ/nNlyqRCCZChbAc3MXjwNjs+qpuKJURrt9reL6+Smf5xgET5IMC1bmYfNzJGkErBQOI7K/XnsrxyPvVLEP42lCH2OwaEwEAyOEgAlU7Nce6kIIBBKt3amaHhOHAOF2a8+KB96ah6I75pn1V7GhH9TPzse2Pv0GwpqJ3QQ5lABZ9raj/59/ww02XoKP8O4NSRBgG2Rf+Gu6S8bFnWfFAGCXS5oKrNIKcyjL2f/g2mlYtNwpyKM8Y3FOBqkWzkX76+RhxzR3Iv/p2pJ9xIepXvAzfxrX6K+ImDgnaf4jNHrchn7HZkXbKuaYasB7WlQDPkceCsH0/NuF5pBx3qv5w/6A0djFxuih0hUjFKH3Q67VqoZKEQMU2VD1xHyL7zWcArqLS+JxSJvfvtcT83UMThrch89zLtTH/lKLuzedRt+JlQ0hb8rQTDkhoDWYIiFGZIqTXby2LgiG4pzscL04Ymx3pP7sQCSUTNNozAIi+VlQs+BMa/v0P1bQX+1kMUIpA9S7smHMjWtd+bBCqrMOFknsXw5aSoTneH5x5BRh5w91K+KYKlSR0ln+H6mfmK47imFD4d/6A3Qvuwp7nH0bN0kXY/Zfb4Fv/Rf9+p46+peIBYEvJABun55gwDFKmnx7XKOnKH6VM7fStyATCskg66nj94WEDlWVE9tejo3yDvgpQbeexnHUWPTBOFzLPvtSglXf8sB7t362B5O/UnG/PzocjK8/UvDVUkUXBsMCOdTjhyBphagdnbHbYM/OiFjHRbpNIf7ClZSHr/6409H0p4EfFY3ehZc1HoKJwYAJOliG0taDy8XuVRT/RPqYuh/ZxJ/c6e40Fl5SM0XcvhD0zp3sQpLIE0deCykVzILa39fnMVFYcupGmeoQb9kIWIgbFob8cGmGenhX/SyIErqLS7pVQsSAchxG//UPc9yWEgatwTHza6RCFyjJ86z/XH1boig+2iAlhWTiy8mDPyNUclzrb0bl1EwLVuxDaW6mpIyyLojseGlbtigoRhPZpzYaEtyP1hDMVZ2H0cZaFs7AEzpGju9sXFSX4d22FFAxozu0NwvHIvvDX4JNStBWUom3dp2j9+tO+zSp9QWUIrc2oWDQbQkebJpCAiiKyL7pao1n3iepIzf3F9XCPKu2RV5RCCvixe8Fd8O/eamr6jEn3jPfgGXhhzjCwZ+YqAfdxQjgOORdd3Ws4nT0zF+6i0rjMMYDy4gnPw5aera8ZNnRFYZgygI1kuMLYHBhx9W0Gm2f1c/MhhYKgkTD2PP+ooh1G4cgZCefIHuffUIeKIureeE7VrJU2QxgG6WdchNQTz1EUKMKAsTuQUDYZJXOeBOtSI9UohRwOYu/Li/rV3linC0mTj9dq5ZQi0tKEqr8+YB7KeQBQWUJgVzmqn/ozal56XFPqV7zcq8zRQzgOqSedg6z/u0Ij3+RwCA3/ehW+b1ZrZwA/MgMuzAnLwZk/SuNZj4eEcZOVuPQYHSTpyOP6batUYkwP3C42mCEMCy4pGcnTTtJXAQDkSPx5Kf43IXCMKELiuKM0R6UOHzq+X6+Gf0oI1lRAaG3WnMM6XUgcr6xuHg5QWUKgcgd867/QODVZpwt5V85C0uTjwHtTkHnOZSh94Dk4skeoJjwlbLB949qY5r5YuIpKYcvI0RyjsozmT9+D0Lp/QIWiHAmj6YMV2PfGc5pSt2IpwvW1+tNNISwHV0EJ8q+5A4wtalGVIMD33RrUvvLkgA1AB0r/JG4cMLwNzsIS/WFAbTSxIiFsKRnwTJpmampRpmS/Mdf21ThUU62AYZRImaEGISAMqyxPNiscDz45FXmX/87QIQDlnYRqq3ttXN1DJtEti46nDAMIy8IzcYoh2VmgagcEnxJ/DQCirwX+3eWac0AIci65Fpw7Pr/QUEAWBVQveQhSR3uPmYAQ2NOzUXzvExj/9NsYeePdSjgtYQCqLErq3LYZux7+A+SQ1sRCWBaEV9NO8DYQXlni3kXWBVeBsetMprKMppVvHRolRO/I749DnzDgEpMw+s5HYUvL7OkDsozQvmpULp4DKTgwuYoOhoEX5nY7XAXF+sMAADkYQGf5d+YCnRDkXTHLmNhKjau25+SbavtUltDy2X9MF9EMVScon5SCxAnHwDNxmqEkTT4Oeb+aiSOeehsZ51wW453I8O/4vneHFCFKjg2bvV+FsNywEOisOwHZF/7G8FtqXlygrLxUkSNhVDxyp6HNcolepJ5wpubYkEaWEazehcpFs7VKAFESQ9mz8rTJx0QBzZ/9Bzvm3gjR19pzvopn4lSMf/ptTFjynlKeexdj57+k5FdhWbgKSrQmU0oh+FqU0F2Tvnw4YZ1OFN40D64irUlTCvpR+cQ8hBvi0+4PNUZJcJA48gqNAllF9Hdg3+vPQY4xitkzcxUbcFQHI4RB6glnmtrKqSShfdPXaF3zUc/S5CgIwyChZLz+8KAnZfppKP3z8yh96CVDGfPgC8i9/HdK3goTQQ4AQlsz9n/0rv6wBsJySP/ZRRi3eFm/SvG9i5Vp5hAn9YSztItUKEW4oRb+HT9oNUNKIfo70Fn+nWb2x/A8PJOOPahVxoMOStH8+UrUvvpU7FkdpQjWVGD3/NtRseBugwkKagjxyOvvgqtwDBz5RUrJHoH9H70DKkvgklLUGVFPP6eyhLZ1n4JKg0uQMzYb0k+/AMnHn6qRS3IkhOpn56N909fmVoHDgLk0OAhchWNiOhUCu8rRsXUjOrdt1lcB6otLjl6qTwhYlxupM840DbOjooCGd/8Bf8U2JT5bD2Fgz8pVPNZDSZvUTVH1RcleaP7p5HAIdW8sUaIwTF5JN4TAlpIOd/G4fhXnyP77QwYbjN2J5Kknahb/UErR+tXHSvy0DiqK8H23RttpCUHS5ONgS02PPnXooia6Spo0DUlHTTc1d0Kd9dW8+Bha13ykmBZMIjcSxx0JR16BooWr/VZobUbLl/8FKAXrTtA4nQEAMkVoX018Zo8fkcQjjsaIq27RpA+hsoTmz97H/o/+ZXCOH04GtlcSBq6iMea2bQDtm76G5O9Ey5f/NX8JhEHayeeCU8OVCMsi+fhTwaekG4UxpZAjYXSWb0C4vjZ2PCrLwT26zHj9MEQK+tG0ajka3n3NVCgZIASEYfpXCBNPmP+ghvemIHHiFO1CGVlC08plgMkmH1QSse+NJYq2GtXGWJcbI66+fcgPboRhwXtTkH/1bSiZ+xQSjzgq5sI8wrIo/P0cuEaXaTbw6IJxuFDw+7maGYscDivx12reEcJyho02KGjMGfvhJOmo6WATPRr5EdyzG1VPzFOe10zmHCbMv9gBwnCcEpZo0ripLMO34SvIQhjtm9fFjEnlklKQMv1UNd84j/RTfm6a75pKEto3rkW4qQ5yKAD/7q2gJloCIQSO/FGm9xgWqI4osb0Ne557GNVPPwgpFBhUjWwwQRgGhTfNAxslbKgsI9ywD/5dW019L6AUcjiEZp1vhnA83MXj4l4gNxghLAc+OQ1j7nsWWRf8WtGaWQ4AAZUlJembzuTCJ6ehZM6TSJw4VTsLZxgkTzsB9qzcbrMolSWE6/agfYsxGZgBE7lxuCHq3gbRsA7XoEyHPKBvj9jsMTec6EpdCVlGeN8etMfIQcDwNninngjW7gSX6FXykpu8NCkUQO2rf+12lnRsXgeY2dsIoyYEGtCfevigVIkKEgXI4RBEfweaV7+PbXddjYZ/v9Y/QU6pshKtP4XKg20m3C84bypco8u0seWSiLrlL/UeRUFltK37zLA9nz0j2+AYGyoQhoEjdyTGPLgECeOOVE0JSl+jQgShPRWoevI+ZVYSvSMYIbClZqDotj/De/R0ZSZOCBiOR87Fv9XFYIdR89LjkDp7VphSUTQMmgQErKN/occ/BpGmesNgZs/MRcnsJ8Enp5kqroeLAX0S1umCLTVTfxhQ9+Xsiq6QwyE0vPuaIQkOoDSUhNKJcI4cjazzfgnWLCc6pcqef1Gr8/y7ys07IyHK6lKTAWHQIssxBbIUDKBz6yY0f/Ieqp+djy2/uwC759+Oji3fKjkoYlxnQF2g4d/5Q79KsHq3oSMOJRLGTjSkB6aiCN+3vefFoLKMli8+MJhaiM2OolseMHXQD3ZYdyJGXncn3MVHaCNVImE0r16JrX/6DRrfex37Xnsa9f/6u3ZFJiFwZI1A4ax5SCibBIbjkfKT0+EeM77nXlRGx+Z1Ss6RKA1A8ncYV3cyBI68gu7BZLDQ9MEKNH/2vnYQJwQJZUci/5o7wCYMHn/cgApzV1EpGKe5d19o2w85rIzuVJaUeN42oycc6i5EeVfdrOxEZEKXiSU6b0Z4X41Ba4I6TXLmFQ6aFx4Pvg1fKbMYE6gsoWrxXOyafxvqVyxFsHqnQXOIByqJaHp/GX6YdVG/ys77Z/U7zemggTAYdft8TUoIKsuINNYiuGd3r8IcqhJS/8+XNe2MMCxsGTlwjS7TnDvoIQRZP/8VkgybD0tofH8ZKh69E+G6GlBJghT0o+b5R9G4aoU2RJMQ2LNyUTL7CbiLxyH7oms0g4IUCqH+7VcMJlXR16LkgokeFBkW3qknDrpBUfJ3YM+ShxDcU6E5TlgWaaech5xLrul9b4UfkQEV5p4Jx8R0fvq3b9Fo4qKvLWZeEcKy8B7zE8XxaYIU6ET923/XNIZIc0NMTZ9PToUtPWvICPRwXQ2qn/6zaZw450pA4c33xZUGuFe6drlRbaLxFiqJfQq9QQkhSJp8rBI2Gz01liW0fP4B0k48G2knndNnMZs1MRwH71HTh0z7gho+mHrSOVonJqXwrf8Ce55V0hlEIwsRVP/1ftS//Tdt8AJhwCeno/ShpXAXawMNWj5fpYTumWzK4d+9VTuTJgRcQiLco0oHle2cAhCam7D97msQbtynqSMsh6z/uxJZ5181KAahgXtrhChLnGOENHVsWa/5eFSIYN8bS2JEtSgLWpTE8kY6t21CRPdixfY2VWMyETSEgWfiNNPwxsEIlUS0rv3Y3I7LMHCNGouC393b5ya1vdH9lqjJqri+yhCEEAbJ004yKBuE5ZBz6bUY9YeH4io5l91gWMZPOA7Zl/xWzWEyNAR6QulE2DNyNM9LqYyalx5XZtD670wppFAAe5cuQv07f9fMBgnLgkvwaPq+FAygaeUyw8rQLupXLIUc0ikraj6YwSAYo6GyhHBTHSoeuRNiZ3vPuyGKnT/7oqvhnXriYffLDdh/Zx0u2FIzTB0CVJKUfBdRUzQqSwjX71XSU+obTjfGjkEFAW3frDZorbIQUezGZk5QAO4xR8QMtxqMSKEg6t56Ef7t3+urwPA2pPzkdDV9qPlMyCIKdRVjxtm/MAoKdXMKxuGKr/A2Y6clDDh3ItJOPs+0/Q9G0k46W7v4i1II+xsR2L01Zh8CpRA7fdi7dBGaP3lPa97TDWK+9avRuX1zTP9KsHoXwg17NccIYZDy0zNgS04fUO2ccDw8E6ci5fhTNcU79YTuMOi+oKKI9k1fY+9Lj2nThzAMeG8qim57EAljxhvew4/JgL0xNtEDxswbTSmEliaIHcYcv7IooG3danNtOgZioANtX39q1FjVRR9mdnMAyoazQ0QzBxQnqNjeip0P3KQkHop+d4SAdbqQe+l1arTPgH3GYQlhWGSdf6WSC+RQdTaGRfLxp8ScmQ42+OR0IGpgo5QiULlN7Ve99EdVoFf99T60fvlfoyNTPaf+nVcNm0JEI4UCaFv/uc5koyxkK7hpHli7w1SZ6y+EYeAqKEbx7Ccw+q7HNKVg5hwwtjjt3WoOqIZ/v64Gb/Q8N2FZ8EkpKJ69GPYYOeB/DAZMCnCJ3pihRaF91eYjtCSi8f1lqsbeSwPqglK0rfsMkaY6fQ2gbrlmajdXw4mGipmlCyqKCDfWoebFx5TfpRHoDNgED0rm/XVYpWM9FBCOh3fKCYZ4YSoKkAJ+SIHOfhd95BBhCLzHzFB8GUNhcNW1FwKAT8mIT4BSCrHDhz1LHoEYFXLYDSEYdduDcBVF5fzWQUUR9ctfgtCyX1tBCJImH4+Un55x8NvzEQacJxmFN98PPjkVrDuxuzBOF5pWLY8ZaGCKut6g9m9PoHP79xpZQzgO9oxcjLr9QXXD6Dje4wAzYK3OrYvd7YJSitDeKtPkOVSWEW6ohW/DV6By38KcSpIyvTNxDAKA0LpfmQGYwCenGafYQwAqCmhatRxN//2nYTaiaASpKLrpPiXXxWFoQIMeNb9+wljdegV1Jld+6y9Qfstl/S6NK5fpvgcBY7Mh/7d/ADMEUuOK7a3apfgMA1dhiZKvJo52RBgW6Wdc0JPXXIctMxej/vgwEkonxDQ9RVr2Y99bLxj8ZqzThYKZc5A8/TRFpsTxPAYYBlxCIopu/bM2XFJFCvjR8tl/DigSTPC1YOcDNymbMWsWkXHwTDoWBTNnHxb/iflbPgA8E6aYC0tKEajcbro6E1DMCS2fvd/rJsddiB1tCFRsM9fyoWxCaxjpVVinG47cgqGhNUWjTu9qXngUwZpKbQdUG1DihCkYecNdB2Y/JyYpbnsr8WhugwiGt6HwprmGzixHwmh8fxk6t21G5/b+l72vPNm9PD0az8QpYGIkmhtMtKxeaTCDEJZF7i+uN12mr0Fdu5Hxs4tj7rhEGAbOkcUovPk+OPLNZ45UiGD/ByvQvmmdwQTLJSZh1G0PIuvnV/R/tSUhcOYWoGTeU0g+9iRD6CAVBVQtnqvY7GP663on3FCLigV/grC/QXOcsCzST78AOV0O8R+RgZFshCBxwjExbNJU3YPP/KVRdWVd7xugKjR/8p5plrYu5EgkpmYOQpB64llDQmsyoC7w2fXgLRA72vW1ICyDjNMvQNa5l8ct0AlhYM/Kg2filH6VhLJJ5oP2IIVPToNr1Fj9YYQb96Fjy3r94bgRfa1o/uQ9/WHYs/PhHDk6pjY6WOj44VtEWnSbgRMGGWddgpQZZ/YqiJx5hSievVgbOkxlRJobNcoGYRi4CkuVDS2yRvScG4XY7kPlwnsR0QlFqIua8q++HWWPvAJXQUmvzwQofZxLTELGmRfjiCeXKwqmoT9QtKxehZbPV0HuxabfJ5Sio3wj9rz4mCGOXomQuh7Jx51iiHw6lAxIi+OTkmNGskCm8O8sj62ZU4rI/nq0fvVhTOcl1AUbdctfAhViT4uoLCnxqzHuk1h2JBDDhjfooRSByh3Ys+RhEzOTEpGRe8Xv4cwvMmihZhCWRdrJ56L0Ly/1qxTfs7DvTjVIUKa908B5vNoKSlG/YimkgHaz5v4gR8Jo37TWME0nDINRd8w3DwYYRIj+DrR8vsrQVxibHUW33I/iexbCVVAMxu5UsnXa7GATPMi97AaMXfB32DNyegZ1SiEFgyi/9TI0/Eu7sptwLOyZeRj76CtqWg2thk1lCaH6vdj6xysVR380hChb1ZVOwLhFb+CIvy5H3pU3wT26DKwrAazTBdbpAufxwnvMTzH6zkcx/pl3UDBzDtgEjyJIo/4flSW0ff0ZKhfPNg+/7CdUEtHy2X+w9+VFBl9dVw70pKOmm8vFQ8CA/Bd7Vtc2UjooRbC2Suk0vbw4KstofP8tyFGbAugJ7a2E2N4a08QCKP+vs3yDYfrYhSO3IKaNbyhAhQj2f/wuWr/6yLBZgqKVeDHmgSXxOUTVkLyuDhFvYXhlP8ihAOt0Y8RVNxvaphT0o33zOlCxb9NeTKiM9g1rITTrtFsAtrRM09nAYIKKIur/+TICu3WhwYSAdSXAO/VElC18A0c88SbGPvI3lD32Gia+8D5yfzkTttRMjcYpBQPY/dDtCNVWoWbpQsW/090HieoczEHxPYvgyBlpaD9UFBDaW4Udc25EoGqHto+rqXm5xCS4CsYg59JrUfbYa5j08ocY/+y7mLDkP5j08oconvMkUmecCXvWCLBOpzrQRAlyUUDzx/9GxWN3Q2z39S5H4oVSSKEgmla9peZqj35uBlyiFwU33gP3jxSyOCC90pGTbxoXSmUZ/p1bDHZeMwK7t0KKDsjX0fz5ShON1EiwamdMkw1jd8AWvSHBEEQK+rHnuYeUHVl074owDOzp2ci/9k7w3tShZt4eWAiB58hjwXmNccSdWzchXLcXcUVQ9YIU9KPm5UWG9s04nEoCKpOAgEEDpYg0N6Fy8VzFxKET6IzdAT4pGa7RZUg84mhlt6+MHLAut0ZQypEwmlYuQ9s3n4OKIoS2ZtQ8/wha1nzY0w8JAeE5uArHIO+K3xvXe6h+oY7yDdh5/yy0rf1EmfHononwPFinG5zHC1taJpwjCuHIzQefnAouwQPGYSLEZRmirxV1y19C1VP3I9y4zxBIcFBQWc1Y+hD82zdrnpmwLBw5+SiYOSdmAsKBxCiBDwBnQYkh7AtQnJv+7d/H1WVEXwtavvzAqHECkEMBNLzzqsHrbYbgazGsDu2CsTvAerxDW8jJMsJNddiz5GHTfQcJz8MzaRryrvi9wfHzvwTD25Ay/TRNqltAiYiqfvYvA5JfRhYi6Ny6UZMjCFAiPTLO/gW4RJ15Z5BBhQj8O7eg/I5fIbhnt8FUgK69aDllqzeNdkkppEAnGt97HTVLF/aYrFT/TuXj96Bt7SfdfZbKFEJbM+qWvWg+hlIKKgoIVO7AroduR9UT8xCqq1Fm62bKICGKhk8YjfDugsqykpRu2yZsu/u32PvyYggtzQYFaCCgkgTB14od82YqS/6jBTpvg3t0GYrvXQzuEKdKNpHA/cdVNAZUlpTUllFFFiNKWGIcL5DKMupXvAzR3669jxCBb+PXSqa1OKZGciSs7Dyke5auhurIHal8fFk21FNRNM29YYqs5BE3FEnq83pKKahkfF9UFJWG29f1goCOzd+g+tn5oELEcA+GtyH1xLOR9fMrlPNN/s8Bl74WlfQbar5L1EHCp6QhafLxkEUBshDpLuGGvYg01oHqBdeBoGbvDKizwejC2OxKLpeekw3nUEEw3e6wv1BKQXX3lsVIXPeWwyGE9lZh6x+uRO1rT0Hyd4KKgvKdu9pid5GVfi5EENnfgF3zb0fNCwuMUT3qfp6Vi+eibd1qNZ6/E9tnX69Eo8XwaQGKsiL6WtG0ajnKb7sclQvvRXBPhZIXqKv9GZ4r6tlEAXIoCN93X2LH7Oux/Z5rlQE30Nlru6UyhSxo24osxPcOAcWME9nfgMrH74EUCmjvoYZ95l/7R4OJaSAha2aMjP0L4yTtlJ+D8yQZtHNZiKD1yw8Vr3kcHZZ1uZF87MmKiUCFqpsTd27bZKq16yEsi8QjjlZ2FzKhc8f38O8sR2LZJLgKx+irFWfs159q8zfrYRi4i0rhmThVXwMpoOyk1NtiBC4xSdEadTvDQ03l21H+XUy7fzScx4uUn5wB1iRHC6UUQtt+tH+3Bmknn6evPmCE9la0rI7P5BUPXIIH+dfdiYoFd+mrDgpHXgGcI0eD4bSzE6GtGZ3lG5RONgAQloM9K8+0vQX3Vig2afW8lOmnak0Akohg9S4Ea7QZ+foL63Qj6ZifatI8U1mCf1c5wnU1mnNjovpQ7Jm5SDpyGhLKJsOZXwQ+Ob37vpHmRgQqtqHj+/XwbVgDoa2l99kyw8CRPQK5v5yJhndfQ+fWTeZadi8QjgfrToC7qBSu4nFwF5XCnjNSE3AhCxFEmhsQ2lMB/65ydG7bhFBtNeRQMG6TCuNwwnuUmps9ikDldiWjZpwQloVn4lRlq0rNjEHZGc23cS3kGBvzHCwDIswtLCwsLA4vh07nt7CwsLD40bCEuYWFhcUwwBLmFhYWFsMAS5hbWFhYDAMsYW5hYWExDLCEuYWFhcUwwBLmFhYWFsMAS5hbWFhYDAMsYW5hYWExDLCEuYWFhcUwwBLmFhYWFsMAS5hbWFhYDAMsYW5hYWExDLCEuYWFhcUw4P8BpB4FISj3fmwAAAAASUVORK5CYII=;" parent="1" vertex="1">
                    <mxGeometry x="735" y="600" width="118.28" height="22" as="geometry"/>
                </mxCell>
                <mxCell id="68" value="" style="shape=image;verticalLabelPosition=bottom;labelBackgroundColor=default;verticalAlign=top;aspect=fixed;imageAspect=0;image=data:image/png,iVBORw0KGgoAAAANSUhEUgAABOIAAACgCAYAAAChWcMyAAAAAXNSR0IArs4c6QAAAARnQU1BAACxjwv8YQUAAAAJcEhZcwAADsMAAA7DAcdvqGQAAP+lSURBVHhe7P13kGVXft8Jfs61z6f3Wd4ABQ802lt2N9lNsimKIiVKIkXtSBETsTMRO7ET+8/+p4iNjf1jY2NjN0a7qxijnZ3RjEQZiqTouptksx3aoYGGbaCA8lXpM5+9/pyzf5x7X71KFIAyWVlZwP1EnMqszPfyXXPuOb/zPT8jtNaakpKSkpKSkpKSkpKSkpKSkpKSknuKtfsHJSUlJSUlJSUlJSUlJSUlJSUlJXtPKcSVlJSUlJSUlJSUlJSUlJSUlJTsA6UQV1JSUlJSUlJSUlJSUlJSUlJSsg+UQlxJSUlJSUlJSUlJSUlJSUlJSck+UApxJSUlJSUlJSUlJSUlJSUlJSUl+0ApxJWUlJSUlJSUlJSUlJSUlJSUlOwDpRBXUlJSUlJSUlJSUlJSUlJSUlKyD5RCXElJSUlJSUlJSUlJSUlJSUlJyT5QCnElJSUlJSUlJSUlJSUlJSUlJSX7QCnElZSUlJSUlJSUlJSUlJSUlJSU7AOlEFdSUlJSUlJSUlJSUlJSUlJSUrIPlEJcSUlJSUlJSUlJSUlJSUlJSUnJPlAKcSUlJSUlJSUlJSUlJSUlJSUlJftAKcSVlJSUlJSUlJSUlJSUlJSUlJTsA6UQV1JSUlJSUlJSUlJSUlJSUlJSsg+UQlxJSUlJSUlJSUlJSUlJSUlJSck+UApxJSUlJSUlJSUlJSUlJSUlJSUl+0ApxJWUlJSUlJSUlJSUlJSUlJSUlOwDpRBXUlJSUlJSUlJSUlJSUlJSUlKyD5RCXElJSUlJSUlJSUlJSUlJSUlJyT5QCnElJSUlJSUlJSUlJSUlJSUlJSX7QCnElZSUlJSUlJSUlJSUlJSUlJSU7AOlEFdSUlJSUlJSUlJSUlJSUlJSUrIPlEJcSUlJSUlJSUlJSUlJSUlJSUnJPlAKcSUlJSUlJSUlJSUlJSUlJSUlJftAKcSVlJSUlJSUlJSUlJSUlJSUlJTsA0JrrXf/sKSkpKSkpKSkpKSkpKSkpKSk5G4Zik565Pv3QeT/iN2/+ABQCnElJSUlJSUlJSUlJSUlJSUlJXvOIJV04oytKGUrkrQTRT/TpFqgECAKqU1ja41naVqOYNyzmKw4TFddpioulhDXX/qAUwpxJSUlJSUlJSUlJSUlJSUlJSV3hQak0oSZIpaaWGk2wpSrg4TLvYQr/YS1ULKTKEIlkCNCnEDjoKnZMO0J5msui3WXoy2fw02fqi2oOhYVW+DZFo4lHlhvuVKIKykpKSkpKSkpKSkpKSkpKSm5K1Kl6MaSV7cD3mjHnOtLLoWaK6EmyBRBJonTjCTNkEqilb4euCoEwrJwLBvPdai6DlXHZtKzmPEFx+uCEw2bM+MVlpse01UPx3owpbgPnRAntSZTmlSZr1JrpAI9EqlsC4FtCRwhcC2BawvjBnnDXyopKSkpKSkpKSkpuVuU1kgNqVTGRtcapczPCmwBlhA4lmmebQ1/VlJSUlJyf+kmkp0oZSWUXBpkvLQV8vpOzNvdhJUwYzOSRnHRGlQGSl7/WkhSwgLbBssBxzNfLZuKBU1HcLRuc7LpcGbC5/SYz4mmy3zNZbbqYFtGs3lQ+NAJcWGm6CUZvVTSS3JFNlNkylwGIaDiWFQdm4Zr0fIcxn0b37YeqBtbUlJSUlJSUlJS8iCQSEWYKdpxRjfJGKSSKFPEmUajEYDnWFRsi7pr0/Jsxn2Xqmvh29buP1dSUlJSss+8vhXwo9Uu39vK+GlbspXZdOOMOAxIwwFp1Aet0Frl1Rc0aAUq/0ouxlg22A7Ybt4cLNvFtl18z6fiulRtwdEafGQMPr/Q4PNLTWqu0WweFD6QQpzxctPsxJJ2ktFJFN1U00s1nVSxHUsCqQkzTZLvvJkdNzPRu7aFZwkqjqDhWIx7Ni1X0HAELVcw5lqM+zYtz6HmmNjk/UBqzdvtiCuDlEBbZJq80wpAULE0457g1FiFqYqz++0HEp3vgm5GktfbMd1EmoSNQwS+DdOOZr7msNioYN/m9e4kkiu9mI1Ys51qxH3o8rqo+pL/zwIsAa4lTF+zBVVbUHMEDdei4dpUHQvvARhMOonk7U7EZqwYSGEM5v2/xPcGIdAIZjzNrC9YbPg0vb15trpxxlaUcTmUbMZm8jkI102gsQQ4QuDZUMn7Z82xqDsWTc+i7thDT+ESQzeRXO3HbMSKrcRcR/FuNaFGfjz6Ci0EHoqGDacnqizUvZHf7h/tWPJmO2IrlkSFXXSTElfvcna70GZ3UwiQkklPcKLlM1FxqN/Cs6S0ppdI1sOU872UfpZvmt3ip+8+7OW6w8mWR811qDh7M75244z1IGEllKxF6j3u/e7npXiNebWFpuEIHpmsMldzsS3rHe/4IHC+E3G2HREqSNVt3MscjcC2YNKFuarDkbEqVcfe/bKSA4rUmk6c0Y4z2rGkk0g6icqbpJtI+pkikppUmgiWwoZycpvJtwV116Ll2Yx5NuOuRcuzzPe+zbjvMO47+2af3ynFtVgPUs71UoLMWMDmfAW+pZipODw8WWPMf//x8iByrZ9wsRfRTjSD7PrYqBFMeIK5isVCw2eqen/mu7tFa3MfL/cTXtsOiaUmnzaxhMATmuWGy5nJ2gMlEOwmkYqVQcJqkLIWSRJp1swagS1gzDHj8dHxKnX33o/H/SRjO8p4u5uwFcvhc0N+3Su24KFxn4Wai+9Y2B8AezVIFec6IWthRjc1UX3FeXu2YL5iMV91mW/4+7Z+1HkuuLUw5Y2dmOe3Yn68FfP6TsSFbkycpmRpAlkMSQhxQEWnVJE0XLO2qNgWvm2iEC1LIIRAaYEEEi2IFURK0Nc2A+0Q+U1Srw6Oz2TF4VhV8MSEx9OTPk9MepxqeUxU3D2z8e4lH0ghrthVe7Md8UY75K1uyvm+5FIgWYthM+F6UsB3ezC1BjSu0DRtmPFgsSo4Vnc40XQ4PVbheMtntuZS24cBByCWin93dpO/vtZnVXoEEiyVoQFtWUw7mtNNh79/apLHJqu7334g0RoSpXhpK+J/eHOHc72UVAuE1ggBWthMeIIn6pJPzNX43KGp236w3u5E/NXlDj/dyXi1pxFa7asYp0e6mFmggQ24uYttyxVM+TYzFYv5msNS3eVww2e66tLynQO/EHu7E/Nv39rmpXbKSiJQWiNyD9MHHW1ZaMvmmYbkoxM2n1me4MjY3jxb59ohr24FfH0t4WftdCh0CEasiXuNGPEEF9f7p2dBxYZx12LCs5iuWMxXHRaqLkeaHosNj7pr79tE/yBwvhPxN1c7/HQ75eWuwsIIMjdl1/hjZhuBwmLMkiz5mt89M8snF5r35fl/sx3zr97c5pV2zFZilhSW5h0d813O7jr5PIrtGlE7iXik5fBbx8d4eLLOQqv6vueXKsXFTsTzGwF/eKnPlSDL32P66k0Zub7FtdUaBIovLtb5rWMtFhqVPVv4ne+E/Hilw/c2Yn68lWLp97j3kEsK5vfFQkYJgaczlms2//SRWT4236Di2B9IsfsP397i99/cZCOBnjQC5HtfrxtRGA+oMw34+GyVXz4xy2xtb+5lyb0nkYqzOyFn26a91Ul4q5dyLZSsR4pIQaqFeTrEjT3DzI/mqXYE+AJmfIuFqsWJlsuJlsfpcZ/T41VOT9YOvEAbS8Xb7YAfrw34w4s9VoN0OCYIIZi0JU9NVfjHjy1wcnxvbI/95jtXO/zp+W3e7EmuhRIrv6MKwcMth49POnx6eYLHZ1u73/pAILUmzhTfvNLlv3ttg3YsSTVoLDwLxmzNF5aa/NPH5hh/QMVU8g2n715t89zagB9tJvRSY+coLFzL4lRV8bGZKr92eo6Fhr/77XvO5W7Ia9sB//5cl1d24vy5MaK9Y1lMV1x+99Q4n1moM1FxPxD26uog4Q/f2uKH6wHnBpJEKSw0Couma/GpKYdPztf5+NIEY767++33BKU1Uab48fqA/98b2/y4C69HHirqo4Me9LcgDtAoE4KapUwTMytSDtVsFqoOkxWXMd+lWfFwbQvLssgySZRl9KKYnTBhM0y5EmuupBZb1Wn6tSlEfRLh1xC2R1WnjJHwO8fq/NqhOg9P1Zmu7s81uBs+EEKc0ibx32aYcb4Xc74vOT8wE/pGrNhJFJ1U0U00gTTtugn8bphXWIBvCaqO8Ygb86x8cSqY9S2ONWyONxyONVxmaw5TlXt30xOp+KOza3zzSo+X0jqbmW1iqvOjrdqCQ1X4jTmLT81UODbZpLpPIuGdEmaKl7YCvrce8ccrKSuhQiqFsGywLHSW4qUBE+EGX1xq8I+fOMJ8q0a9cuuD/CtbAf/u7CbPdwWvxz7IPBZ9H9EjvU1gREZLgGcJvMIbzhbUHcv0M9fsbCzXbJZrNks1l4W6x5h/8O7nK9sh//yVDX7aVuyIKkpJkPt7fe8ZtgOOy3S8zSk35PfOzPGxhTEaVR/burtJ/ZWNPj9c7fJnm4IXusYlW+h3eh3da0b7JoAQ2uTgEeDbuTdc4a3pWIy7gmnfYqlqsVxzOFR3TG6G2r0b+x4EXtkK+A9nN3m+C6/FvjE4ZLb7ZTl6txaXu+G7uFnEOBG/PmfzhfkqZxanGatWdr343hBmihc2A55bD/nmasKlQBJmyvQSzcjX6+w+jWFn0hohLLAsM+rJDNndZNGO+Nikyy+dXOBXHjnyvkJTnCle2+zx3bWA378Sc2mgrh/LyKePfOyuoxJoYeWKl+ZhL+LZasSvnTnEJ4/Mjrzuznlls883Lmzy7S3Nj9ogVHY9xALeIbzBjYeoLQstLGydMW1Lfnla84XFBh87Ms9Y9dbnugeF//bVdf4fP1ulj0esbYSWN+tJ74q2HBzLYlIN+OiExT86PcUjM02mm3XE+/SnkvvDWpBwsRNxvm88Wy/2TQ6h7VjSjhXtRNJPFYNMITVDj6Kb2+mmr1h5Tmdjn1uMeyZaZcK3WajaHGm4HG24HG+6HB2r3DcP4/ciSCUvrXf5m2t9/u3lmKtBhkCjhY2wLCoq5nRN8ZtLPp9YHOPhhWlc++DZge/FH769xf/42hrnYoe1ROTPu0BbDpNELNDjHz+ywNdOzFCv+HgHXDzdTTeRnO+E/NnlPv/jWz26qUQp4wluWQLfEjw7YfFbiy5Pzbc4PTO++088EGyFKX/89gZ/dW3AjzoWnVQhVIa2HGzLYkIOeGZM8I9OG1F1Zqz5vvP73fDGVp+frPX5V+cDXtxJ859qtNZYtk3ddfj4hODzc1V+5dgki42D9/zfLhe7Mf/ipRW+vRZyOXVJlEIoibYcPAsWdY/PzPj83qMLHJ+o39Za+XbRQJhKrgUp31oJeG494ifbKVe7Idv9AJIBOh5APKBJypIHyw2PQ60Kh8frLLWMQNr0HKqO2VxzHRtb5B5xSpEpRSJNioIwk7SjjM0o5VIv5lIv4XIguaZ81txxtF/H86s80oCnWha/MOfz9FSFo2PV23bg2U/sf/bP/tk/2/3DB4lIKrqJ4tog49WdmO+tBfz1ashfrMS83FW8HcJqLNjJBIESpAi0uL7T9u4NEBZaCKSwiLRFV1qsJ3Ap1LzRzXijY1x0e7HxSrMtQdWxEblxsNfjj9Ka1e6AtSDljchlJbUZaJtACQIp6GqHgRS4cZ+6yDgyVqPqHtzdF51PYH99rc+31iJeDx02M0EgIRAuIS79KGa7vcOlK5cYExkfmR+jWfGo+bc+oF7ux/xgtcdbkcUVWcnFWEUgBYEWBMoy11BZI9/vbQuL77Ug0BYDZdFXFh0p2M4s1hPB1UhzfqB5o5fxcjvhfC9hJUjpJ5JMazzbws13dETuen0QuDJI+fPLPd4cQMeqmvuX7e/13ftmjjW0PCLLY2Vrm51Om0daNss1h1rFx7lLY/hSL+TNnZCXBjbnYttcL0XeimO4fizvPMa9acO+qa7fr4Gy6EmLHSnYSAXXIs3FUHG2L3m9k/J6O2FlkNJOMlKlEMK4l5OHXAv2fvw76FzuxTy30uVsaHFJVRlkJgxnoETeYCAFAynoy+Jn11uAS2h5dBJJO4xx+5tU0z5Hpyf2RYiLpWIzyvizy12+sRLySl+wlsAgg4E07WbH/Y6Wn+NAwkA7BMKln0p6QUh3Z5Owu03U3WG5VeVjRxfeVzhJleJyJ+T1dsIP25orcf63hy3/vMz8vD/ys35xrfMxd6AsOu0drl65yGNzEzw2P/G+n38rXO6GvLDW49U+vBk51+/96LUYfjXXtJ8fa19CX1kMtE0v0wzSlHR7jZqMOLMwReseGtL3i7+62uUPL3RoK5eetulnin6mb7wm79EGuPSUYK3bRychx72UKd9mqtU4MPPihx0NZEqbnG+J4uc7Id9f6fGXV/v8+ZU+P9iMeamdcSnQrMeabgaRNt6OemiD519HGf7cCOwKQawFPSnYSDSXA8XZbsIbnYQ3d0K2wpRESnzbouE5KK2xyAuw7f7b94FEKi52Al7difnhjuJaZJ6Dgbbpa5t2khFFEW5vgwlHc2LuwRPinl/r881LHa6mDuuZTT/V9JVggMtmb8C5tU0eGnN5uOVR9V28A7xuuRnbUcZP1/t8fz3mB9uSnRQGUjNQ0JcWbe2QpglZd4vpqstDM2O7/8QDQT+V/Hilw8+2E96MXLYSbcRzHHrKYqMfoJKQI07CtG8z3Wpg3eWG9XtxrRfyVifi+1sZbw6UmR9ye6WvbLpSsNYNSLOMRycrTFYcHPvBTvewGWZ8/eIOP9tJWVUu3UzQTzUDHLqZ5srWNnYa8eS4x2TVpV7x98TG2Y0GlNJcCxJe3Ar5X9/u8VerMVciGPS70N3ACjt4SZ+WlXG4KvjIuMunF5p8+cgUnzu5zKdOHeaR5TlOLsxyeHaKxelJ5icnmJ0cZ3ZinLnJCRamJlmemeLo3DQnF2Y5PTfFIzNjLLuKWR3gx110GhFqgbQ9IrfGtUBxeSCxdUbN1szVPHzbFOE8iDzwQtzPd0K+vzrgj66GfGMt5ZUeXI0F/Uwg84pLxd6ayKtwCNtB2DbCKpqFEPn3to2wnLxd/z3kW+1aoQsvNCGItM16anG2r7gyyNgKYnxLMOnbZkG6hw+AEFD3HDzH5tXNAWtBgnZ9tNboLAHbRVk27SDCtwVPz9RpefaeHsNeIpVmK5b80eWQ57ZSuhlIpdBKDa95NuigelvY3Q0eHff40ol5JhtVKt6tC3EbQcobOyErsWAts9EyNfdQG08PIUxSyGFfsEzZ5HvShGnGAsyNTK1Ba5O4Mo/3B0EmLHrKZiUWvNVXnO+lrA4SbDSeJai51oG4t+thxk/WB6zHEOKglETLbBgeVnjF7Mv13etmuwjXQyYhNR3zmBex7Ckmxlq47t15gK0PEq4NEt4MjAiLypOXqiJLojDj1X5eN4r+WRxl0TfN1+KeKmERaJv1xOLtgeZCP+VSL0JrTdO9XtHuw8RGmPDGdshKIlhNHbTM0Cp/DtTI9dt9PYsm8s0fjFdiq32VmazPY4cWmWzWd3/cnvN2J+JH6wF/uZbyUlfRSxVKKrSWNxz/TY992MwYlp+E6UsIZG8L2VlHxX0WHMmnJ2w+ujTF6aX59x3DpIKNMOZSP+OljmQnyStrveMz3+P4yF2QLQc9aCN3Vvn0kVmeWJhE5Luvd8N6kHC+E3IxNBt1pgrY6HGy6zjN98Njhfx5t7C0xt+5yoKT8dFjS4zX7r0Iu9/8dH3A8+sDUmGTGov+HffxPZuwhyLNuEg4kmyyULVZnpu5pwu/klsnlYrVQcILGwF/cL7Dn14e8J2NhLM9yWasiaRGjfb/fPzDsox3cB4Vgci/DlvxO1NFr/C4Leaqwq7TGhIsdlLB+UBxrptwrhOhtKJqQ9W1D8QclSnN2iDmQi/lpXZGJ82fBXNBwLbxVUxr+wqHajZPHFl+4ISqN3YCXt4asCMtehl5REr+HOfVEp+oZpx0Y8aadWrVBysEdyVI+cblLs9vxlzNo3qG45kAXB+Zpey0dzg+XuOji+N7Mu/sN2EmeXMn4MIg41IEUZZXuxx6vivGRMrReJPFqsXy3Cz2PQwH3QyNDf3CTsrVoKi4OTK/Ko0UNrZlU9cJVUszX/cPrCBzK3TijOfX+1wOMtqZbfqaknkeXiBLmHMyHnUiZioOUxOmr+01mVIMUsUfXOzxr8/3ea2n2Qkiss4GBDvoZMA4CUd8zVcOT/Brpxf5xUeP88yxZQ7PTdOs1bAEZFlGkiTEcUyapiRJ8o4WxzFJkhBFEUpJhGXRqNWYn5ni5OIcxydbHLJj7KjPxuYGyquSVFrsJJpBpmhakqotmDygYar37gm5R2htBJz1MOOl7Yjvr8f85WrEX63GPLeZ8mZfsZ5AikAJI1QITCIkraURYdIkbzEqjVBJZL5mMSpNUFmSizUZWkkj2qg8PKcQFoQgQ7CTwvmB4ic7Gd/eSPj6SsS31yNe2I65FmSEmTLGxh5gCcFCs8pDk3VO1zSLboaTu+Eag14RK7ikfN4IBec2dtjq9nf/mQPDdpxxvptwIVCsxJpEmoFUCIGWEp1EyHiAm4Uc8jWHag4t38O1LKSU5pxvgaIogiN2LYYKkUFJkJm55zI1C+h73JCmX2lphBe0zr2IhFmMW8YLaiOBs33Tv/5qLebrKxF/tRbx/FbEhV5CN7n/IaAWJoTRtfLrm59PMSGa88z29frefSuOM0XJFITJZxIEAYPBAClHw87uDEsYsUpwowhnFhEK9P73S63M16J/Xu+b5P3TQgubBIvtFM4Hip+2M76zkfAXKxF/uRry3EbEuV5CO86G1ag/DFhC4NomaTFa5q14HkzTRaWomzYNWqKFyUsYRnHe1+7tM55IRSfOeGUn5lurIa93JRuxJslG+8D143/nce86B6VzIc5CywwV9ZFBBzvqMGclnBlz+ejSFEfG66RJcktjuSXMdTWh24Wh/c520+MbGuZGHJRaEacZcW7kKbU3z7JrWfm93yUa7T7e/Jl6p2CoQFgoIYiShCiO9+TYDiJOXgDGzMnF9dl9Pd6r5ffTsskU9Ho9gkHwvv2oZH/YiTLe6kQ8txbw9at9/uRSj79eCXlhO+VSIOllRQ64YlOysB3MnIdMQSaQ5V9lOtLy1CKjY2zRf8j1KwQZ0M80V0LJz3YSvrUa8p8u9fn6lQHfXwt4qx2xHWXDt91P7Hx8e8ezgALLQiIYBAFhGD6QfdwWprjG9ed95PyEAMchimN63S5ZWoQYHnw0kCrNTpzxZifl8iAdEeHUSP/U9JTFudTjQj9hbWubIIp2/7kDjyDfZBUmj/c7xmXbRmpNv98nCILhmvleYewCMTLHj4wFSqJVRqgFV2P4znrMC5sh3Tglvcc21b1E5CmN3GLtMHyW8mbZZErT7/WIwvCe3YHVIOXHGwP+Zi3ie+sx13ohcdBHD7apJV3mrJgnJyt86dgMv3xqnl86vcQnTx7izKEFFqanaNZr2Llnr1IKrTVKqeH3RRv9XTH2ObZNo1ZlfmKMR5bm+PSRWX75yAS/OOfx2VbGCSvATQZcjOBHHfjL1YiXd2L6SUa6B2u3veaBE+Kk1kRS8dPNkH/x+g7/9krEt9uCtdRCodHFRK218WrzKgjHMwJHEqMGXbLuFml7jWRnlXRnlaS9RtJZJ2mvk3TWSbsbpL0tsv4OMuggowEqM5ODcFzzN20XgcgXrilaGQHwp32bf3Mp4v/zRpsfrg9YDxLSPV6MtjyLT836PDvpUsHkohGWnRswGaI5zqZ2+farb/HaxasHduI+24743uqAjUQjLBudXyfheGiZIcMeMhowZkk+u9DiY0sTTIy1sG2bJF/A3Q3GWwPIUlQ0QA7ayKBrPjfY69a9/n3YN30qDtFZbBa7QhhPTddHuJ7puzAURzKp2MoEP+sJ/pfLCf/qQsA3L3c43413n9YBQpj5MY1QYR856NzD63svWpcs6CIHHVQcoGRqvGzv5eM03CXV5vOiwfXr9o7j26t2Y99U8QCVBOg0Nh5dmFx5wvXzsc8BxHWBVUnameBs5PAHKxn/zZsDvn6lz9l2SHQAJ717T2Ec5d9eN5FuEfN+17HxXAdxj3dvu4nkXCfk+xsxX1/PuBbm4lshGN3q8ecGoVlfG29SlYRk29dQUY+6pfjkuMUvHxrns48/zNLsNL1ejyiKbkmMu87IEWnj+VJc7nfn+usdy6Lq2sgsJQzDu55H3p/rBzjSLW6ONhW1PcfBc5x7spP9wUGbRRdgFV7DRoUpuc/8fCfgT87v8C/Pdvg3F0N+3td0Mm3mk0JEE5bJwWp75nulTEW9sAODbehvw2ALBtvowTY62EGHHYjaEHUg6kLcN+/JEtMXLMv8Pcc13lb5ghwl6WSatwLNv7sc8t+f7fKnF9v8fDtA3vK4cx/QZkwQgOu5OI6TC40fMFS+6H7fcfxgYSp6Z6yHGRcDxUasUfq604bZwdWQJijLIZtc5Fog+elrP2dzp73rr30AyJ8ly7axrAMQPq3NJvdOqvlB3+HHHVjpDBjED47Ye1vk4wVaGz1k9+/3kOc3Qv5fr27x/HZKIEH2tqC3gc5iZh3JR+uKf/jYIf7Lzz/NZ8+cZGl2Bs8xHmlaa2zbxvd96vU6zWbzhtZoNIat+Fmr1aLValGrGQEvDEN2dnZot9s4tsWpo4f52888zP/xc4/ylUbAka03qZFyTfn84YrkW2sJV3oR/fRe23u3zwMTmqry6pqXBxnfX4/41lrM97ZSrkSwnShksTouXGSFZbxJksgsLoMeMuohwx4q6CLCLnbYwY/61JIetaRPPelRT3pU4z6VuIsb9bCivhFp0tiE3GEScIIJOx11L5YaIqnpZ4pOqomV2S2p2UbB9p29iU0XgC8EvUzz2nZEKEE7Xu5VoxF+BVRG2GkzXa/w+NwYQogDE7Kh8lLff7Ma8M2VkMuRiekvBEXhuMg4QAYdnME2R92Ur52a55nD80y1mkgpSZIEx3GMYfI+rAcpr24HXI4EK5kz9DoStgNSGiGiv4PsbqKiwHhIxoN70IKRr6FpaYzKEtTQ+zLf0UGb/Sdh+ozO5/NYarqpJsxz5WgNjlB4tjXM0bXfrIcZP1wfcCXS9HGNB6jS5jlUEtlvm+vbb5vzT8KbXJuD2gJkPDChqWQ8VdecmqgxPz2N73nmebvDxfLaIOFKP+b1AVyNMPc8F2SRGToOkL1tZG8r7y+B6Z/vOMa7bSN/MwrMszf0Ek5QMrvurZeHUBfem0UYq9SQKuhlim6qybQmU1CxjDdqzbEPRD6ee8l6kPLqVsDlCFZSZ+RZvjWEsMyGBBpLS+bDdY5X4Knjh5lo1IfeUXfa33YjtSaRmld2Yv7syoDntlLO9pXZMcyPW5th6L0ZtfaEQFiO6SdphAra6GCHGSIergu+enyWTxxdYHlmAgsIw3A4NxVtN5nSrAcmdOvFdsZOcifmpfE0xrLwoi61cJtPLE1yZrqF53k4dyl6rQUJb+0EvB1oLoZmLjMX7/rK8j2PWuQ2i2XhaMlUuMXJpsPHji/Rqpj0E+zhvb/f/GR9wHOrfQJtE2txW88JGE84hAVaMkXMI07AiekWRxdvzDn4QbleDwrXBgk/2xzw19cGfGst5OV2ykqQkag8DLV4DoVl7rlMjZCWBpAEkIbmazzAjnpU0wG1NKAhAxpZQDMLaKQD6mmAnwxw0wArCSC3oSAPQceMRaOTjkKTKk0vVQwyTZiZecpB41iClnd/hINUaVb7Mee6CS8WoamMjgmCmo5ZjLc4M93kqeOHcWwLledmfRD6+OvbAS9s9NlILTpZ/rwLE3aLTCGNeLouebRlMz8zQ7N+71Mx7AWp0pzvxrywEfLd9Zj1qAiPJJ84R9LPOC5Um4zFHaqdVZZmp1maerCKNoSZ4ufbA97qplwIBaHMN0OKEHGVMUnMGTvgxHSTo0sLWJZ1z+avzSDhSj/h+e08NPVdUMIitHw8JG7YpeW5LI3Vdr/sgaAdZ/x4tce5fsZWZrzf0Mo8SwBpyIKd8nRDcWSyxdzMzJ5e950442w75JsrIX++krAZxMRhHwZtGjLgkJvyyfkWXz29xCdOHOLU3CRaZqz3Ql5e7/LzzR5vbfd5ezvg3E7AuZ1B/nV3C3m7HXC+HXCxPWC1G7AzCEllhmOZR0oII+oJIXAdh7rvMtOo4agMX5jCP91Esm1VsQSoKGCi4h64oh0PjBAntaafSn6yEfHfvtnjuW3JSuoSZnk+KmVuhnB941kkBCroInubpN1Nst4WadRHBn1k2MUJOlSCHcbSLhNpj6mky0TcYTLp0Io6NMI2btBGDNrEgy5pHJLJDIVCF7mabBfLcUy4li68CCSZsOgrm7M9yUYkmfU0455gsnJ3xn6BY1tM1Xw6ieTHVzfpKZvMb+bXQSJsl0gJrsaC5bEqn5q0cWz7lkSr/cAsABV/dCXkP12L6EthvIw0CMvCsh2yqI/q79Dor/FIXfD3PvYYpxdnydKUKIpIkgTP83Bd932v6U2FOA3C9SBLkO01sp1V0s1ryChAJqHxWguNcLs3Lf97UfF9Hxn1zWelETIzIdGqCLsQIGwHy/VBWAjNMExMCMFAWVyMLfpJShTFzNdcFur3J/79pkKcVgjbQWcJ6dY10vYqsr1ursE9ub73qEW5x5iS1F2bp1uCUxN15qen8FznrgyMmwlxQlgI1zNi8KBLunmFbPuaEcfigekzu49xL1uU98toMBTkrvdNE64vEAjbxnI8hG2be60VWkoEggyLqzFsxBpfZ7RcwWLd+8AnUR8V4q6lZpzRtyEwCGHmFQ3YWjIXbXLMVzx14jBjtSppmiL2cEMlU5pemvHNlZD/5o0+lwJTrRBt8nQWObjek7z/D0Umy0a4vgnp7mygwi46DXnETfj0pMfXnnmER48sIkfG8eKcHMcZhiqMcqMQJ9lJjBfcLTFc/OfJ3S0bL+5SC9t8fGmSR2Za+L4/FOLu5DlmlxB3KcxzIGn13uLbKCNCnKslU9EWJxo2zx5dpOG7ZFn2rkLlg8ieCnEi5hF7VIi7bpzf6f0suTOeX+/z+29u8c21hB/tKPppES5uqmRiOcYLzrIgjSDqofs7xrstGRghLo0QYQcv6jKe9ZnM+kxlfaZkn+msx3jao5V0qcVd3KgLUR+VxiRZap5zK89zatlgufnGeb5YzY8jVHAxhO1IEkQRU1WXY2P3JxfjrQhxdZWwGG/z8FSDJ48fwrbEAzUmvL8QF/N0Q/FYy2ZuZppmvX5XttV+EUnF8+t9frge8GpX0kvzDUtR3L/82LUaCnF2f4dke41HD81zem5y95880Ny6EDfgxJQZj628+uW9GI9vSYgrjs+vEoQh569c4/BYlY8sTux+5QPB+wtxEQt2yjN1zeHJMeZmpofv3Yvrf6Eb8c2Lbb69mfGzvkPSa0N/E50GzNsJH69LvnbmML/9mWeZH2+ilGJ9c4sXL63x73++yt9c3OJH1zr85Oo2P7mybb6+o+3wk2vb/OjqDj+5us3Prm7z9sY2G9tthJKMV1wa9RqNen3omBMEAZZlUa/XOTozwbHJJqsXz7HR6dOZPMxGJHnl6joPT1R5ZuZgCf1C33o8yH0jVZq1MOMvrwV8ez3mua2MrUQRS/KFTu7dBOgsQ8UDZNAbens4yYAmGQtVh7may0zVY6LiMlFxaPquKYBgWTiWqaSktEYqTZRJgkzRSTLaian8tJkY9+NVXWHHqWO3prH8mgmJkBlkKbrISycEsxWLJ8csvjTv8ytLNSZ9h8Ye7bz9bL3Hv/35Ct/vuryQ1NFZagwNxwXbQTuCL1d6/E51myePLXNicW73n7gvXOon/Hwn5H+6GPOn12JUHv6EsM2+pZQk3Q2s3gYfc/p8aanJP/jMR1gYa9Dv98myDKUU9XqdWq2G67rvaYy8vDng989u8v224Kehj85MKLHwfHQSkWxfYzZY41i0zvzMNFPj48RpQpa9y8B+hxSDoNEcNVJBqk0LM81AmsphHWWzg0dWHYPGFJbnYzkuZLlIVyySLZv5ChyrWfzKgs9nZn1OjFX2fWf35a2Q/+fL6/xgR7Giq2RSGlHGcVFJRLx6jvlkm8cqCVONOo1mkyRN9/z63hOKe+Z4tKo+n56u8Ohsi4WZGaoVH8uycN08ZOQ2eWm9x3MrXf7DGvywnXua5UKcjENU0GVy8y3m4y1OLs4yVqsSp5kJfdjjUducpjB9M/dYlRqS3Ms3KPpmJmhbFQZuA7s5iVVpYNlOntsnNQtgzGJo0rM41RB8ac7nby1Vma+7jPu3f50eFF7eHPD7b27wvTY8H+TjjMxDe9+LYsFhO+C4KMCRMU9uv8oXWhm/96VPcWhq3FTOc10qFbNgvFuj6kIv4RtX+nxjJeIbawmpUmiV5yd8T26MHyq+FbYDwkJnKSo0m2CNtM+UCvmtM4t89eQiDy3NMlb1GQwGpGmKlBLbtnFdl0ajge+bZ2r03KJM8cpGl7++NuD/eyHm7X4exqrNSPquDEXC3AvHtsFxqbevMLH1Nv/Vx0/xdx87TK1WG4pxtm2/51zybry00ePPz23y9XXJt7eLlAK3Mb4VCegdh4qKObn1c7485/JffOnjLLTqJEmC7/t4nkmzcbf3/n7z/355jf/bCytsKo+uNAu4W1dXAccDy0bLmNOiy296G3z51BKf+8hTKCXJsmzo6Vhy71kNUl7eHPBX1wL+4uqAq4FiI87zY5H3b/LHNQ3RSQBpbLzhkpCWyJj1NPM1j7m6x7hv7PPxikfDc6g6Nq5t4RT2udakUhFkin4iaScZ27FkK1ZsxIprsWDbqhBWJ1BOxYSrysTYUMWYISxmfJtDdZuvLNX4xcUaD0/WmK/vr7dEkEpeXO3wjSs9/uX5iEtB/iwUxShsi+msyzPdN/hbJ2f5vS99CkdAHMdUKpXhmHCQ+Q9nN/nvX13ltcDhYpSvlYQA14MkQAcd/slcxm8vejxx5jSzU1OkaTq0rw4qO3HGf/fqBn98qccrXbNGNIUortuOkM9FXgVqY7QG68wNVvivP7LMbz00R7PRwLuN4nP3k60w5Q/OrvHnVwK+tS3Yjo3dh+MZgT2LOEGXv+Ot84snF/ncs0+hlSJNU3zf3/N7+fpmjx+s9PgXbw340WaS/7SwDUawLHB8fNuiZil+e8Hi7y87nJ6bZH6sceNrDzgXuhH//MVrfGMl5M3IJcqUeZ5c04d0sMPTXsA/nZN85uQyj595CJmvmd9ts/NWkFoTZ4q/WQn4Fz/f5qWdlAv9DHobeOE2MyrgozM1fvPMMk8dmuPU4iy2bZNmGRcuX+U7KwP+p02fq6ltbLIsQcg8RPhdxi9ju4Fj2dR8h1bVZalZ4WiryucnLZ5oWdQtsLSZ8y3LGoa8DpKMH5+/yjevhfyHbY91KkjH53fnNX9nweaJuRbzjfuz+bKbAy/E6bw09Ms7Mf/8511+uJ0x0KZSiM5Ss/uVe6dpmSIHHbLOJmlnHReFh6IlMg5VBE9NVnh4qsnJmXHmJ8aYGWtRq1Wp5EZ4sbtUJAxM05Q4TugHAVudDiubO5zd2OGNjQ4vhg7ndB05fRjdmES5NeMBkSUmrEwZjyCza6v5pXmXf3KswpnxCoeb/rv1u9tipRfwymqbP1jJ+NerAl0spGWGqFQQU1Oc7l/m2bWX+c2PPsovPHrivk/YGvjB2oA/vtDhe23Bz3qgs9RsILm+CYcLu6SdTerRNr97qMqvHpvmmTOnqXou7XZ7mNOnUqlQqVSo1WrvaXC/qxCXe24kvU2ekhv8oljjqeOHOLE4Tz8ISJJiYN8bzLUXRoSTijTLCNOMME7ZDkI2BxHX+jGXQsX5xKZbnSAdm0PXxtGVpnmvkpAmZiGahzFWXZvPjSt+YcbhK4fGONzw9rUq0LsKca6PTmPitQs84/X4nTnBydlx5iYnCcKIODnI+e0MxeCoETi2zVSrSbNawXUdXNfFdV2q1Sq+7+965/vzrkKc4yFVhk4jHtn+Oc+wxVefOM2hiSb9oMhptdfDtlnca62RSpFJSZxmBElKO4jYGoRcHZjdx/PSY82qoycWUI1plN80O8BSmo0IJU3OSst4+Hx+yuYfLjs8NV3j9Hh1T8a+g8gdCXGj06/tmLB8wN0lxC1NtOj1esPxbrdYdTsoDaFUPLcW8H9/edtUIlWW8caVJl/lu5Mf741fTP9xPUCjejuowQ4q2OGonfBYVfGff+FZvvrEKaIoGrZil1xrjWVZNBoNqtXqO8JER4W4f5kLcbyfEDcU4cB4xN0oxI1vvs3//pOn+buPHR56VjvO9Wf6dnlpPRfiNu5SiLONEHdi++f80pzHf/HlTzBbN8JltVqlWq1i2we3Evqtck+EuNNLfO6Zp0iSmDiOqdfrD8wC90FFaVPs5cXNgH/z5hbf3Uh4vpOLEToPzxaW2RxWyswP/U3EYAeHDFdLPBSHfHi4YfPIVJ0z0y2Wp8aZm2jRrNep5mJTIZLrPHG3lJI4TgijiJ1ul412h3Pr25zd7PKzdsI5VWGjNkfgjxG7jesFiIoNayHyiqw2n5i0+cKsy68fn+TpmTqOZQ0jXO81dyLECSUJgoB6vX7TzYuDxq0Icf90TvL3lzwee/g00xPjhGGI4zhUD2gFVak1q0HK/+knq/zHC13a0iJRXO/3hdcfmDnI8YwYl8VUsoD/+ojgHxyucnhpkWbjwRCDbkWIOyl6/B13nS+fWuBzH3mKNK92WfTVveyntyzEkd+XWgvGZvkUa3zR3uDXHjvKM4dmsB6gza1bEeKe8UP+6bzkMyeWeOzhh4ijiDRNqVard2TfAMRSsR6k/MdLA/7PL3dZ7w0gHkAeWfh0JeWXTy3we5//KBNVjziO8X0fqTRvXbjIX6xn/PPBIhdT19yLqAdxkHu33+Taa/PYGNvNBb8CtRqeEIwJze/NxPzatOaRyRqTvo1Sijg2c3+1WsXzPJRSfOfiJv/X75/lZ9YMqzMP80x2jc96HX7n0UWenm8diHt/4ENTpdJ8/WrAf7w04OWeZjsFKXN3dyEQtguWhQq6ZJ1NkvY6ctBGxQGPNm0+P1fjV04v8iuPHOVTpw7z6OElDs/NMNFqUvV9LMu4zUoph6Vz0zQdel0JS+B5Lo16nemJCQ7NzfDQ8iIPz45zuukyHrXRQZd2pkktF7vWBK0RRb42TK6sRGkuDzImKzbHmy4ir/hyNziWoOm7XOonvLjaBsdD5bnizLXxSOOUrUjy8Nw4Z8YriD0MbbpddO5p8+OtiH93acDVCAJpfiFyUUmlMWnQxe9vMpd1+dojR/jkyUPUKj5KGtW70I6LRdP7ecTdPDS18KLUSJlx0s/4ZFNx+vASx5aXmBhrMTU+zvTkxJ61mcnJke8nmJ2aZH56mqW5GY4szHFyeYFHjyzz5OF5npwb51TdYj7tIAcd2t0u2q+i/TqWyM9VyqEnUyBNFbKlCrQcqDr2XfevW+WmoamFl6pSyKDH6YbNV49OcmJhloXZWcbvwfW9F21m2CaZGh+j5vsISyAzI7AIIe548X7z0FRh8oQJ41V2NNvmYT/lI6ePc2xxnsnxMaYmJ5ieeOex3lWbmmQm/77om3PTUyzOTHN4YZYTSws8cmSZZ44f4rG5Mc40XeayPlbQYXsQkAgHq2lc/UX+fIHZiUyk4nI/YbZqc6plitzsV9/cT3bniDPjzM28y96hYhmbwzLhVDoPTZ0PNzjqK548fohmxSMMw6H3mLgL46GbSv76ao+/uDrgp23FdqLJlDKr6vf6kzeIWyM/ywVEZGZyKva3caIujSzgi0em+ScfO8Mjy7M0fJcwDIljI8AXC+rC66HYMd99bjcLTb0pu4zv6//LQ1Pz6+tFXSrBDp88PM1jc+M3zB1WHiJ7u6wNroemXgjJw/He5TjfQW5xCuPl7GjJZLjJiYbNx08coubaRFE0FCKK9iBzL0JTj0+1OLIwT5qmpGk6FFdL7h39VPLiRp9vXRvwzdWY8wNJmBUiHGYBJSyzWA866N4GJANcnXDIkTw17vLLx6b4lYeW+aVHT/D00SVOLM4yOzlhqupZdm6jvdM+z/I52LFtatUqk+NjzE9PcXxxlkeX5nh4os6iDrDDHhs7bbTroypNc+CFkJ8/orGCTgrjrqDpQMN18Oz9ecZuJTS1pmIW4i0emqzz5PFDaCmHHtLFuHCn88F+cCuhqc80NI+1bGanp6hWfOI4HtpXB/HctqOUtzsR37ga8FonJVUYDx7bgSRCRz3jhakVIt84QElwPaxag+V0h6m0y9zkJM36g5Gv7JZCU0XCGXvA8akmRxbnydKUOI5vOZXQ7XDT0FSdP98jz88QIUBrYqVoC5+jDYclT+M6DvY+Pe93yy2FpjoZzzQ0hydbzE5PkyYJWZYNx4s7YTvK+M61Lt9eC3mlq4njAKIuftThkC/5u48f5YsPHWZxcgyVZQwGA7M2FxbtTodz/ZQf9Rw6gwF0t2DzMnrzEgzapvV3rhfpuVkLuxANIE2RCnYSRVtaHG04TPsWtiWw8xRchX1kWRZZEiP6bQZWhbdFkyTLSLTgdFUx70g8z8W+z/bUgRbiOonkSj/ljy4HfHM1ZjMVxApTeUlYZqGvNTqJyXpb6N4mdrDDlJVxvOXxmYUWXzw8xWdOLPH0kXkOT08w3WpQr1ZwbAshGIpwxcReNCnlcMfecRwqvk+zXmOq1WBhosVys8qhqkMt6WNlCYkGZTmEtm8WM5aFUCaERlgWA6m5HChmfcGCDxXHonqXyfVd26Lpu1zrhZzb7JDYFQLh5a7RArCINexYPg/V4aid4Hse/h2IBntBJBUbYcZ31yP+07WYfpYvQYQwHhVoZDwg7beZz7qc8VO++vhJHju0gMwy0jRFjSQs931/GFL0XguT9xfiUk64KR+tJhxbWmB5YZ6K51H1fWqVyp61asWnWvGpVczfrVerNGtVWvUak80Gs2MtlibHODzR5GiryoIPUzrE0RKVZeB4SMs1YiumGAmA0oKeEiRaMEZKy4b5ho+zT1u6NxXitDYiuVbIoMuphsWXl1ssTxnRx/fcPb++97b5VDwPtFkUFF6Ztm0PDYzb5b2FOAssOBpvcspLefrUMZZmp+9JvzRtd9+s0Mj75kSzwcxYk8WJFkdnJjjU8DlUsxhXEZ5KTCl42yFxfDPu2LnBqRUIiyDTXAkVi77gcEXjOzYV586MgYPMrQlx7xThhlhFsYZ3CnEN3yOKoqHX1p1uqLTjjPO9hD+51Oe7GzFXY4wx/X7eWzcT4TCGrcg9N1TURw/ayKDDJDGPthx++aFlfuOpU8M8Z2EYDhfQ5GKc53nDEKubhYbeshA3wo2vuLkQ96lD0zw6awoZFYuDQui8XQoh7q1ciBt6Rbwv+WvyRYO2bNxCiGs6fGyXEHc34bMHif0Q4grboOTeEEvFSpDyzSs9/mYl4MW2NKF5RT44kXuiqgyiPjow1VCnXMmRusOz0zU+szTOF4/P89Ej8zy8NMfsWINWrUrF87AsC6XMXLvbPi82ygtvWt/zqNeqjNVrzLYaHJ5oslhzmdIRrkpJkxjheKSWgxI2SuRzFGZsC6Sgk4EvFFUbFuouDdfalw2jOxXidudJ3kuBY6+5bSHON0KcZVkHNvT2Qjfipc2Q723EnO9LtMrFH8tBR10Y7Jg+ZlkIv2bGLJmCV0VUW4z1VmklPU4uzTHdejA84u5UiCtSK+z2dr9bbirEkS9/4fom1+gOo8wY4NCxqizYKVNWykStQtV7MOaKuxHi7jRdg9Kaa0HKn1zs8oONiNVII6M+IuqwICKeGnf5zSdP8eTyLBYmbD6Kotxb16bd6fB2L+WHfZtOEEPUo9ZdYaK/xqKvWfQUU0RMjzYRMUPETP51Use0VIglJbGE9cymp2yOeRlTrqLlu7jO9Vz4Oq/MauuMlorZSOGlnZjAcohcn0NZhykdMdlq4Lu3f032kgMtxL20FfJnl7r8cEdxPhQkUqKUcSkXtotwfWS/TdpeI+tt48Z9pkTM55bG+c+ePMovPHSEJ48fYrrVxLYsojAkiiLiOL5hZ01KI5gVIalFKwwAE6JqOlbxfr/iMzE2xtLsFIfHaiyoAUk04M3NLqJSx6qPg8wQUubeexba8ZBpQjcIWGx4LOxRLoooSXBVxqZyuFpE+2nQMkV4LmJygrHuGvbWNWbHW0w270+iwrUg5QdrfZ7bSnmtL5DalCwf5vdLQrKgQzpo82xL8IuLDZ4+dojJZp0gDxXVufec4zjD3D7vtxv4nkKc1sgk4hADTosei7MzzExOMBgMGAwGQ1fX/WrFOVYrFcZbTZbnZjk9N8UjU3XS7VW6nR2C+hSpU0Hkiz2tJJbjIrVmvd3FtzRPzzTuWui9Vd5diLPzqrQdDjkpz7QEk40qzUaDIAjuy/W921YsAJRSw4Xxnea+eE8hDjO5LoTrLIuYR44uM16vMhgMhmNQ8XW/WpJP5r5vxr7F2SmOTY/zUNPCTgIuXL2GqtSRzSkjEkvjvSpsG7wKThIS9LrMN3zm6rcfynvQeV8h7l09tgziPYS4VtUsTBzHGQpW7zXmvRsvbg741tU+397KeLOvibL3Kihxo2h4w/FqDXmFazChRrK3heptIZKAJyar/GdPHuJTRxeYmxgjDEMGg8HQm7nY5LIsi1qtNkwvcDOB6b2FuOteLbuv53VuLsR9MhfiRj3NnFusxL2bUY+4G6um3oybXNfhontEiKvbfOzEMjXXJkmSoedtKcS9txAnpRFqSiHu3qGB9SDhte2If39pwA83E/qZmRdRKi/I4BiPoKiH7m9C3AeV8cmpCr9+ZIyvPX6Czz58nMMzU1Q8lzi3r8MwJEmS4XxTbIrvbsWGWJZlJHn4WzRSAKZa8ZmbmuTo9DhPzTZR/R2211eJamPEfuP6+KwkCAspBJtRRig1Z8Y8pivGK+5Oxtnb4U6EOLRJnVMIcXc6H+wXtyvE1aoV0jQdbnQexHP76caAb6/0ebWTsVnMScU8M9iG7qb5v+MhKs3rQpzjgetj97eoqoRnjsyz0KofyHPczZ0IccUzum9CnMjne2Vs0OHckjtekKXg+uBVCHpd4jjm4Zkm07W9WY/fa+5EiCvGUd/3b9sjTudj1IV+yr+7GPDiVkQUR+i4j50O+OykzVeWmjx1dIlWtUK/3x+Owb7vIyyLnXaHt3sZPwx8Osrkwj2iuzztRfzyyXl+8cg0T0+4PDNR4dmp0Vbl2ekqz05VeaQOx60QK41pByHSrZJZDkl3E1clnJpsDDf4C9uy0ApazQZrW23efPUVkokxwokx5NXzuIMupxdnaFXv73rkQFpzidR04ow3Oil/s5FwcSCJlMldBHlSaC1RYR85aKMHO7Rkn9MNi18+tcgvP3yYz55Y4uTMOGMVD1tAlu+SFhP8qAhXTOzFIkHku0tFA6OujgpzWZoitGK86nNiqsWnD03xxbkqX24mHBYhIgnNIsUzyQC1ViituRRqftTWvL4dcq0bEO9BwvrFhs8nF8c5VAE/C7GLyUAWuSZc3o4dftAVrIbm+Itz3S+0hq1Y8aPNhDe7KSrPZ4c2BodGk8UhVtijHnU4OVHj4ycPM1mvvMMQK3bJCu+Aux/YjQibSYVSRhws7nPRX+51K4SOomVZhi0EDd/j2FSLjx2a5hePTvGFWY8j6TaNtIeoVE3uFa3RShEoOC99XusrXr22yVqnv/tE7xtaa9I0Q0rzDMt8R/dBammeXF7l49A9R2tU3vTwGpo+ubu/3OtWfF4cx2bsQ9PwPQ5PNPjo8jRfXG7xq/MuJ70EJ+6bAg7Dsc/sFF+IBT/swIVORHcwIMu9Cj8UvI8Id6vc6VjXSySXexE/2Yz59nrChYGin+Vz6k3ngpuIRaOIvDKhsNBphOxvo8IuNZ3w1LjLZ5bG+NiRBRZa9eHiuBCxC2zbHuZXfDcR7p2M5n95x1G9O3d22e4573sGw/XdwfZ4KflwobTmte2Ib13r80Y3YyvRZFKZDls8x7knHGEXOx5wuAJfXmrxi8fn+IWTyzw6P8Vcs4ZnW8OE7kk+zxZfCzt91D5n10KLfI4ZFebSNEVJie/YLI83+NihGX7p2DS/erjFo86AybSD4xlBBCEgz9u7Fmte62R892qHVzf7pOp9n9D7Sjkm7D86T7FzeZDxs62YnXi0OIMGmWJnMX4WsCgijtgJVV0IQgKURKcxW1S4SIOr7QE77c4wyqLkLhEmxQNKmmIw8cBUaC7ysGoFWUKWxJxPXF4YOLy00ubS5k4+hpWMorVmK0y50k9Yj6GXgcoSvDRkLOvz2GyLZ48t0ar4ZLu8lcnHKNdzcf0Kwq2A54PrM1H1ONHyeXZpis+dXOQLJ5f5hVM3ti8UX08u8aWTS/zSqUW+MF/jY7WEGQ/6WvDSdsxL6322uj2iPO3JqL3kOg6tRoPj41U+OS5Y8AWRFLwZO7w6EGz2AqIouuGc95tbsXz3nTCTrAwS3uhJnu8K1mJlkqxqPawqqNOEbMd4wllxnwUR85n5Bv/bTz/G337mYRbmZrAtQbvdptvtEoYhaqSE8ujEPdpprLzqhuu6eJ43bLt3o8MwZGdnh52dHQSaE0cO8dVTC/zvTtZ4yu6h22sI20HUmmAZQ0NnKTvK5XxW5WebAa+t7RCk75PM+xaYrVd5anGSZU/RSPu4IhcrAVIJYcoF1eB5a5bVVBDH8f6JCflaQqHZShQ/2cl4qy/zPGL5AkmAVhKZhLhxj4lwh1OTDZ586CSNWpU4jo1nTX7f7Lwqyu0q+3eCzr327nUj9xIpBKper8fOzg7b29tIKZkaa/HVpx7m7z1+lMejK0z3r2HVa5Ano9YyQ2pBXJ/icury7bOXOLe+vetsDg7FOe++Dg9Cu9lx7ze7P38/WrHI6ff7bG9vs729TZqmTE9O8rmTh/ivPnqcj9Ul/s41bNsajn1oM36vU+EN3eR8J2Rtu02yB2PfwUabtkci3N2wFaW8tDng+5sJ398xlQWN19boq0aO9/qXXS/JjSvbGLVCCFTUJ2uvoOIBE57gVw+1+NqxaQ7PTuI4Nu12myTfIdW55zmA53k0Go07yxszfA5vcoy7EZhXFF/vJyMHfJ+PpKTkjlEafrAe8IcXe1wL8nG8EBqcPBl3EqLDNiJsY8uEJycq/JePz/Mbjx/l6dMnqPsu/X6fTqfDYDAYChGj48RoY8Q+LzyDd9vnhcdNmqYMBgMzRyUJzWaTLz92iv/8U4/yWa/Lof5lfN+Faj1fnOfh+ZbDegJ/fG6L71xuk5QL85JdKDSZ1FweSH62k5qCBeReumjIYuwspqYTzngJT/kxLR0hZJZ7jUl0HNB1G6y447y1tsmVlVXSD7w9tE8IAba5zsQBOuyg47659rZnvqYxKujR9Zqct8b4zrkVfnbxGvFI2owSg9RwrR9zrhsT6NzJR0tqWcBc0uHhuSkePXGciuuQ5AUOi/WCzjUbv1rDrzewqnWzQe84NDyX2brP0swUx5aXeOjEMR45eZxHTp4Yacc5c8J8ffqRh/jM00/ylYeW+bUFnyOtCrHtcykSnOtErG5u0x8Mdh/+kMOTTb7y6BGO1GpkA82KPcUFZ4K17oD+SLTG/eBACnFrkeRvVgNe76TE2kJpY8CKvLqGTmJk1CcdtGlkA05UNL/26FG+9sQpjkyN4woIBgOSPMyvaKOTupUniK5UKlSrVWq1Go1Gg0ajQb1eH4bLFK1er1Ov12/4/Wjp8CRJaFY8Hlpe4PMzHl9pBMyJyFQQdCsI2zFiE9DH5sdtyfc2UrbC615Cd4ptCSqOxaMTPp+e8ZlyjVEhRD7oB30yz6dbH+Nnqzu8ePEag3hvK4K+F1GmeH074pXtiK3M5DIzhQZMnj+dJqhogIz7zHuaLyyPcXKyge95qFyYKgyxUZH01jwo7gwhTOLHarU6vPf3shV9rOhvlUplGPKYZRlBEOBagkPjdb5yco5PzFSp9TexVYao1PPBUaMtm7UEvrsWcrZtKuXsp+j6vuTPYvH87df13evWaDSG92m/w5+Kfjk6Lu1Hq9VqVKvV4bjnui5aa8IwxLVgYXKMZ8YEn60GzNgpmmJDwEJnKcp2GDgVXri2zQ/PXaMbHvyquXdEPl/dTCG69an+1l/5XiRSsROlvLAV8/uXQl7tZITSFEEyYlb+OcW3I/+9KXn4pAmzSZDdDVTQwVIpj9bhS3NVPn50kcOzU8g0Jc3n4ILi2S/60a17wuWMHNgt203De3Grb9hr8gs7eh1u+H1JyYPDZpjyytaAt3spq7EmzvJwVAqvIMskqw87EAcs+IK/dWySXzm1wBNHl5msV0ni616yN7PRC/vL87x3zHU3s9FH56libi7mKyEEQRBgacVso8ovPnSIXz0+w5F0i3rSR9THjGecNvntQgUXdJ3XB/DqlTU2Or3dl6DkQ0wnzjjbDlkNMwIlkMXcIizT/7WibikWfMGnjy/y5TNHOFrR1Emw/Kqx1bME5VYYuHXe2gm5sN0jKT3i9g4NOC625zOjI5aSbSbCTaoyMuslOy8ulUTsxJLnkgY/CnxWO32C++wdddBQWnM1yDjfjQmSzOQAVZL5isVHpmosNnxcx0bmBXV2C1rCsnA9H9fzzV6oMukAlFJkKk/JIgRpHnFTpBi43kxKMZll+J7LeM1ntuFTtTRaSjLHo5MqLqysstXu3PDZo0w1Gzx6ZIlZB5xeB+1W2cHnlSvrXFzfuu4cdB+4DQt4f1AaVoKMv14NeLObmp3ywpDOPaBUHJAFPbKwx7SIeWLM49cfP84vPX6K8XqVNE3pdDrEedWdYrd9dMK3LAvf94dCQCHC3aoYV7RqtTr0kHMch4X5OT47V+XXJiTLDLCyGOH54HrDXDyxtnixK/j+tmS1HxPtWqzcCRbw6GSFzy/UmfG0CQuwbJAKHfbBdYlrDV5Y3eHHF1bpRXf/mbdKkCle2gp5cSumJy2ktoyHo7DAdtBphAq7EPVZqlp86dgsJyYbCCGG+T+klIg83rvY/bytBdxtYuX5gnYbefeqFX1u1IgsDEkpJYPBgDRNmar5fPmhQ3xivkmru4abxYhqIw/XNv1rM9b8cEfxVjchDCOyPQh/3iv0SH4o13X37fruZWs0GjSbzeHzv19CXPG8Oo6z7wJmMd6N3q9i7AuCACkl9Xqdp8YcvjQumbcSswNsO8YjODPjUep4vLja5gcX12mHxtP1g04uw9ya+FIY9bf04vcnzBRX+wk/3oz595djzvaMZ7lZdOYfoof/XP/vuyHyBOzCQqcxsrOBiHpUheIj4w5fXWrw5OF5ZibGifMchsU4Pdp/a7eY3/PdeM9jvIHilTd6+e0fo9f4NvpBSckBZXWQ8Pxan4uDjK4UpEWuNZHnZkKjkxARdvGyiGN1h986OcNXTi5wZGEez3Ho9XrEcfwOL7hR+7zYqKuNbJIXdlL9Pezz0fmq0WgM56gkSai6Np9/6Ai/+tAip+UW42kPUW+ZcCk0SEmsBGvOGG+GgucvXOPqTnf3JSj5ELMdZby6OWA1yMiENRLdk4f3oGjYmkNVm0+eXOYLZ45xogZjIsWq1EzuxMzkioucKm93Ys63A+K7dMgo2YXjYVdqzFkJR2WbxWiTMRUiqg1wPSMIxSHdKOancpwfxzXObfXYGZRC3ChSw8og5UI3MRF8MkOrlIWay0fnW8xWPXSeNmc0LLXQXixLYHs+tuuZvOYyAynJpCLJ00FJKQmCgF6vR6/Xo9vtvqNFUYTWGs9xqPs+Tj5e43gMMs3FlXW22+8+Vo81apxYnGPG0VSCDrbj0dEuL1/d4MLGzn1di9w7JeMOyJTJDbcaSi6Egu3UJKLX6OECQCtJFvQQYZdK0uezh2f47Y88xOGJ1lCAC8NwaODrfJdNa43jOFQqlRsm9EqlMnRpv5VFQdG5Cs8s3/ep1Wo0m01c1yWOY6YnJ3j0yCJP6y1OB5epehp8DyEstMzQWYJuNtlxKjz3xjleOX/p7vMlCcFSq8bD001mrYSaNFXWsG1j+aeSONK8KSZ5VUyyHRmB616jNAwyzUudjJc6GUGW5xEprrNSyDTGigeMR22ONTyeefg002MmwXch2hTG2X54IBV9wBoJg9jP5nkevu9TqVSGfavZbA6vQ6VSYcFVPBqvMscAKg7keVaIQ5TlkE0f4mqkeeGNs2y+xy7BflMY2maAvj/Xd6+abdt7lKPw9igWKbuP51623eFAxSZGo9FgbGyMSqWCUorF2RkeP3aYpWSHxs4VHNcB3+SKI8vIUsm6O8YlZ5yNQXRDAv8PBCPOV7cnuhiV6NZf/97ofD4910v5n8/1+O56hBZ56IzOxbj8MzEz7C0crzDpFgDV3zF54bKYJTvhU/WMzx5f5JmHTuI7pspnMe+OzsFFv7mTjZRbO8YR8ptg3pPnJN03Rj7ttvtCScnB5fIg5dvXBnlIaj73Cct4mSgJQRfSkLql+NSUyy8utXjk0ALNRp1u1yRHL+xo8o25ws7zPG8ovDWbTaq7ckiOvu9mjNrnxXxV2FCO4wyFv4Way68u1fn4hMCOe+bp9KpDjyaE4FI/5Y/P7/D6drD7Y0o+xKwHGT9cD7gapKb/iyInogSVoVXGpG9xfKxC03OoCMUhO2HBVdi+D44pEodMidKM89LnXOrSi0xexJI9wvFwKjXmG1Wenqrwt5d9Pjnj4TmOCZ93XeOwkiUgLM4NNP/L212e3wx3/6UPNVrDTqpZj41wRhZjBV2mKzYPH1pgrF4drunIx3PbtqnlBbg0ApUL1joKII2vr/93UdiLu78fpR8nrPcCQizwzQaKkhmx1GQ3eX2ByOeHKU9wqCqo2hBKzaVAsh4rE3l5n7g9S/gekyjNephyNchYTwR9CVpf3zFDa1SWIOMBDRVx1JV8bGmSz55cZrzqEcfxsOJSQXEjCzf3QtwoJvjbEeEKRkWEQowrPGOUUow1mxyZnTRVgJwBdR0jUKZ4g9boLEV7FXaEx49W2ry61iZOjYv+nSKAiarP4VaF41VYcCWeLfKE2gLSlDROWXVanLOaXNjps9Xt33N3zF4quRpkvNlXXAzV9V2fPC+HzhJkEuFnIUedjFNjFY4vLw5zwxWecIVx5d1h+eXbpfhMK6+mtx+tEHYKI7IIwa1Wq0Pvo8JYnfEFj3oRs44pj44lEIBOY5RlocZmWIsVr1y4wk7v4BRtGGW/r+9etuI+WbcxbuwV9+O6vVvfLMbTIkx1YqzFkblplkXIdNLGdW1j9ABIicoyul6LdafJSrvPTrd3sEKn94JiSL3NoTU3P3b/+I5IpObKIOWFrYhvrkS81h3J46TzzZD8o27pE0WeGwTQWWLCUcMuNRVxuunwpeUxnjk0x+G5GWzBMC0E+RxcjN++799mcYY7pPjs4p9bOsk9Yjin7rv7XUnJPUNpTSIVVwcZP92K2QjlSB8fTZA+wJcR03bGJ+aafObQNEtT4/iuSxiGZHkepmKhVYwPTl6BvLB3ihQIxUaQdYtz7ajtVohxo57rQgimqx6fXhrj6TGbyWCDik7Brw1zmqIkG7HiR13Bm52E7W6POClFkg8zWpvNrbUw44WtmNWiSmchRitpRJ0kZtq3OTXZYqziUrEFRyqaJR8cK/caFQKyjDSVrIg6l6XPWrtLf1CKvnuGZWO5HjXPYbnh85nFFs9MuIzLAZ7Q5nlHGO9EKVkJJX+1rXlhO2G1MzBhmB9yNKYwSSfRbMWKRClsmeLHfaYrDkfnZ6lX/GE+uAInj9opxlydO5GQJpCP/5YQ2MPH4cZot9Hvi7WGsCzSTLIeSs4OFJ3i9mQJWia5mWeexXcT8QQw4QkWqxY1CyKpWUk0m4kpFnS/1iL30BK+fcJM8XY35lI/JROWuWyakdxwESoKkGnM0ZrF1w41eXjK7JrF0XXvCnGTpNDFLtud7sa/H6OGhG3b1HyPj548zCcPzzLWWcfqdRD1FsL1QCtEKummFi+ocV7LagyivdkNabg2n5it8olpnxoZWiuEk7tCJxGiXmfb9vjOW1d4+fLasBLtvUADZ9sRP1obsJFoMmzjtSWEKbghU1TQQ4U9xm3Jp5cneXx2DNeyyLJsKMTp3BuuMKrsfSrScJAQeSinmyc2H69VObM4y0ytgopTUPnOnNYIBMLx2I4VZ7f7dOKDOaG822BZ8t6MLmAOAsWix869A11bcKRV4dhYBd/Ox1lhqoUhJcKvE9oV3l7Z4Mr65j0dg/aTUb3nlu+Mzj3h8jfc8vveh51Y8ieXuvzx5T5riSBRpqDL0Evsdry0tEZYDsJx0XGAGuwg4z51GXJchHz2yAx/59PPcmh6nDiOSfPqwuatJuygMMyKza9bWVDfPvkZjYpw+81IB7ita1xScsBJpGYnylgNMy6Fin6mTMhDQTGWoZlUAaecmI8eX+bRE0ewtB4W3SoYjVSpVqs0m81hyPq9sPGKjXPLsqhUKywvLvJQw+aJzlvMyj5UG+B4Jtwp7JNaHv25U5wLNM+/9saBiiwo2X8yreknktUw482+NEUatDLircgFnWgAgx1mKw5nlucYr9WoORbHJ2ocqjs48cAIEbZjcpTJjKg2yToVXrtwlWsbm7s/tuSOMVXh27EkFDaLCwucajqc2nqdyawPzSlTOEBJCDpEmWKzPs+LXc3XX7vAlZ0yN6RUmlhqepmmJyHDwrc0UyTMVBymJiexbfsGp5lCB3nXcVyYfzwbao7Azt9Tr9cZGxtjbGyM8fHxYSt+5rgunUHAq4HgL8MW10IFQQ8ddLDTiIpr4+brjUL/udkaadyzma/aVIQmVZqOdtlJFN08XcL9YG/VqLskkppL/ZRroakAKXIvOJMg2kLLFJEEVOIux5suv3D6MIcmmgDDsrkFOq+uWXht3G4I6p0g8l1/sxi1WZqe4NRUgxO6z4yOEL6fh4pqSFMSCRv+JFekx7nVddp74LlUdSwemW7w2GSFcWJclSLs6554CIu2cnm+J/h5XxLFJv/aXqPzHdSz3ZQfbsVsxnn4U/5gCMtGZSkq6uPHPeYdyUeOzHNidhIlM2RezbYQUwsRqri++8HNHuL7RSF2FH23VatyfGmeyaqPFQ7MZFI8L7kY3cs0V0NFL71+He83+3PnPvgcpL7JiBdCMfYtTjQ4NF7Hl6kxUGHoaSAcj1g4XGn3We8O7rlX7n4zosW8N7tecMvvew80cLmf8NPNgO9vxLzSzuhlmkzpG/PC3QpamyfWcsxfzsdrgg6VZMCxus0vnZjjE0fnOTY3TcW5bpAVhhC7vNHvxSaYIT+vG7/cB8wn3/7n78XdLym5dwSZ5Eo/Zi3M6EtITRW13KUBkCnIBGTC4arN09N1TsyMM9FsIOV1+7wYG0S+uVjY54VIf69svNHNIse2adTrHBuv8dkZj0PV3BOu8FZKExSCtDbOhUDxo0sbbJS5oz7UhJnkci/myiBlJ4WoKHgkivBUiScjxuIuSw2fE0uL1Ks+rm1xZGaSo2NVxsNt/Cw2YdCY1EvSq7GtXV5bb3O18+5VH0tuH601oVQk2qJeq3NyvMYvTDucqEisLDbV3x0fZIZMU0Jl8cYAvrGpONuJ6YcR2Yc4d5/UmkRKIqmJlEAJgSdg0pKM+w71Wg0rr1JdCHGjXsw3juOFDWraQNmsZzbntnq8fnWdn69s8eZml7e7CecDzfnY4lwIZweaV3qK77fhP20Jvtv3eVPWafcDaK/BoI2vM6aadWq5d16apu/q4VZzbcZ9B08oMqXp49BNFJ1ul3gf0nXdjHthEd8xidKshJK1UN0Y62uZ5NBSSZw0YCzY5kSrwiefeITp8dY7wmAKJdTzvKEXnHePq2zuxsqLQczWPJ6upRyvZFjO9ZxtOo2Nd1hrhk3p8MLZc1zb3N79Z24b37Y5OtHg5HiFKRVQ04kJiRWW2b2MM7qJzcv2LGd1k14Q7okn3m60hkzBG33JD7ZStpLigSgS+oKSKSoJaEYdDjnK5JaamyGOY7IsGz7ExcPted7IJ3y4adRrHF5cYMJ3sAYdRJbm19UMdkJJAiXYUA6BfPfdgZKSvcaxbeYmJ1gYb+HGIUTBdQVWa7AsEm2xFiZsR8l9zc1wX8jFckZys+0VSmt+uj7gjy90eKkjWU8FaZbv3OefdUufV7yo8F5WEhX1kGEXEXUZywY8PdPgf/Ppp/josSWklMOKV8U4M5r3qVhs33SH9G7Rd+Dldw+588+/83eWlNxreonk7XbIepjlYeq5vVHY1VkCaQRpxOmpBp85Mst0vYLWmiwzm6tCiOEGqztSNb1ard5k4XbvOTw9zlefPM2JibrJbaeUCbEtBhQElwYZP9iM2IgOZmRByf7QSySvbgdc7CWoImILdcOapqZTFlWfI60KR5YXqXgelhAsL8xzfLLB/GCNhgyg2szT8yhwHDrK4rVOwrVg79diH2Z0Xmwgy3PEHp9u8ttPn+DJcQe7fc2MN7X8XmQJBB3ORRbfSCZ5rafY7PRIio3kDyFSmXRSidJkGrSw8G2LCRcarslVTe4INWrvFT8fovOE8dpExSAz1qTDy6HLt8+v86cvvMEfPf86/+mlc/z5W2v8xeUO31iJ+PMrff74Ypd/fb7Hv7iY8X+5WuPPBg22rSpxbwc2LkF/h5qlWZ6eYKxeHRZ4TJLkpkKcb1vUXBs795gMtU0vyWh3S484tIZYatYjxVaikKO7bSOhWHUbTtVtDjU8mvU6Am6ovqRGEgUWOSbuxwRPLiBN1Cs8cWiWY2M1xKALaZpXuDTnJ1yXHSl4eStkbQ8GYSHAsy0Wai6fnq3wUNM2O5WYMsEksUls2BznUir4zpuXuLS19y7360HKT9cHXBxIesomlcYbQzgOWilU2EdGfdws4pEJn2fmWkw1qtiWNSxrT34Ni5BUx3Huy308iDi2Tb3iU3MsKjrDJh9wdP4wKUWkBR3t0Ili+v3+DR6jJSX3CksIGr5Dw7OxdGa8NfM0A0ZrMB5anUTRS81k+KEQiYtnc+S/e8lGmPLSxoAfbiU835ZsRopUKlOt+3aub/FayzYFkqRERQNkbxuiHjMufOX4LF88Mc/yZAtXcMP4UszVhVFWr9f3OBx15FzyY72NszvY5M9HSclBI8wUq4OUbiJvXDoUeYhR+DJmIu5wbLzG6cNLVF13uFFebJJblnWDOH8/7bpGrcqR+VkO1x3mdUBV5EKcyD3kspQd5XBeN7jWj2l3OqSlHfWhpJsoXt6OONdLzeahEMauUdKssVTGmAsPj1eYrxvvzsI7x3Ucpn2bh/2EWVebvLnCMsJvltLP4G3d4FIsaHc6980z54OKyKfUeqXC0vQkz7QEX/A6LLjKhKM7rtFV05hEKtra5bmNkG9c7rARfnif98JkNaa7QCNwLIu6YwQ5MVLt+r3TR+XecMpExSAlO1ads94c31NT/EU6yTezKb4eNPjzLfizaxF/eqnLn6/EfGMt5dsrA168usWVK5fprl1BtlfRSUDN1jxcg8fHfY7MzVCrVIcVsnfnrSsQlqnkKvJzkwhSpYfvuR8cGCFOaU0kNRuxZjvRJlypuIa5sKC0pulYnBnzWa6bm13sxBcePzrPOVFURC1CUe8XrVqVx48uc3SigehsQ5qYnG253WHZFh0peK0rWYv2bkE6V3X40lKDx8ZdRBqb/QBhodMYdIbVanE1UXz9tQu8fQ9K914dJHznWo/LA0mKPQw/M2GyChl00UGPiox4erbJR5cmaXqm2EUhxBWi6mhYaonBFgLftqhaULOUKeU8HDg1KEmiBV0cOkFEt9u970Lc3vawkoOKJaBmW9QcgaWvlzI3aITWZErRyzQDeV2I2+sx6OAx8ozu/tVdoPPNxqv9mO+v9vjRdsKrfegkEpQxRm77M4UweWyEMMUZwi6qt4WbDFiu2fz6mWW+dGKRuu+Rpim9Xo8sy7As64aQVD+vKv6OHdK75voZ3dZ5HUhu4sr34J9UyQeMKFOshym9pAjhJPcGMhErAFUZMRO3OTJe5+jSIq5j31A8TUo5HBeKnJH30z6v+j4zkxMs1WwOW6bS6zDnl1KQxHTxuOKOc60Xsbm1RVqKJB86NNBOJC9vx1wohLii7ysJWYpOYyZcwaPTDebqPlqbxX3R/ydcwaN1zWJFmMio3MmENKGfwXlrjEuxxebWFlFYVu7cC0Quchh/OI3rujSbTZ5uCX6tGXDEMzaLcH0QuVecUmQInluP+KNLfa4N0twx6MOHwAhW139gYdsWVcfCs8xvdgtx71yrX48AKdLTIDPadp3zlTl+YC/wl9YSf+Me4ltyim+2bb6+EvEXF9t8YzXmW5uSH62HnF9dJ756FrX6NmLrElYWMlb1+Mi4y7PTdQ7NzVCt+AwGgxtSpLwTIygWv1K551+aaw6MnNN+cf9mwBG0hn4q2YlN7olE5WICmKqfWpmqGNGAGpIjU2PMNOv5701eouIC+r5/j3PR3B6ubTFR9Zn0LMZ1REUosJz8vDRkkr60uWS1uBpKtra2iKK7z0XR8FxOTLU4WneYkj0qQiKc3CtBKggTNjKf571lLmQ+/cFgz0JUNXA5VPzNZsrVorLW6O9lRpYENJIuyzrgkaU5ThxeRmAmrtHd0UJhPwj38qAhhFH2hzkPRwcOrcg0RAqiNCNJTAz/fg4uJR9OhADftak4Ntaop8NQizOhSbHSRJkkSVKSxBSruZkr+YNGvk9ujD99ve3WWvaKIFVc6Sf8YDPhD64mnO9Jk/YgF0FvieIY9fWcrAA6CZCdNVTYxbcUv7DQ5LdOznB6bgrf9+jlCW6L8bm4f8VmmO/7e+vtou8kDLV4ZX5++TW5tffeK/JjKk5k129KSg4asdJsxdIUadiNAG1ZjPs2DzVdpnyzAV54BBWeBkUi71qtdqA2VmcqNidaLk2nsKPyrzIFx0NWW1zrBpxf2yCISyHuw0SmNFthyrVBymqs6WZ6WHTOhJdKSAKswQ6TjuKxw4vMjjVvsLe11kw26zxz8giHJpuQBKZ/CcuIeEKgmtOsJ4KXzl9ms3v3+cJL3kmWZYRhyNzUJB9/5DRPOn2O9S9R9dw8RNWBLEYHPbpOnUv2ON+9uMkLF1cIP4RVVAVgWwK78IcTAiEsLOt6lGHRx608h/k7GBo0+eauVqaoyc5V9NWfo6+9gb72pmlrb6M3L6F3rqF7G5CEeVoVjZ3GVPqbTMQ7LDPgk5WIr806/K0nT/HMqSNoaUJShx/7LrZvBqRamMQwuZeeyNfTWpvNoqK929/Ya25y1fYfhR4KcYGEVI9eRHPBtMwQ8YCayFieHGOiUb9BtdS5Ilskfb3fnnAFjmXR8F2mfItFN6NOisoSVJqgkggZDhikkjW7wUqQcm19g2APhLiKa7PQqnG04XDSSxm3i6SiApRGRzEd5fF2bYFzscXlje09MTASpWnHGRcGGT/rKDbjPCyq2EFVEpXFyDhkipiHqppTsxMsTE+hlSkhzIjA6hali/dyMfcBQnM9P8X1H5oFnlSKVEGaqaGH4X4r/SUfPkTuvu7Y1nXxrSDvm1qbikWpVGR5Iu+ijz7wFErc7VLoRbeIzvOfbMYZL26F/HAz4bktyUooYRjuewt/sJhDi/8XIal5cQbV36YuQ5YrFp9bHufLx2ZZHGtgCUEYmhyjlmUNx5aiOENRoXzP2H0qu/9/i9ziVbmH5J9+k4O4yY9KSg4EsdJsx5LBO4S44onSjLk2J5oeE74JN5VS3pA/yHXd966od5+Yq7k8NF6hZStIk+uFJ5IIBEjX52o34PxGmyDZmw3rkgeDTGlW+gkXewlbiSaQmHQPQpgNK62wZUw17jLrwenleSaa9eHGos5Dsls1nzOHFlger1OTEY7IhTiZmnVurcV6Cj+7ssFmv/SIuxdIKQnDkPFGnUeOLPFsC56wuzQdbXKpO66xneKAULhco8b31wKeX+3SjZIPXeEG2xK4lsAV4AqNsCy0ZaMLLWH0tbb9PmnAcuEaASrDG2zR6lxmvn+N5WCVpWCFxXCVxXiTZbnDsu4xLnv4KsJyHVxH0FAhxyqaj89U+eJclV9aavGpE0scm51CZRlpmr5jjbt7vZsoCORIATMlIdePwDyrRU7T3e+9V9x/pSpfBwxSSTeRZAC5Mjkc6DBx+G4S0BQZcxNjNGqV4U5bYfwXk/yeGv97xEzF4pkpj2ndJ96+StReJd5ZI16/RDJok3oVVvsBb1y+Rqcf7H77HXO06fErh5scq5uqs2aFqCEOERbYkxO82Qn4y9fPs9K5+12YrSjjR2sDznZTIuGYBI9Kmbx4CGTYRwY9ZDTg1HiFzxyZYTZP6Jum6Q1GW+Hmej9ziBxUFCa8L9EQawupzYM01AB0Hs4tM3O/c6/RQun/QAgeJQcSDWRaY9Zr+XObC3DDFwz/rxGYPBP7OfHdOwovp+secEW7ZbTOyzi8k+L6aK1RGkKpeL2d8D+/1eUH65ER5rU2CwV4D0UwP6qRvzc0lCwbrTJUbxM1aKN1xiMNi99YrPDxI/Msz88hpdlZLigWHJZlUa1WqVar92Tcvr1ref3VRZe7/+QHMXIsd9RHSkr2mVRBJ9WEWTHGFc+2sTWQGXVHMN+qUfOcXe823nD3Jkz97lloVnl0psE4EXqwiQ7b6GDHfB93kWnEpV7E2U5CkJVP6oeJWCrOdkLeaEcEMl+XDkdrY3FXhGbZzjhSc1iYmcZ3XYIgGK5RkyRBAOPNOkt1lxNeRsvJCxEWtpCwWE8Ez3c063fvE1FyE4p7IaXEdxw+c3KJX314mXnVQ0Q94xXn+qagQBLSCyN+lDR4LqxypRPQD+/eSeZBwrEEVcem4UDd1tiOgxI2sTQb6QUmOutdPOJ24zhQqTNXcXiqqvj1eZd/fMjnH8xb/PasxW/P2/zuks/vLnl8XGyzkGziTzSpzM8zOzXDLz16mv/DL36Cv//pZ/jYwyepOjZhGN5QK6Bw5Cm+H6WXKrZiSZyZ1C2oDAuF45hULMU6eT/XyLdw1faHMFP0U2UEhdELJyw0YGlFXcWM25qpsSZV378huV6xC39QQlJ3s1Dz+PTiGI9XMw4nmyxEG8wFa8wNVpiPN1lggJdFDKKYZMR76W6Zr3t8cnGMw1VBJYuwhQBho2UGWiFslwuxxQ/ammsDEyJW5HO7EzYjyQ82Qt7spmTCynMpaIQwHhMyDrCjHo24y+mJOh85tsRY1R/uHhXnXdzPwrNx98P0YSdTmkEmCSVEhRBH7nmI8TxESYSSWMK4Datc7NjvQabkw4XWmlgqIqmKEiI3yAw6DxHU2oTlCWHeU/TLvRj37id3LqqMvPOdEYvoPNde0QaZ5qWO5LmtlJ9sp1wJslyEGxE934vrH5WLcBbCsodpIFTYpZYNOOxkPDvb4EsnFjg+NUbFc5G5ByP5cRUinOd5+L4/9GK+f+P2yMnd+Q3ZY2644Lu/LSk5kOg8h3MiNf3M5HJ+5wskZAlVWzDbrFHzjNhWjOWWZSrs3TyR9/1nqupxaqLO4y3B437EEdVmKd3mULrNcrLFQrxFTSVoIBsJW3rQ56qS9ydRmrc6CW+0Y0I5ElmkjfiMSqkKxdGazeFmhWYedj3qKKLy8LeK57FQtTnTgImhHp175siMHWnzpm5wLcjodLt7li6o5DrX74fm8GSLp+ZbPOWFHLNCXM8D1zMCaZaSxAkr0uPV0Oa717q83f5weSpaQuDagqatGXPAtW0yyyZQYlcKMYFt27e2Vrcd8GtM1Tweanl8enmSr5yc5ysnFvjKyaLN80vH5/jCbIUnm5qmZ6MqDdKJBVoTk5wYr3FsZoKFqXGsPKXV6Pph1E7eTTvRrASSKJMIleGoFE+A73lYwqRTGNUi9oMDoVhpIJKKMJNITZ4e0Ax4wjKDni1gzFJM+xZjzQZuXo2pEOKKhP43u/AHgaVWlS8dneFLUzafd7t8TG/xdLbOs2qdZ7M1nklWOG7HjNdr2MLEsu9FJ5is+ZyZG+dQBcZlH9/CeKcJAZmEMOGabvIzd5FrsWAQBKi7qByyGSue20x5q28WhUYYMk1rSZZG+HGfhXiH09MtHjlxjKrnEsfx8HxVXqThoIUvHCQSaUKAe5nOPeIKo9D0fy3zQUZnOJaFbdvoESFuL/pWScnNUBrCVBFmCoUZv6/3tzz3jlJopdB53onCONrvCfBecetHr3ND3Lzj3d5XLPpE7ilsWRabieKPrqX8+bqkrWwkAq2ue8DelFyk07nQN/w8Icy8YDnooGe84dKQWSvhE7WEzx6a5uOPnaFVqxKG4Q0L0eLeeZ5HrVYb5vS8b3NxfnLvOMf7wsj9Lb69/tOSkoOPNht/kVL0M02iRoT+0Y2/JKJqw3SrQWWXEOc4zrAdxI3yhu9wuFXhKws1fmve4dN2l4+oTT4mtvlousoz0VUe81MONzwcZXIRlXbUh4NYas72Ut7opIRFWLZVVDyN0WlEzZKcmqxzaKyGbV23ZwpGRYH5isXT4y7TLia/HJi/FYf0cblaneNSL+LqygrhHqQpKrmRwt6UUuI4DgtVh6+OJXyqkVCxLbBd4xWnlCneYFlcHCj+17fb/HB9sPvPfeARwLijmXbBc2xS4dDTDqEy13FUhLulsd1ywKsyUa9xdLLBI0eWefrMQ3z8iUf51FOP86mnHufZx87wzMMn+eqZw3x5eZLJNGGQWVwaO8TbseCtCxfo9vporYdhpMXzNXpMN7NBt2LFpUASpBJLZvgqpWpDrVrBtq1hVN5+OqvcwlW792gNcaYIMz1cuF3HiDi2gIataToCP/d6K8SqYrftXoTC7BW+bTFecXlqeZavPXGS33jmIX7r2Yf5zWce5jefOsVvPXGcT508xOH5WVzLGro1321ncCyLmuvw8JjHJ6Y9plyzCBZ56WwdDkgcj259nFe2erx0eY1edPt+0ZFUnOvEvNlJWEkEvcyEEwuRe1mkMSocoKKAeU/zqYUWxyca1CoVVF4pddS7sdg9vaUH+0PIIJNc7ad0Uo2yLBOShjEQNKBVhiMTajql7jlUKj7kg9YHQegoObgoremmik6qkPn4Pbpw00qhlcRG4wiBbRmx/YPmrfm+T9i7KEU3e18xx9m2Edxe7Wb89XrCC9sxl3spiXyPnHC7lJ93vEJY4LhomaGjHirq4SYD5nXIU1M1vvbEKR5dmqXiOmhlkq8X44dSCsuyhkWSDoQId7Nz3Hfe64KXlDw4KG2K6gSJYpApkptFvWuFlcZULBhvNPBd5wbvhEKEu2/jwvtgC0Hdc3hkbpIvnj7E3376NL/17Bn+Tm6f/+YTx/nK4yd56tgyngVBENwQClXywWQnyrjST1gLFZ3M5F2GXExAQ5bghD3GVMTp+SmWp8bReWgbI55CRf8HmK+5PDVdZcbViGwkXVCWIG2XuDnNlUHGmyub9MJ49HBK9oBCiCtsmFa1wpOH5vjIVIVjwRXGVQD18TxfnIQ4pJcq3qbFz7qKH55fYa374RHkLGGK2SzVbCrCOH5siio7GQwGA7TWQ0/n2xnftTZpaXzPpep7OJbAQmOhEVpjC1icHOPhqQankg2mszbZRJ03U/irSx2u9o1OUdibxf0UI7nlR/WDSCq2o4ytFHYyi0RKHJXSIKXlWrQaDRzbHgp7+8kBUTk0iVREmbpeFrr4KgRamM7QsKFhC1zbHHZxsay8bO5BnugLzhxe5Nc/+Qz/4Auf4B996dP8w1/4JP/w8x/jdz/zDF94/CGOLy/i2haDwWBPd90enfD50mKDOU8br4l8R0eHA4TnkDZbvLi6w3NvX6VzB4N/kCpe2Q54ZSeiK20yLdBSms+xHWQcIIMOKuqzVHP48rE5jo43EEKQ5UkWi/tZ3MuDGmZ8EOgniovdmE6iELmQQR4CDAIlMzyV0tQJTd+hVq3esHvwQRE7Sg4eUkM7kezEikznBdC1BgRaCJO/TGc4KFxLYDtmAh/1htuLMe9AMyIYjbZ3w8rDPh3HIVWa57ZS/vhqxM/bEe0oQeapBm5cHRdc/4R3fIbWYNkIz0dnCaq3jYr6VGTIESviE/Nj/MYnn+HU4ixRFN0wTut819+2barV6jA/6/6P2fn5HRgRboRdB3Ogjq2k5BaQWhOmkn6S5UKcvj7MCGOjC6Wws5iKJUzEinOjEFdsIhxk+9y1bY7NTfGZR07ydz/7Uf7RFz/FP/zCJ/idz3+M3/ncs/ytTzzNRx86jm+bjfIoiobh+SUfTDbChLfaIVuJIlLGRoHrQpyQCU7YZkyFnJqfZml6cijEFU4ixVqm6P9zNY8np+vMeBo7i/MIMAFpCraDbk5yZZDy+uo23Ttwiii5NQobs16t8PCxIzw5U+dM5ywzsgetSfArwwqfsVRsNeZ4uS/4i1fPc2m7t/vPfWCxhGC+6nCk7lC1NJG22LDqbCbQ6XRuX4jTGrQkzSRhKpHKeCcOBgO63S6dTodut8tgMKBRr3N4os6ZeJVD2QbOmMubKfzJlZBLg+yGuaV45gpHHt/3b7BFg1SxGiRspdDTNqlUuDqlRcq4ZzPWahn7eqTIyn6tQ/bbYn5XNAL1boaqBqE1ngAvL75ZLAKKHYf7ugt/m+i8MEEQBHQ6nWHHKyrQFYN94SGyF8w1q5yearDopIypECdPyg1AkpFGkvPWJK87M2yEKWEU3VYn7Gean26n/KydERaVZUbCFmSa4MQDZpM2J1seT505xXizThiGw/tI7g1XqVQOZELfg8RWonhxJzEVEnMExTXXKJlRJWPGUbR8MyjpD0xC/JKDTKo1VwLJpSAjVkb+GQpNQhhvOJXRtKHhCOx8siwE4g92/7wzwchxHKrVKpd2Bnz99Us8txnz89Sjn6o83+dN/prOjZ7i292/F8LkQ0Gjwz4q6KDDDs1swMMtj7/37Bk+//AxbCFIkoQoioZjdTEvua5LpVKhUqnsYxqB4kyuh3zmX955jvuK+XSx62CKb+/vsZWU3Dkqb0MFbtd4YwtNBUnNEVQrleEGKyPV9PZvfLg7irVFHMdD+3zURi/ExXJD84PP+W7MTzYCtuO8Suqu/m8LzaKnOV6zmWk18D1vuGE1KsSNrk8dS1BzbA5VbU7ULequlf/tvIJjlnElsXk1ctlOTAXHD7ZNdDA4NtXitz/yEB+ZqmBvX0GgodYy6+QsgaDHhRC+Hk/wak+x1emSpB98Id4WgkNjVU5OVKnLGAXE4wtsa5dLq+uEcbJnacGKsbfQPqSUND2HTxye4clmBe/KOr3U58r8ad7oxLx16TKZUlSrVSqVCrVajWazORThRo/pWj/mu1c7XO3HxhhTGT6Sed9iquLgusZj9X6skQ+EEKdzLwqV2683/CYXFgQazwLPeqcQt3ugexCQefWWIAjo9/v0+/2hEFcosXvpIjlR9Tk6VuNYRbPgpOY6WvkEkGVkUcqqM87b9jiXuiHb3f4tFW3QmMp9G7Hk1a7krZ4kKZL55uGvSqbINDReFnbM6bEKp48col6t3LC4K+5lmRvu3VF5Ivy10FzvtUiNPDSm/2stUVlCTZhBpuWb/ImFEPfBFztK7hdam5wqVwLJ5UAa7wkKFSLvnzLDURljLjQcC9syhVz2exdq/7k+wb3vGZppbyjgKKVJpeJsO+AbF9v8dCflUgRBZqo+3RzzKe/6WcJCWA4oiQq66LCLkwxYciXPzDT4yiPHefLwPCgzV41uEhWLjEqlgu/7+zRmj16862f1rud3X7jxaA7WsZWU3D4694q7QYjjujccQmADVSRVW1Ct+DcIcaNixIOCzjfLwzBkMBjQ7/cZDAY3VIou7PMP7nz14UXnuW4v9BJe2AzZiaXp+yKP1tImvYaDZKlicbzpMdkwFYGTJBmKZ4UAPbo2tYWg4lgcrtucbto03ELcM04LOk1ZlQ5nswrrQUqQOyuU7C279YKFsQZfevgIz0x6zAfr1CwNlTrYtinKEQ1YjTQ/Slv8rJ3x9laPfvLBL6ZhCZhvVDjWqjBGhI0mG5thUzq8tbZFP073dHwf1XK01tRdhyeXZnhsrMbE5iZS2axPHeb1bsyrV9aJpR5uBlerVer1+rBYGCPP8tVByndXBlzrJ6AlOoupkLFcd5mpmWgTPsxCHHkVyESaJNLvJBfibAvPvvEmWXki+t0P1UFG7IphVkqRpilZXomuUIKLn+1Vp6g5Fh+fq/Op2SpNkZmE/rYDWQZxgKj57Dge3z63wk8vrZEWnm3vgdKa852YlzYDNlKIsVBKmnAF1zPhToMOKuwz5Wo+e3iGR+fGh+e9e9IadeMueSdhprjQjXi7l3IhtmhnRngTuUGsZYqKQ1TYp2VrDo/VaXhmgPlgixwlB4FYKrqJ4nKouRJClCkjRuQbKmQZOolwZMJ01WO86mE9QGP37aFN06bdlteWBpVXlwXY6nZ58c23+e5mxl/by1yLQPe7ZuweXRznn4Ue8UK8GZZjKlnLFBWa4gxW2GPckvzKqQV+8/GjzLfqZFlGr9cjTVOsEcHUykNli+IM+0ZxQvnXdz2/+8iuQywpeaDRGlKpSeVoaPuNvdsWmoqlqThmXBB5/kjyhdWDtFEuhBiKh8XYNroRUXhspGk6tNFLoeSDhVQmXdLlgeTnnYxuWoSkWqbvpzEkAW4WcXSsxqnpMWqec4ONLfJorZula7CE4GjT59HJKk07L9YgBEgJcUDoNdiuTnF+s83la6skZfXUe46dp9h4qgl/bzzghK+MN5zjg7DNPVcSZTl8byPi9891uTL44N8XIQR1z2Wm4nDYSZnzFHa1yrVU8OONgLXIbLgUzjR3itZ6GPnRaDRoNBpGE3AdZqanODVZ46Nen0NeTObAi33Ft7ckW4l5X61Wu6knXOG8cinQfHcbrv3/2fvPKMmy7L4P/Z1rwkekz6wsX9Vl2lRPu/EWg2kAgwEBmiEhitKS1hMkPSNK6z2tpfdRa/g+kR9kltajKAMS8hTxRJDECECTMwAG49pO++rq7vJVWelNmBvX33Peh3Nv5M2orOqsqozMrOr8r7XTRsQ9du999tmmG0LQBa9DTYWcHh/i0HANY9O0LjuDPWGIU0AkJWEi01u3vv+mKSkKhi6lm5/rh9EQR64ggZ0WmciUlcwYNYg+FS2Dx0crfGaszKgIKahYG+KUQiURCIOOsnizrTjfjnG8T86BIRVcbIe8sRywHKIr96ms4q2JjEOU71AKOhwswGePH+D4+AhJanTMFJvMOPkw5BLZDajUWL3sJ7yxHPBuM2I1EvhZBbPUu1GFgT5YO2uMFgSnpsZolIr7XnD72BHMuRHn13xu+YpWIohTjzhhmjonZRwg/S52EnCgVmasWsZIt/rDvz4fsP2ZES1VakqmQdEAGcfMOBE/Wop43TG5qqq0wwR8V4ey5N+/JWgZqpIY5XWQXhvpOxwuKj4/UeGrxyZ55tAERVOHpOaTkqs0LKtQKPSKM+zspUnOFLDV7u4C9nDT9rGPe4JS2hs3lmq9KFQP+gLQEIKikJRMQSENU8r0uuxg9DDpdJkRJcvLmenm2ffsZ1KD48Mvu/aRRzdKuOUEzHkJy6HC76XbSWWdjLACl0rY5fhIjZNT4xRMc8NayIy5m51nDAFHGiWeGKswbCpMGesIJSUhDIitEp1CgyurXa4trRFE2xMZtY87I5uv0yNlXjxc52whYDhq65DFQlpFVcaoJOaSK/h5S3B+qctcs0O0TZFrexECKJgGoyWLc8MWp6sGBSVZTGzeievMuAlOt0uSi2zrh1IKJdL9Y5g6Wi67nM/BTFNTZWRZFpZpUq1WOTFa5xvTVU6WFNLtcj0p8p6scqPj0+66GKntpP/5nTDhozWPD9sR1wODdhAjQpeC32bUiDhzYIwDww2SZOOFyp36MgjsCUMcCmIpCaXUynVf51W6GGxDYAud2jJDXtA/bDAMg3K5TKVSoVwu30bFYrHnLrkdsA3BoaEqJ4dKHBA+dUIMy9YbQynwI7qh4GJxmstiiJWW84nlsxMFF1oxLy+Hqfv2+vwJQCYRhB5jUZsTJcW540eZGhvBdV3iWCdbzKhQKOznhrsDlFIEseSGE/HHswEvL0e6epnSJ1Jh6nlMQo+ks4ZqLTJZNHj6+GGGa+UNIc47yWD28enCOys+f3Kzwy1PamGr9NFNWDZKSe2t2W1SjFwODteYGKo/YmtRQVr1iXvKXZZ/hZZpwwWTUVsQBR4f+SZ/kBzivaSmb2ajUIdLqJQJpMp/9qw7Pk8YCMPQRrjAIWktIJ01VBLxhakq//aTB/jMwTHKpRKu6+J5HiKtSJUpKdntYynNBbXTuGv/NkVuVHbgwDz4J+xjHzsHidbP4+yQ0r/nhdDhdiiKZuoRt4kh7mGDaZoUi8VeuFO/fl4ul3t9fRj7t487Y8mLeGvRYdFLUEZ2BssuvAGVUAgdhoIWJ8aGOD49hSnopRYSuUrBmxkHhBAcGqpwdqzOmCUpqni96FoSgWURWEUud3SxiGAL0Un72B4cGB/n+bOneNpyONm+SqVg6VxxpgVxhHLbdMwyN81hfn5zmV9cnaUbPPqeccNFk68dGuLzY0VK3RbLqsSFodNcdhVzC4uEQXib52cGrX0ZKNPW1WhNKz0fbHydkUZaZE45maOSEIJDI3W+/fQpnqiVUHOLOKVh5oYP8cHCGldn54nu4DQ02w35o2trvLXsoUwLVIIIXapBmylLcvrwNBMjI73cjuzCGXnzUdsFyP4ccfkxSA9zptDx9f2GuJ0csO2EYRi9ZNebGeOyogXb1T8hBEXL5EDF5nPjRc7UTAwZp9vEgCgkiRO8SoOZxOS1a3PMrLb7P6aHVT/m46bPVVeyEIr01khpLzspSTyHxO9SkD5PDBf5zHidsUYV27I2VITNhFZ2+7hd/X1U4MeSRS/ip4seP5j3udDR7rgy0SGpwrJQMkGGPrHfpZJ4nLBCTg6VOXxgkoJlEQRBTzHeH999bDfWgpiP1jzeWQt5uyVZC7ObYaUFrmHqNRp5lMIOo4QcGR9htFEnTsN7Hnpkwute7T2ZtS5DEiEDnyCKmXMjfnqrw8tLATOqTCcG3A7EUfqg9edu5ZFCpHluZAJRgAi6HDQjvjZq8eVDozx77CCNYkHz576QK6VUT17dU5WsbcRW+rg57v+d94Kdeco+9rGDUIokpdvXtwAEAoWJwhRar9Vv07rdnQ5nex0i9YorFoub6udZWP5u8MF9DBbzbsQrC13mvCg9i2bzm92uJYyaCSdKMNUoU6tWenm/s9QNd/KGI/20smUxUrI4WjWYLgks09D/URKkJIgV10KLy4FB0/UJw/0KqjuBYsFmtFHj8weH+ebBGuMiQMQhFMs9Y1ySJDRjeN2xeKUFCx0Pzw/6P+qRQtkyOTlS4+xQgSOmT6Vo0q6N8E5b8bPZDivBnXV4IUCoBBF6EHqQhEiZbFIXIHv9uoNOtn8qBZtDwzVOV02eKgQ0hGIlgJ/PObw+38Hx9d7LEErFXDfkg2bEK6uSKx0dkqpCl6IMOF0zeWqkzESjRsFet0nkn79T2DMSUmeBuxM08xPphGbIhPzDeuMmcsUJKpVKT9jnf84nHdwujJcsvnmozmdGCxhRoMfWMFFRiEoijFqVuUjyw49ucGmx2f/2Hma7Ia8vONx0JV1MknRXCauAkglJt4l025RlyPNTQ7xwaIyqbd2W/y4TWpng2sdGOFHM9XbAP7vh8P+77nIrgEiBkgkYBsIuouKQxOsQB12GCHmmanBmtMbk+DiGEHieR5Ia7h7W/bKPvYsFN+LVeYe3mzEXPYOOXqD6n0IghIGUMSp0qUddJs2EIxOjDDfqG26iHnrkbGNbMsb1vUgBKgpI3DZNL+DDZsg/vdLkL+ZcfGX2bmS1IU7LzJwt7hOQ5nhAV64ljjDjkDNlxd+YLvLVI2McPTiNENDtdntKjcrlvckujfb+hUk6KnmXxDsoffvYxz7uDJVelG/KzwSQBqwaKAxAiI2GuL3NJ+6MTFfKcmHmjXHZ71mRmoe1j/vYHHNuzM8WXG51c8YFleZyUwlKSqaKBo83bMYrRWzbJo7j3mFepKl27rYuhNB5ux+rmRyvWRSyHB0oiCOCKOaaLHMxKrLc2VgoZB+DhWUYfPnkQX7zyaNMqy54LV24wS7pS8zQp+sHvBHVeTmocaPZpeM+2vNTsEwO1CucHCpwphQyURbISpXX2wl/fMtj3rtDeG7qQGXKCLwmuC0IPWQcEStFVs+NVGbcKdTfMgRl2+RUTfDVEckBfJpNhz+b7fLTBZeWp/PNZwhiyaVWwFurIW92LW52Y3DWwHcoE/HsWJXnp4ZolHQe0HwKFmOHU57tIUPc3Q8UAjANXWFPiJ23WD5KqBQsjo/UOFG1mJQOVRKEZSMMoQWNH7IaF3iveIircYFmq7Xpbcy1bsKfLQTccvXi7+UPUUpvstCjEXU4KnyeODTJ0ekpVGqEy6NQKFBIC1fsFoQQGKmzCGlYwm4dNqWCSCpuOiE/me3wT646/MMrLm81Ja0Yoji12tsFEAYqjoidNeLWIoazxuGqxa88fYozB8Z7VVKzQ3WmXO7mWO/j0UEziHlrqcufznn887mIi06CUhKlJCAQVkF7VLgdEreNGbqcaRR5drLBcEWHNkaRvmH89KzNnJEoL/dU+rc4Io4ibhgNzhenuVKcYkkVdMi57/aY1J1k5aZIDVIqU3IqQ5SHRjlUK/Pk9DhffvoJJkeG8H2fJL0gyUhK2QtHfSgOnnnjG6D4hMIV+9jHPu6K2/ZP32YSqTecaQiMXEG1fT19Hw8TIqloBTELXsINV9KJpJYnIg1JTSIIXPDaTFdtnpoeZ6RSAtYNz5ljwWZFGvpRtgzOjlY4NVSkqNJUE0ZapTOOiStDNM0KH88uMbu8uqmBYh/bDyEEpWKRg7UiLzZCvloNqNqGDqu0i72IAonBdQ/+j+tdXlnyNhiVHkUIAcdqRf76yRGeK0aoueus2WUu1qf44bUlfn7xBt1go63AFIJaweJwzeaFEZOTxQjRXcOQEZZtY/QM0FvD6dEav35igiflKo2VK8QqYcGP+eDyVeaXllDAahBzoRXyf84G/OlCQNv1UaGHCh3qYZvDIuC54wd56sRRTKGL8ZA7H9/Nm3UQuDuX2GEoUotbr++5QRDrhrj83/cF/b2jZJlMNyocq1mctAOGzZT5CwOkQnkB7cTmUvUgV2Kb2aVVujm320SBlyiuOgmvrkQs+FJPnraQopIYGQckgcuY8jldkpyeGuPA+BhJom+Nsnkz0vDcXTfEpQxDpGsqS8g7aEiVVQyWeLGkEyasBjGzadL7P5/t8i9uuvzTmwEfOxJXCu15KITOC6ck0u8Sd5sIZ5Wh2OF0o8jXHj/BsfHhnpGD3F7ZSQYDemMLwEoTHGfzvu+Zd2/I5m+3xyxJqxC1w4TrnYhXFl1+tODz50sJN71Ucc28ISw79Y5todw2hdDlidEKz0yP0igWUEpt8IzN1sZu9/F+sWU9rGckyv9JpQmBExKlmLOGuFycYrYwSkvZJN0WRL42vt/L+OSUdyV1FVtRqlKoDzNSr3NkYoyzx48wVK1suBXUb9XvtW2bSqXy0BXT2fJ87GMf+7grtH6++b7P9CdT3C7X94LMemiRDZvQHofZMBo5j42HYWyF2GOHzTsgiCWLbsi8F7MQgJukl2PZLX0SISIPy29zsFrgiUOTvWJoGbK5sdIiH3dD2TI4PVLhsaEiZWIMleiE9okuCpCU6jRFiQ/nV7i12to3xO0gLMtiomLzzVHBVxqSYUIsQ0ChrF8QhaAk84HiT+ZDXlkOaXkBYeoo8ajiYNXm144M8UI5YmTtFpFd4HplnD+b6/Dj6yvMdSO8ZH2dGkJQtU2O1Ap8aaLEM3WYlA6jNtTLZUzDuKMX3GY4OlTha0dGeLbocSpeYbJsIgzB4vIyK2st3CDkmhPx+lrEDxYjXlsO6LpdCBwIXcYJOFMWPH3kACcOHkAotSE3XLZ/P2nvbid27kmfiDtNghYyIp3QzQT8wyKM9hqON4r85okRTtdNVKiLMgghIPRBKIzhIS53fH744XVmm07vfWuh5N1mzFVP0cEiUjoMzbAsQCE97f2i/C5PjlX5+okDTNRKqHTBx3G8wX07S8i44xBCH36VthQZpqG9AlNh2q9QbidUatBw44RlL+JKy+etJYcfzrT5x5ea/Jfn1/jdyy4vLSsuezphsvYyAqNQQpgWKg6JW8sEizdI3A5jRZNfPzLMt46OMTUyhGEYOI6zi0xGoIQOoS3YJiPDQ9SqFcw070qpVNqhdjyMSKvRAabQgfuGYVAsFnc1L40Cmn7Mx2sef3S9zT++2uFfzMa8304FqZQoKXWeSDPNCxd0iZxVCt1VxhOHp48c4Nxjx7FNYxfX5i4gNVD2OWytQypUEiOsAkZlCKNcx7AKqMDTt3lCfEIKhzzSJ6R5nTY8TyUQ+QRSsFCb5qYsc2N2Dj8IqFT0/pRSkiQJhmH0KljtfIXUe0EWhrpJf/exj30MFkJXThXp9/U/77yMerSQVaWFooCC0HEnxWKRRqPR06H2+jibAoqG/q5vu/tfsTewFsS8vdTlWifQzgkILUmEoQlFKfYZC5ocaZQ5ceQQBdvSnuTpBVZmhNuKjlYwTQ42KhytFxk1Y8pC6jxkpHLaMGknBufbMTfcZF+m7TAqpRJnTxzlmck6Z9pXGI+a0BhLjXEKfIcgilitTHDegT957zJXl++czulRgGmalItFnmsY/BvjEWeUh+tJLpSO8iPjEH84F/Hu6sZ8eUIIpmplfu30Qf7tJw7w/zwzxHdPTfL8sQNUTIHruhsugO8GQwgqBZvvPHmC/+Tr5/h/Pz3Bv/PEJF995imK1RpvXb3F79/w+Z/nLa67CkIP1VlGuS2IAz5/aJTvPn2cI0NVpJSEYUgURb0c6tkZZCf56t458aj0oHI35EIH6TPE7ePecaBS4MuHhjhZNSgnHpZAJ1VPq/EZVoEbvuBnKxGzrvasUkqxFCpea0oue4JAmcQqNWgJA6UUSeBi+R3qYYfHx+q8cFwnAM8McJn12+wrD7+z86iNhyiFQNBVFjNJkY/aMW8vdnhn2eXd1YC3mxFvr0W8vRry9orP2yte+v3+6K0VnzeXfd5Y9nhtyefnix4/XvD40YLHn8/7/HDO51/Oerw06/OzpZAPOpKVEKQwUL3cK2lhBqdJ1FlFddeYMELODRf55olJnjs0Rrlg95hMf9z7zo11anEwDEIlaIUJS47P3Fqb+ZbDQsdjzo2YdeOUImadkNnu7lAnTEikNpTsDaw3JDPe5P+z3SQVJFIRSe3x5kYJ7TBm2YuY7YZcbge8t+rzypJeq/9qzuNHCwFvNWNmvexGSyCEoSuAKYV0O8Rum8TrcMCKeWaowOMHRjk4PopAG+bzIR3Z2tyZ9bmDUBu+3QEpTzJMRKGEsAo631IcouI0nH9L4/IJD1MKooBIKdrlMa7FBV67ucyiG24w8oo0h2mWq3QrB4vdwXpH79TlfexjH4ODSL9sxh72Js94WKAvF6SCQJi0goTZtTZzax0W2i5zbZdZx+dWN+KWG3PLCfYczToBa35MIPXlc0/h2INohglvL3tc7URa396wdLV8romEI2bEoVqJ8ZERTMPYkBsuM8JtRc82DcFQqcBUxeZoGUZskRr8sgqGkk4CF8MCN3zodLu3pfbZx+BgWxaTo6M8MdHgq/WYU4UIgQTTBNPWhRuiCFfYXHThpVtdLq75eEFIkvOSfJRgCIFtmZwZKfGdI3WetTzGums0RYn3kho/WJb8eNHn3WWX2W6EF0sSpWgUbR6fGOJrR8b4zZPjfOnoBCcnRykYOj9b3qv0bhBC56t76uA4v3b2CL95cpzPTTUolMpcDUx+sBDxZ6kn3FrH0fn9gg4jBDxeEXz+0ChfPHmQoZJNGOq8cplNwkgj9HZa1zW/973vfa//jzuNWCo+XHW51Im4FVk4iU6KKQwTYZrIOKSc+JxSLR5rFDl5+CCmIQjDsOch8kge3gYM2zSoFwtcXHW4tNIisstERgGSJBUGBl4CjlnhuYkqp2vakPNBV/D7C4KP2hEdP0oNqAJhGMgoIHLbDPmrHAlX+M65k3zl8ccwBES5SqlSSkqlEuVyeUu5FB4Ei27E+VWXm75gLtYVXZEKoQAlEUqSKFiJBJe6kneWurwy7/DaSsjrjsFrqzGvLrq8uuDy6kKXV5dc/fs90iuLLi8vuPxs0eUn8x5/Ma8NGj9aCHh9LebdtuKiC7OBoB0LIplWRjUMDMNEGLrt0m0St5YJ1xZIgi5FIfnaqMm3Dzf42uMnODg2TBgEvZC/zNBRKBR6+2U7x3vRi3l1scuMr3CwkalnlBACJSXEATUZUvTarLbaLKy1uLq4ytU1h5nQ5GYAN9yEG+2AG22PG07Ijc7O0PX0+4wTYRuCesHE6LvVHxQWuiEzTsCFLtzyAdJwTsPU3o8yYdpf5ogZ8cSxQwyXi3S7LhKFaVppTkaROQLdH6VtkUoryZFUBLHEiRJaQcKcG3KtE/Jh0+fVBZc/vdXlB/MhP16OuOjCcgi+VGl7dcVkYRVACKTfJVqdJXbWUHHIL0/X+OunJzl3ZJp6uYTrurdVGSsWdeLjhxELbsj5lS43fJiNzDSxcxqqe89nD9GbpHWX/S2sya0+S+rbdlUdIg58lhbnOTzS4InJYcIwRCmFZVl7ojhDLBWLbsDVTshbazFrYa53vbH5hD4LAYau3lsIOpS9Nb50ZJynJrXncHZostKiQfeKhW7IpTWXS13JNU/LlXzbPhGZx4VhYpMw6q3wWM3k848doWKbhGHYa9uj4DX6xmKXl+cdXGUSaLfp/pfcHVkqDZUwJgKeNF1OjjU4Nn2AOI6J45hisXhfc7mPjQgTyaof8VEr5PWVEDfW+p5es9r6Vo49Rr0Vnj4wwuceO9LTP7KIh50+2DxMiKRi3gm40g55uxnTirIiR+kXJTHjgELoYiERUci1+WU+nl3kRtvjpptwIxBc78ZcX+tyveVzve1zvRNwvb2L1Am40Qm42Ql4e9nlvbWQlUjgJil/FEIbNJIIooDna4pzDZPJ8TEqpRJhGPYu63dq7XzcDPinV1p82Ir1ObQHATJGxT6HhcfzpZAvnDzM6UMH8H2/Z0gw02iPzMFgq2j5IUsdl9VEMBOaWj6jwDBIpKIr4XDF5OlCQMG2KZfT8MgdhhdLPlztcqkdcc0TOgQxy2tnGCBjRkXIE2aXk2N1jh08QBLHRFHU48fbOZfLbsiME/KL1YhbbjphIuVNhoGFZNJb5mRF8MJjR6kXCwRBgJXL4bcVWVqyDI4MVViKBa/OroFVgEJFr90kAaVwpWCGCidrFqdKCQXLwr6HNbBVNIOY1+c7XHFiVmKTWKZzkEUrRD7TVszzNcXR0QaT4+PEaYqi7YxqKBWLjA016C7P4y3NsGqUWZEFlkNYdAJurLSwDMFo0aJoGthptJltWdSrNYrFgk41ptSGCLlisbglI3Z2ZiiVSiw5Pj/96Bp/vGryh/E0M05E2FlDrc1Cdw1UwnNDFt89WOSrp47w2PQUURji+37vjKyUolAoUCqVBm6T6MdDZYg7Q4dTQ0VOHDqIKQRBEPQObvuGuHuHIQS2abDi+nSDiDVVoBmnB0CARJKYFrJc4YzZZSxyiKXivCt4qWmy4EbEvo8wDF3APolIPIfIaXLSCvnysMFXHz/B6YNThEHQO3STbqJyubwjrvWbGuKU7N02IgTSsHGtMquixHxiMxvbzMYWc5HJrBev3zh6Cbd8yS1f3RPNZj97OfIlc55kIVCsRYp2DN2E3s2hUqlQkYmuiuo0SdrLJK1llLuGGXY5XhF8dqzCrxwf44tHJzk0NoJl6L2RjXVm6c/Cy7ZbGG5qiFM6b6BQEoHAsAsEdol5o8JNWeZSXORyXORqVOCKp7jUibjcibnsxFx2JJe7yQ6R5FJXcbWrcDyPMPBpFG0qBWsrZo8HwmaGOMhsMBKRJJSSAGFYhOUGMwGcX/W46AkuBRYftRM+bEVcaAaaWuG9UzPko2bIB62Q82sB768FvLcW8G4z5N21kHebEe81I863Ys63Yz7sJFx1JfO+wk204U6hNA8wLb1ekwTptomdVeJuizER8ngFfu3kBL/02CGGq2VQqneLrJTqCeDtVBR2GgtuyAc9Q5yhlek0e++WTDKbvEgHWm4RWzXCkR2EDDAsYqloS5PDZYNDwseyTCqpMlIoFHrydbdwmyEuyIw2WzTCsW+I22vYN8Q9PLirIS7NnVVNPMYDbYj7/GNHCFJDXH7N7iYP2cu4oyGOlKdLiVAKaVh4do0Vs8rFwOLjwOJyVORSYHCpq7jYCrjYDLjYjrjYibjYjvXPu0kd/f1CK+KGK3Fi3V8y3XaPGOISqWiHCe+tevzRTYdbXkKUtTHVwYl88NucLSX80mSJp45OMz022qv6nukx2UH+XvQYP04I45g5X/FBO16XHQoUgtguM23FHA1XGKpVGR1q9H/EjuDTaoizTYNGqUDT8VheWiIqVunYFYiiVM9LiIRJ16owpAKKkcdYrcxIWVfk3E7sFUOcZZqUigWMyKcoY9wgxPF81hITJ1ashgonhrUgwYkVodKuA5ZpUCnqdhi5fIqZo0g2L3daJ1JBKBVLfsw1J+a9VszLKxE/Xkl4y7W55AvC1jK0l8BrMyxCzlYNfunQEN85fZAjY8OUCnod5KusCiF6VbF3Wl4JtX7dvmvwY8k/u7TMS7e6vOoWmQ9AxRHCtBFWgch3GAvX+E0xy68cafBLn3sOSwja7Tb1ep1KpbJviHsAXF7p8M6Sw+/eiPnZqkKY5nq+ouEhKo0qv9a+wJdZ4cSBSd42Jvhvu2Mstxxkq4lRKAKQdJpEnRXC9jK/MWnx75yo8Zmzpzk6PUWz2exZn7PNV6/XqVar/c3Zdry33OX3Ly7z86bgTa+IiqM0/FbnhhPCRBSKOhzMMLVyqVRapjrQr5VJqnxmn7r1tZa9csNG6+UySj1eMsrD0CF+0ndJ3Dbx4g3izioqiShYJtWizXeODvNbJ8d49vRjHJ4YxUu9jPoTrpumObCcIu+tePxX7y3yyppkTpW1J14a3gwCYVqYpTJmtYGwjCzVhs4n5rkQBhCnlXYyt/wdgVayRJpg+li4yGerIb/z/AmemRra1jHaDO8udnh5rs0fLMCrzdSrrKeAKZSUFGVImYR6waRgChIFoljBqNQhjjQloTYuZ0rjPUKgjb7aI04bgiOFDjk3dEi0QuhICQRS6vDy3vwahg6jtIvIwEW6HaKVWWK3hRTw2Tr8xhi8+MyTfO7xx3AchyDlBVkuskql0qvK+bAent9dcvj9jxb5yarijW4BlaR8Zivo2/tbFsoP8j4hdBhspYFojPJX4sv8ZWuOL5x7guMHp3ovHfQ++CT4seT9pTZ/dsvhH152uezEaUfz3oKfAGHo3DuWTa09y8jKFf7jL5/lt88d3WDcynJX3iveXezw0pUlXlqM+dEKuuqd3FrOE0gNS4YJlk1ZBZxa+YhfPVDgb//KlxivFOh0Or1cffd6yNuL+AfvLfCfvTXHsizQTvQBrn8t3xVWIU2jEXBGtPluYYkXzxzi688/i+97eJ5HvV6/r7ncx0Y4YcyltS5/eL3D3/+ow5Kf6kKGCaY+8E4EqzzR+pi/+cxJ/q8vfpl2u4XneRvyS27lwPtphBslvD3f4gczHX7vqs8NN90LPZ1QaaeEUgUzJYTQkQ6xNmLhOZrnZLx6l3k2pMJIAAikksRS6zQq01UME+wChC7KbfE7Uwl/81CBc4+fYWx4CMdxsG2barU6cBnkx5LrbZ+XZjr8F+eb3OxqwxqmrTM4RR64LVRnkb90sMx/9OQEZ48d5uDUJK1Wq3e2KZVKNBoNrC0Uasij5YfcbHb5Hy62+M8/aIFhacOWUrpKZ22YzyVzfNv9kG9/7mm+9NTZ/o/YEax4Ef/s4gIvzbj8aFWwGiTakGoVtHyNfU6JDn/NXuTF09N8/YVnCXwf13V7/PhexuWTcGG5wytzHf7bS11eW07PEOmFG6ZJSUU8tXqBb40J/r1f/QrTjSrtdptisdjz9N+qLFVK8d6V6/z8/EX+iTjOXyTj0O2A70IcQKkK1SEO+cs8U3D5T754gm8cHe3/mAfGtbbP3397lh/MeXzs2/ix1Hvf1kY/5a7xfNHjdw4kfPWxQ5x7/Cye6xIEAbVajUJhe42DcZJwa3mNf/bzX/CDhZCflU/gFIcw7ApW0GVUhHx9usJXpsp8YaLEsZrNeMnaIO8zPW4rdpxQKrqR5N0VjzeWPf58IeCCX2DRHiJorxGvzKHaCzok1TR5vGbyW2OCbz1xgl969ik818X3vQ1psjKDbK1Wo1arwQ7rvdu3I7YLfQIo+5sATNPASr2v9rF9GK8WOTVa5bCdMIZPwRDaGIWEICTqelzwLP5Vu8Tvz4T8eM6h23FQaclfbbRLiCOfQuQynbQ5NVTi3OmT1CslPM/b4J1lmialUmkXDty5tZWtr94SUzqxfBwhwwgZRcgoRkqFUgIlzNQgkVGWOP2TSaakREqINP+E0IaMDSu6r409BmUgyjWq9QYnhyp8+7FJ/pNfeoZ/7XNP8MzJY9RLNr7n9ZJOZn2SUmKlIX+ZcjAQBtPX3jyTRSmSOCb0ugRdB7/j4DsOvtMl8AOCKCaIFUGiwyJ3jBL93ZfgS5hxAj5ecVhsdnBza3awyNZhjmSWuxBiq4RbqLFqVlkQFZaMKkuJxUI3YsGNWPB1da+FSLAQCv3z/VAIi6FgJRK0YkEnFnQTcCOJFyX4UUyYJMRJjFL0jG+GZSOEgQo94uYC0eoc4do8cdBlxJJ8dUjwa8dG+dZnnuBQGjKd5HIykEtu/Cgd1jYY17dCqVEpo9v+vylpr977fp+U+lIijpBJzAXP5E+dMvOJvrXeilK0Y1AZT0n70H+BcTfK9lh+nw0KWTvvh3rtyz7oUUbW35xn+r1Sby3sY+DIhjk/9qje3wVgkqqNOZaxZ/jHQ4O+8U0HWCmFjGMi38N32vidFoHTxncdfM/DjxP8ROLHMv2e7D4liW5PnBAmEpnIXsGxDfs345m7CC+RXFjzuLDq4yVpNErPcw9QkgIxk9LlSMXk5JFDVMtlPM/rpYDJ9Jj78aYpWSbT9TLTZYtxI6JspAUilOp5Vy+F8GZHMB9ovT7Tn3YHSp8PM/6dX7e70a5+2bCBT20PhBAcHB3hi4+f5JztcbR1jYoJlGu60m0Ugtuhic0V0eDV2SZv3VigGwwop19/Pzf0d/v6/UmwTJOxRo2vPXmK3zo7zXeKa5z1Z4lWb+EHHivS4M21iH8x4/EPLnn8/cs+/+hGxB9ea/LTS7O8efkGF67d5MrNW8wsLLHY7LDY9Vn0E2ackEtrHm8tdvjzmSZ/cHmV372wwn/+/iq/d8Xlj+YjzjdjFpstvLmrxMs3obuMEbmMmJJfGrf5KydGefHcaU4eGCcMA6JoPRKHlLcaacTYbkVX7sFTT7aY+jeTwjR0Qu99bC+GSgWONMocL0kOmiFFQ+eqAlBhSNTpciko8GO/xveXFK8senhtB8JQ38zJBBmFJJFPOfE4bvicHi5x6thRysVir6JQ9pm7ZohT2Zd+xqX0jULoQ+BB4OrvUbCeq2E70OOTuef2IPouMbMcUdqrQlg2Rn2E6tgkR8eH+caJaf79z5/l2+dOceroYYqWheu6PaUANINRaa6nQbiFb0S2X7lNAColUWEAbgc67XXqtvWYJ3Hu/VlerR2gXA4vBaz4MTfbHsvtjs7FNnBDXDpGeUHaa5/2WFKWTWxX8OwKrl3V37Fwwwg3SnBjhasMXGWm3++RpMCRBl1p4ClBoAQxApmtE5UaBqXOWYdMFS9hIIQJGCgpkZ5DvLZAvDaPai9RUgHHKiYvThZ58dgYn3/iNOONWm+NAr3xzRTYe71F3ovQgbp6PvU+/ARKZdyWXrvhfem6fZD3KT2nKg7B97gU2vwkHOKmL/DCCJmG1e4NpG1R5Nq/Sf82o+y1G14/IOT3cH877krpntf1sfs/9RFF2vetzmM/Ze9Tn5bx2mUoNo55j1JDnNh4oMj0kMHpHI8i+sa392ddYAe/C05zndwOhF7O+7Z/bnabbte1btu/ZP3cvX3sxZIPVj0urHl4cdqOfD9QlIiZNgKOVm0OHZiiVCzg+35PnzFNs+dZfa9rvmiZjFVLHKhYHLITqibrhrg09HElErwXFJjz1T0lt9929KZtc16we8ivp8Gsq/GRIZ4+dYLPlGMe9+eomwoKJe0NmMTgdehiMWfUeXXe4bWbS7S8YIC6lFzXHbLxV4N61p1RK5d44exjfPvsYf5Sw+d5tcSIO08l6SKV4lIr5IezHr93pct/d9nj9675/MGVFj+8vMBPLs/x2pVZ3roxz/tzK3y04nCx6fNRK+T8qs9bSy4/m+vwL6+3+P1Lq/yjD1f5/55f5X+/6vCjhZDrTkC3vYacu4yxOkPBbzJkxByrF/jVA1V+68Q4Xzx7gunRYdy02Em/IXvXbBIp9t6pJ1tIPQa4rpjqP60PXv7W/l4Z3z42omgafH6qxtcPVhkSsQ4NNtKkoWFAYtjE5QZhdZS4UEFGOhzOsGxUFJC4TaTbYaIA3zhxgMcnhgFIkoQojU/PjEJZAt8dPXRvJjSENnbJKED6js7B5rZIvPaAydHku6jAQ0UBSmphLgyd7F5YFsIwUIkOSzCKFayhCcTYYZyRo1yLCrz68XVmltcQQlBKk6oLIXrhfiKX/DJLgDlYpPt1g2BeV2TWlbGcUrab1Dv8pjxFSZSMCXyPIPB1rrudQq8dWdvWjeECnS9OJLEmpQth6Byall4z5j2QYaYh2CkhdJhwkqBkokNHMqOb0vtEWLZOFWCY2vDuu8TtZaLVWYKlGwRrC0Reh0ric6yQ8JcPVvm3npjmV595nJPTU3ie21Na73YT9Uigt742WXObUM+odI+0/r71pdP/mv7XZ4RK17YQEAUoZ43EKtCujfPKjUV+8sFlmq7X37NdhUL3L/u+1fHd8Am937d7b2cTkPvo/nbclbLXZ337FKA3ZPn+3wNt+xzu4+7I9lzfXKV/V+m/9vEA6A1nOpK9Qd1k/T+UlF87+b7u3sqRSuFGksudiMudiCDWyfcRaW64OIQkpGYqzgxXOFwrYQh9kZhVXBS5aqkPgsmSyfNjRSaL6bNRuhiA7+ILk5XGNDeckCs3buJ03f637yDy6zOl9Qntf/Hgcds6y621bYYhBF86eZDvfuYER0wfw21CsaRDiGUCUYAXBLzpl/mZW+Z6s0u7626wXTw40nHO7yGl0gvA3ZkCgLHhIb74mSf57c+c5P91us6vFpscb12m4i6B34GgS6vd4tLcMi+3Db4fT/JP4kP8XnCQ/6Y9zn+5WOfv3bT5ux8F/L13V/kvPmjx31zs8L9dC/iTuZDXVyKut328boe4uQArN2FtFuWsohKfcSPk6VLC3zw5wt9+/gQvnjvFselJojDY4L0q0tB+YENuugfdv/eLQZ/M7xH5xZX9nP7et6cemUPbHkHBFDw+VuW58QrjRkRBaUOcUAqVREgEiVkgsYokhqUNR0rnepBxgPIdSmGHg0X43PFpjo0N9wxwmfU5MwxlC37H5zDPsNA3TkpJZOCSOGvEzUXi9jJxZ3Xw5KxpclvEXofEd0nCAJnEKJUKYKUbLQwTYdmYxTKy1KBdHuOSrPDj5YBfLHW5surgS7Eh0SWAlVaUGUSBhjuiJ5Cz3yUqCnSeO79LErgkkb83KPRJQg8Z6t+VkjoRaBgRhmmOkEEjnePez71HpobLOEKGPjL0kIGHDHxkGOgQ6iRGJon+Ht8Dpa9XSZrLL7sd6t1eZ0a41BAnEz2HaTsSv6tzFnZWSVpLiPYitaDJQTPg3LDNVw8N8+snxnnx5CRPHppkpFYhSBMaZ7wg4wd5b81HAvn523T95OXauvfcJ+MT3nfb3s7+r2mD8a0fSQxBF4nANUv8YsXn5dk2y45WXPYMsn5n/bhDd25D1veMN/XGYasfcC/of8ZWkZ+vTwF63czNyz0hP6f72DGo3pfb1vr+TDwo7sA7MmNQ6GmK05y6DwUFushBkia1zwwFsGf2sBMmLHoRM27Mop8QJ5nXv9ARKbEe+5pIODPW4NBQFZF69GdeaZku86B6zFTF5rNTNSZLBsgoHR8JkUeESbc6zowTcvHWAu3dvijbMG97Yy4h20b3I1O2BiEEZ6ZG+crxKc4VA6alQ8EupDnaBMQRYRBwPbZ5x7V5Y7HL9Zab1e3aPvR4cY4f5/u93c/bAmqVMicOHeTLJw7w1x4b5dtTBb5aj3m66HNUdBgN1lCdZRaXF7nU8nnbNXnVLfDTbpE/b9v8YFXxx3MBf3TT4Y+vNflXN5r8+UybV+Y7vLfc5WrTZaXTJXQ7yM4qZnuRqrfCFF1OVQQvjFf45SMj/MZjU3z79EEenx6nUSkTR1GvWGTvMjotGpk5quzYGXkT7C1DXLaBsrCO3qLKLbR9DASmMBivljhaL3HEChkTkbYOZ15USYQKfVSoharIkuonMUkcYsY+07LLmYrBE8eOMDrUwHEc4jjuWZ+zRW/b9oZn7wgyIZFjVMIwQEpkt0W0Okcwf4Vg8SbByhzB6iBplmBllnBlVv++Nk/QWiRoLxF2Voi6TWK/i0wihGkiTEPrBH6X0Ouymhh8YI3yR9WT/OMl+F/fucblNQfLsnpJ77PqTbVabQfGW+X27vqeFUJXjkw6K9pzauUWQXOBsL28pyhoLRK0loiTiMQqEAFJ5g22E8jGjnWlDimRkU/SbWnjsLNK7DTXDbgPROnndFaIu01k7AO6SnUvJFqk7VAJ0u8Sr84RrcwQLM8Qrs0TtJeJumsYQZtG7PJUKeE3Jyz+3c8c4T/82mf4pXOnOTgxThQGuK7b84gVqcemSr1jC4XCtlZy2hvIy7DbvUCVVDpc+7b/3Y3635fba0IXzOjxaqV0fpuUVFZV606UydrAJXA6XFBDvCHGmXUCnG2/yX1AZPqBykIytkCZDpFTwAamSvT28ieM+W2Uvb5PmX5kkZPHPeofk7vRupx59MdqLyAb5zus1b3EIx5m5HkHaXhiEoLXQbUXUZ0llN9GBZ2Hg/w2yluDoANJoPslxMb9rzueH4Udg1Jwywn4cNWlGUgSJdKL8LSAjpIQ+Qi3RV0FPH5wgsNjIzq/au5C8UHyw+UxXS/xhcOjTJVMHYqc7bs40uNWqjHrJnyw2KI1qNxjW0Ju3/fmMfPG2um5zO2ZvHzYsL62F5ZlMVGxeXEo5puNkLpNWgyqoD0YQ20knQ0U/8e1Dj+ed4m3qy09kdcvOzfjxfe/Fu8HSimSJKFarXLs8GG+88I5/h9fe4Z/99QQf7Xu8pnoFpOdW9BaQK3NolZmUKuzqOa8rnLaWoTmLHSWwG2mtIrqLqO6Kyh3FeU1NW8JHYqxyzEj4OtDgv/LySH+/edP8Dvf+CxfOHuS4aEGYRD07BCkhrfMgG4YBoVCgXK5vO0FLO4V5ve+973v9f9xpxFLlZZEDrkVGDix9sIQIq0aGUdUVMAThstjQ0WOTh/AEIIgCHqGnQdhfvvQPN4yDKJE0nJ9OjHMRgaJzClbmZcMIq2sKlGRT9xtUY27vFCTfOXwGJ89c4KSZfYO4PrzRW/R73RY6qIbcn7F5aavmAu1cQilEKb27Es8h6G4yzHZ5tRQmSdGKxwtwdGS4Fh5O4kNvx8twZESHC4qpqyEcRHRkB7lyMUIXFQcEiuJErrMu0iFf4LAFwZtLLphTDuUWChsmTBULlAu6PHdqWpli17EqwsOM67EwdT5EJT25EPGRO1Vil6LibjNOAETRsxQ4jK8V0h6DCceI8rnWAk+P1HhyHCNSqW8Yey2m8csdANmOgEXOpJbXqZ865BTbfj2tNdZexnpO0i/i/QcTf4DkOcg/Q6q20IFrhbqholRKGmxnVZfE1nIf+Ai28sU/Rb1sMMwIVNWzImy4MnhIs9PNfjS4VG+dHScZw5PcnJyhLJtglK9Cr6ZAST7bpom5XK5t0a3e2x3AwtuyPnlLjdcxWygjak6p946tP507wrZbe/rjVcawhL5ev0YRvZqSMPF1n//BChd0c63K5iWxWjQomYqDgzXMAfMQ+6GWCoWuwFX2yFvrQasBX35kLYIJbSxshA4lP0WXzo6zlOTwxhpxawH8WpY6AZcWnW55CRc6+YOBFuFSOfUMLFJGPVWeaxu8fnHjlCxTcIw7LUty0P0MOONBYeXZ9u40iBQ6V65h7nshdSrhDER8aTlcXKswbHpA8RxTBzHj5an7S4iTCSrXshHzYDXlzzcLIdWbs3WpM9UsMpTB0Z5/uQRgiAgiiJs294WA8WjjEgq5h2fK+2Qt1dDWmEWGpkW9EoizMij7K8xpnwOFhRj+Iwon9G9TPiMK49xfIpCkiBQVhFpFlPeqLS8SmJIAp6vKc4NWUyOj1EplQjDENM0B6ofKBS/WOjw87kO7zUjXQVUrVcUJ4kx44ChYI2n6ia//sQxjowN9c6fcRz32lgulx/Yq8Y0BGXL5K3FDh+vukhhkZBWlbZsKJSwu6vYocsTB8c5NFS9r5x09wsvTvhwxeFSK+Saq/Binb8Ow9RjJhNGRcgTlsfJsTrHDh4giWOiKBqI19GyGzDjhPxiOeBWN/PeF+n8GVhCMumvcLIqeOGxo9SLBYIgwEpTJGWy/14hhMAASiomTBRXWz5urAjsivb+jCMQJolUtCNFo2BwtCixDUG1+GCOEc0g5vX5NlfaISuRIJbp2TzrRxwwbcU8X4Ojow0mx8eI0+i0nbr0Ng0D27Ko2BZDRYthC8ZKFuMVm4myzWhBcMBKGFU+9ahLJXQohB1sv4PpdbACBzvsUgi7FCOXauIxpHzGCTlox5wowdmGzTMT1fTsMcHnDo9zZnKUgyMNbEOQJElvj2bInz+KxSKlUolisbgjY3I37CFDnMulVrC5IS6JqKqQx80upxoljk5P7RviBgQDqNuCdgxvr/hEUmlvi8zyjv5dWAVU6JO4LeJuizEC/tKxEb56YopDE2PIJOlVS817v2TCaiehDXFdbnqKuXBd6dceQJIkiTllR/xSLeLFk5P8+qkpnh0u8OxIgRfGyttGn83RC2MlXhgp8sywzdN1k1OFmKPCYzxsU/KaRJ01fN/FiRKUaSMKJQzT0vVV4wgVBijXxS/VaDbGmV9Yxmk2eXxiiKlGdUfDURe9iFfnO8x4EkeaOreakgjTRCUxsbPGWNTkHC1O2yGnCzGHVJeDssth3D1Bh1SX40bA6Qo8PT3K1FANK2XOmaKz3WO50RCXrkkhEKal8xZ6HeLlGeLlW0i3jfTayG4b6bZR3Say27o/cjWp9grK62gzTaGEWRvWezzWRVi0p5Wlb/daCwwHTQ4lLU4WJefqJl8/UOVXT07ynaeO8+VTR3ny2CEalTJJEuN5Hr7v9wSfSD3hspuoYrHYK6V+P4rQXsSCG3B+2eGGm2xqiOuZGe7F4JApDxvekzukASp0UZ0VFBLsYuqtLNY957aKND+gKNeRCtbmb1I1Fc8dnqBg7t4crRviAt5aCVjLDqpscSwVKEFvzArhgAxxay6XOjHXuokOadpK23oQmjJDnP+IG+LmHV6eSw1xUuRu9LcII13/SjJmRDxp+doQd3DfELfdWDfE+X2GOKHLpJoGNRkwGaxx7sDIBkNcpofsG+LujJ4hrhVsNMQZhuZZKIqJz5i3zGOmxwtVxTHD4xAuR4S3Z+mo0IXbHrMjLCROIoiLNSK7oo1vSmkDjowhDnm+rjjX2FlDXKLgBzea/OBmi1uu1Gs789oT2gBWlAFHojWeHy3y4tNnGa1VcF23l2rDtm0KaZ6pBz3Qm8KgYBm8v9DmerOLi51eVCS6PYZJ6DrESczzUw2ONzamoxk0tCGuy6V2kBriUh2nZ4iTjBo7aIjrBsx0Qn6x7PcZ4nQJZwvJZLDCyYqxrYY40mqhI406SRxz4/JFWgmsDR/R1VMDT6eVQeCXhyiQYDTnGSkXODxS7/+oe0IziHl9LjXEhUKHUvcuYTNDXMLz9Z03xAmhC2oqpYjjWOeFjiLGRoY5MT3FM8cOcm68zpMVwQkrZCruMBS1KPtNil4b22tjeQ6FoEMxbFOOu9QTjzEVcMiIOGXHPNMw+dJ4kRePjfPtM4d58cnHeO7kYQ6Nj1GwTNxuF8/zCIKg57Eq0qi8JEkwUk+4Wq1GuVwe6HhsFULtgbgTP5b8wcVF/uWMw6ttk3lfopJYJxa3C0Shz3jS4bfMBX7lcIOvf/ZZbEPQ6XSo1+tUKpX+j9zHfSJMJC0v4I+vN/mv31tkNinQMcraQydJNI9Lk8THXofYWaPmLPFkOeE//NJZvnTsAI1alSiKeoY4kRYTKJfLlMsbvYx2Au8tOfz+x4v8fFXypmOhEp3/S1gFlEoI3Q5fNNf4K8U1njl1nFNHDhJGEXHqzTcoKKWQUpFIiR/FeFFMJ4hY8yOW/Jh5L2bWS5jxYTYyWSuO4NlVPf5Satf1ShmzVKYRuTxelPzVYzW+OFXh8dHKjh2e31tx+a/enuOVlYg5WSROJEomCLuAjEKCpZs8V/T47YM2hxpVGrUKcSJ3thjCJ0ILkHLB5uBQlUZJG4iy/AGDCKl+d7HNy7Mt/mA25tXVBKWkNnKbNkkUIP0uYyuXOBCscPbwAYYqJYIw3pZxE0DB0Ad/F4vr1HnPGCPAQgAq0flJhF1EpIa4L1QCXhyRTAw1mBiqM1ErM1otM1wtY6cKVpIkvQItWf4U0nwqmZAulUp75iZqO/HuUod/cmGBn6zEvNE29BimPGR9xjIDUu8Pd0VammD99SL9Ylrag813kM4aqr2EUWlgDk1AqY6yiqhe1eetKb6K1BOg3KBkmwzHXb4zZfJ/f6zC0fFhRoca/W/ZEfix5P3FFn860+YfftzmcidKrWtqS+PYM8IZJlg2tc4Co62b/MdfOctvnzu2wbiV3ZLeK95dbPPS5UVemgv40WKsD5d93pB3hZG2zy5QJuJU8zK/Ol3ib//KlxivFOh0Or19s5tJhbcL/+CdWf6zX8ywnFi0E6H3yb3wNcsGw0SpmDNml++W13jx9CG+/sIz+J6H53nU6/X7mst9bIQTxlxcdfj+tRZ//4NVlrxk3VBhGGAXmIxaPNm+zL/27En+/Re/SLvdxvM8KpXKo1eMZ5vhRglvz2tj0O9dcrjhpPytV0wJhuM2j3eu8PnxEt84e4KCZZJIuRX2t2tIbSEYQvDyXId/daPF9fpRFgsj4La1Mc4qQOSjAoffmZb8zcMlzp09w9jwEI7jYNs21Wp1IGsnkhI3kvzdN27xv3y8wmoEXpJd7miPKiKPetLlq+Yqv3ZkiL/+tS8wXC7Qbrd7id+zc02pVNoWviyV4vc/uMW/uLTCy03BDU9qeWLaYBexkoCDZsh/cMziO0fqnDhyiEq53P8xA8GKF/LPPl7gpRsdfrQcs+on620zLZARpwyXv1Za5sXTB/n6C88S+D6u6/b48Xae/y4stXllrs1/+2GL15Z8/UdDgDDBtiiJhKdaF/nWuMm/9ytfYbpRpd1uUywWqVQqPdn/ILi50uLli9f5wyX4/WZFR4DEMYS+5pHlOtMFyWnb4988PcJfOzlKtVykeJ/niWstj7//1gw/uOXwsWvgx2leZ8sGIVB+m+dLAb8zDV89dZhzj5/Bc12CIOhdfg8a2aV7GIa99FQZgijCD0LWui7NrkfTj2j6EZ0wphvGuGGMVBKFxBAGtmVSLRSoFSwaBYuhks1wqcBIrcJQpUSpWMRMjX9hGBKGISqXhiT7OX/+yM50e+Wibk8Z4l662eG1TmqIi2NdOdKyicKAscThN8Qcv3KkwS9/7jls09g3xA0Qf35tif/uzWt8EJa5QR0Vh9o4muWGExC6beLuGqf8Rb40YvK3v/01njw4geM4vYN4ZoGu1+vb4rp9P3hvyeH3P0oNcV0TFUfa6GEVUUjC0OVbJYd/q9Hh2cfPcObk8d4m3g0kSUIYhswvrXBjbp6Xr83zynybDyuHWahMIcoNVCLBd3R4sBAY9VHGKwWes9r86lSR754eZ6hoYuzAWL+37PJfvT2bM8SlnjV2EZVEBCuzfHvK5j/97EEemxhlaKixq+N7N8RxjOM4vRuVzIszO1BsJ95dbPPyrRZ/MBvx6mpazccQ2hCHQsmEz7Q+5gtWm7/8uXMcGx/GcbraQPyA4ycMQaVURipYWWvyw6WYf7Rg0So0UOU6ynNQcYgolDENgaVi/vUDgr993GRidJThRn3DrVcQBPi+39vb2XdtbNZCObs5rtVqFIvFHecDg0bPELcc9QxxSiZ5V7iNb7gD1l+ef336szAAI/U2jUhai4jWAmZniWJtmOLYQbz6FGGxjvK7OkxCiE80xilyzzMMKJYRjTG+Vnb5twqzfO7kYZ48caTvXTsDP054f7HNn95s8Q8vtrncDvU/7rIHbvtP3hDnLA7OEDfr86Ol1AB7T6GpmSHOpkzMqdZlfnW6/Agb4m5pQ1xs0k7W00VsGaYNpomSMWcsl++WV3nx9OF9Q9wAsMEQd36FJT817vcMcTbjUYuz7Sv86889xv/txS/idDo9Q9x+1Mrd0TPE3Wjxe5faqSEObUwwLbBtpnD5ineF3zg1yW9/44tUioM/TG8XhBD887cu8j+8fJ536ye5Zo9Be1V73ls2xEFqiFM7aojrhDHLXsTfeW2W/+mjlZ6HOSKLAJIQdRnD57fHYn79+BhffuYcRcuk1Wr10u7UarVeXubtMDIpBa/cXOJHN9b43294vNdcL4ynDTtVRksWv23O8J1Jmy8/e27HLsnWDXFtfrQUs+rHmnen/BgVp4a4lR02xDV5bSktXtGT9akhrn2Rb41bAzPEZSGQ/+iDRf7TV2/iVkYJ7So4Te0sYRd1IQe7wH9wzOTfO1rgyMQII7X7s1toQ9xNfjCTGeLS8GCrAAJU0OH5UrirhrgMUkqiKMJxnJ6HWrlcptFo9DzVSM8JURQRhGEvkkYphZFGKZTSFDaZZ3X2/yiK6Ha7vUIM9J09MsrOH8VikWq1uuf0gu3bEQ8IfVTIkg6mJKVOOI0mmQ1s/5v3se04UC3ytSOjHG8UUXGYelaQhoMoHToXeIjQ48nxOl85PsVopYhK3T+TtFqqYRjYu1kptYf82sq8KdI1lkiiKKbrB0Rpu13XpdVq0Ww2d5wyQ2ajXuXMiWN8+3Of4d/9+vP8rcNFvmEsU+suIUMPUa5pBi8TlOfQcTpc6ArecuCD1S5LbnpgHTiyHZmNa26s0zDgMAxpttp4vodSCt/3abVae46ysVdpcZFMWAxk3WrrR9+Ypd/ReQGLlkm9aNGoVRkbGWF6apJDBw5wcPoBaeoA42NjTE2McfL4Uc5NNXiOFabNACo1MC1EmntMKkVcGeZKN+aHF64xs9ZGSkm326XT6Wj3875br8wIL6XENE1KpRLVarVXPGQg47nbyM1nLyw0y6v5CZQVYVDZnrntfekaQRdmUH5Xe8IlIVPVAr98aIh/8/QY/9FTY3xmpKAvGsz0IJffj5s9s/e89BlJDFEEUci1TsQ/nZecd/aI1N1sr2zSp9vGLt8/lekU24zssz+pOMZdKWvfIw7VP5f3QRvmtP8B+9hOCEDk90//XKR6+adh6Q4U/eMrtbeLTBKCOCGSepzDMKTdbtNut2/TYfYCtdvtnm6glCJRikDqA7E2uq+vm93iefPdkNfnWiy4kV7hWXuE0AwqiTA8h1LQ4ejYEMemJrBMo5fzVqRFGuw0D+K26TQCjg5VOTfVYNgGI7tMU2n+XgShMrjSibjY8nV46E6ix7uz+dvIB9aZ8TaNxyfiTnxpZ2RDFur4ZE3wt8YjHq+kYeWmpb/HYS/v8uuLLv/rxWWutIP+j7k3bJiDjLJ9NeAO3wNEakirVqs9Q6yUklZ6tl5bW6PVatHpdLShLh/qXShgp6lrojjGdV06nU6Pv7Tbbbrd7oYccPSdPUgLa1QqFWq1GtVqddsjm7YDe8cQp1SPbt/k+m/autn/zn0MAiPlAk9NNJgq2zonWc/aDKD0hklC6rHHExMNnjt6gHrR3mCEyw7hmSV7O29C7hmZgLjDATdJEoI41u7+ShEEutrjbpDneYRhSMGyGBse4tzRg3zz7DG+fajGN4ckZwyHUXyEZa3nZoh8fNdjxlecb8e8Ot/hRtvfwf2ymSBcH984jum6HkGob3vDMMTzvNv6vtvkeV7PENd/YzMQqPRL/5ihFULLEBQtk3KxSLVSoV6rUa9VadRqD0T1WpVyqUilXGZidITHRmt8vpZwtJD0ng0CFWvPVmnZ3PAUP55zuNb08DyfMAyJoogozT/Rj7yimoVubFf4xt6Gnk/VMxRs3AufTP2vz9aE/mwlE2TQRQQdSjLgWL3ALz82zW+dmea7p8Z5sgbVxMO0dGoH/baNz1e3PTP3XCm1J13gMe8l/Nwtcr4ds9Bs46X7d8dxm+KZG5e79un21w1EM+995CbP2zL1zfsjjf6+3yv1rYF9DBSpFLzj/tO6uRjEzvoUIeVNG/iHHm8lEyIpdWL21BNkL+pPecr0WKW0E0WU6DPB+hrKUdb9HcScE/DaXJuF7MI6G3NSeSkTSonHqPI5MtzgwOgIItVls4vavDf1dhniBDBRK3JyuMpkwaAiErTGpNKUB9oge92VXOomdILoNmPEYJGt0034sMrk6/aMxZawQYfO86idkQ2ZsenUUJHfPFzhybKklnhYlqE9PmWiizckMR+1Q34wH3BhxWHFcYk20Zu3hmz870A7vZnugOwMUEpTU2UekVEU4aeekhmvyAor6JNHmpsbUEoRpZ5y2eu73S6u6/acADKjW/652bwUCoVeRNNePX/somWkD2l+xXXGnNtQ6IOhHtz+N+5jEDCEoGRbWAa6nHfG1GSaFLJQZNhSPGb4nJkc4fjhQxhC4Ps6Tl+k7qOZO+ieWPybMqvs5ztDK5k7R1loquM4rK6u0mw2CQOfE4en+eUnT/BvHC7wtWqAmSbaF8WqdsdOIohjbqy5/MHFFd5e6pKknzl4pOOYGR9645ru3+w12U+pu3CSJL3k2nuFMmNy3qA8UPSvxcxDSSYkUhIlCqV02Gy328VxHDqdTu9W6EGo0+kQhiGTtTLfOHuEU1UTtXwLkcRQLKdG3gDltFhILH5RPMrFrmRpeQUjrXzKHW6hyuUytVptQ+jGo49sDjM+k1NQNyiIfV5wGW3w8skpk0KHLBOHqO4aMvKxVcQhfJ4drfDLz53jucfPcHBqkhOGx0l/nqptQDENf5B3eN4GyvHFJEK5LWIlcYemeX/F4wdvnufWylp/h3cWKuPjG3WEO/epfzwHpaTm9u9tz98CkWvnQNq3F7HZXtkqZWtgHzuB9Frmdr5EekGL1s3FTh7AHylk/CPH18jxhU2Q16H2qh4l04ttlPa01pdT9PHKjO+xowac2W7Iy/MO891gYztSGawMxZStOFMRTA9VqVTKRFHUC4PLon220wiXwTIMagWTI1WTwxWTgqkjkVAKooDI95lVRa7EJRZaDt1ud4f0/BSZHO7NYzaHan1+dxJ5mZBvz4a1NVhMjIzw/BNnOVeOeKxzjbqpoFxLveIC6LZxsZgzh3j15gqvfHydlpvmtbsvpPw367dMZWmG7V2SD4x8ZEy9Xu+FiBqGgUzzyWXGtuySwfd9fN8nirSxOc9TsrNZ/qyWPScLQa3X671UOHslH9xm2DOGOAEY/Zu6bxMp9IF0HzuA/CbuzUVOKTAtqqbBpCUZr5aoV6uQ3hbJNDG7lVam2a7cCQ+OrA99zLonNNY7LdLEjpkhcaeoUChsiIWXUvYYULlQ4PBwjS8dGuGLoxZn4mVGCRHFkmb2SnuytELJx77JhVWXi7fmaXbT3AmDxIY92ycU9QtSVXPdMJjdllhpNcC9SKZpDjCkOlt7/WO3TjK9TVaASm/Cs4SkmTfa/VL2Ob7vU7JNTk9PcqoCx7pz1Ah12LNIc535Dq40WCyP82Er5L3ZJdxIu5FnY5TtlfztVylNjGpZ1h7hAQOGnqg+PnM7z+kdTjalvtejlXCVxKjIRwZdCrHHpA1fOawrVT92YILx4QaVUpEnh4t8bthkxEh0jrosROK25+SNIH3PlRLCABnHRBh87CT86ULAjXawIR/HTmDj4T4/jvrnu49l3gt6/T0wqLPCJs/fMuXn/FOATffKfdA+BgqBvo8xoG+e0sOfUiiUPgem8l2lHuX7uAf01IH+9X3ndZ7pUHtRj9qgOwlDF99DV+fuXThl8mcHEUlFJ4iZdyMutwNaQZqDLVvTSQxSezBNVyyeGKkwVi1hWVbP4EnqsWMNSK8xhKBsmZwaKvJYo0BRpG1TCqIIGQU4ZoVFilxdWmVhrbUtRby2hn69tU+27lQzNiD//L6fdwjlUpGJ0RGen6rzjckik3Yahm3a2tQSBUSxpJUIfrEW87NFn7m2hx9or9F7Q6bDbDb+uc/aQyw441WFQqF3NsjOCcU0j2j/WSszuuXPjBkZhtHje71w1mKxVzylXC73ztSD2qfbhT3TMkOkg7yJINJ/g0RKkh08AHyaIRWE2XhvmI90/IVB0TJoFAxsQ2+cvFeMEKKXO6F/c+08MqbVt7ayG4RMruSQGRIzq/pOUK1W633PvIgqlUovuabrusgk4eihgzw/WeMbLHDccFF2EQydC0rFEdI0ievjXGl5/MW7F5hb3QEvFqXWvd/69u+Gwc0p6VaahLNSqWxgnnuBsrEvl8s9w+jAkO2r2w6jt69LNhFG+d/vhYy00lCWx2VoeJjTxYTPxfNMiDSRsqETqavA0yaRcp0Lqx4/vb7Eshf0BGs2Zvk1XC6X95ARfieQTpjKG3/y+XA0beq9lXlBblCq0v2UGtFU0EUGHioOqCYej1UMvvvsaX71qcco25ZWWqTkM9OjfOuxA0yIAOU5eh7NNESi/5kb2pFfh6n3XBiguk0uByY/Ssa46kHX9UiSnZTD2UZYl0Has09tPpa30cZ+9fbWINAvY7ZK/R6UA2vgXkL/vN4H3YlJ7mP7kFa+FKI/T5zS61WmnvxpFfgsjck+7gOq/3IklSWoDcs8O5jatt3TofaiHmWn+WCFZWGUKwghIE4rSt+2h3dmH/txwkI3YKEbsuonBFEmC9PxT3R+VKKAw7UST02NMFTSOnjPwy/1vBmkflOyDM6OVnh8pEwZmVZgF2n7IlSxSkeU+PDWEjcWV3bucqwn4/LyNHee2qF5XEe6NzbsmbR9O94W+Nyxab777CmO2gmi20qLNRT1/IU+gefxjl/kZ16Z6y2X9v14M2b9zfOK/B66x4/bSWRnj2JaMCN//q1Wq5RzBrTMhrAZZU4rGf/Lzh71tIBnMY3EE7tqe9gaBsNB7gOWEBSMzdzf9WZSAqRc9w7Zx4Bxm6fB7YcafRDqfyMopTBTN1RrO5OYPgj6GXXf+spzrsxQkbe27wRljCfPYPJKTXZzUCwUODI6xNdPH+axiqDQnMeUsWb2af4+JQTXnYifzDncckKSNMHsYJAKQpkf45yAzj1WpS7FIjXE5T2o9hpleQXsASpbcId1mfHBTbidmYaEZsp3tVq9b8qU92KhgG1ZnJoa48UnT3CkUcKIQ334EkbqIeWj3A63ZJEPGGam7dPpdrFzN1z526dBhGzsefT4TJ+SmtJGnppS/8GrtwbQirdMep5wIvKoqJgvHxzht84e5PGpUaoFG891e9V+h6tlTk0M8xnb5ZRqU7QtyNzy7/jM7LlZO9M1mITgdQgUrJkVXptr8tMrc6x5D5hs+H6Qb1tfe+9K5Hh99p5B4DYZcy+U9SX7jP4Pf8SQ7/uma/GTKL+/+j98H9sJA0HBNLANI5VLffsvjVSRaI+4rKjaPu4Bm8qNTA6ka34T2KkhLu9hshco7+UCIAolzPqI1gcCV3ud7dIeXvMj3lnscL3tEyuQvXFOoRLMyKPoNTlUL3Pq0AEqBZs4zQ2XPxsM0tOmaBqcHKlxaqRCzUywSA1xUupccUAnVnzQDLjuhCQ7OIZ6w2cXjltbqwPFbbIhXVMbmrIzumijUuL4SJ2vDCm+UIupF1P9yzB1yo/Aw0sUNzzFSzdavDbvEMr7GLN+fpEZH1OevJeRdwbI9lLm0ZbxsU862+QvH7Kzh5161eUdFB4GDIaD3COEgIIBRQPMvAtufnOnLu8y22yQGoL2hf7AsEE5yDM5fYMkpSTK5iS3ucjFaQ/Uk+ie0dcHpVXHzQRH3hi3k5S39mdMKc+QSmlM/dToMF99+nFO1Uwqy9exZIQolFHpwZ0k5mY35uerCbe6Or5+YPsk4/sb1kf/uklfqvS+7TfE7UUqpzczAzfEZYebDV4x+XWp91Q2f1auClDeg/J+KHt/qVRCCMHJg1O8+NmnOTZSxY48LSBE5pHlIdurLIoqlwtTXG15rDRbWGk+uHwI6sMiALcfffzlTrngevskN9f5v0m1Pu9xiAw9Er+LFfkMGwm/cnKSv/H0cQ4P15BS4jgOjqNzxRSLRQ6N1Hmh6HPO7FK20gpe9Ctvd2tnuhbjCPwuKEVgFvn5zCr/8uNbLDm6+vGOo8dPNvPouwv1jHEDbrPi9mdvibJ+pbxywM3cE1B5z9H7oXS8PhWDtXsQAgqmQcEQ6x5xG3Qp/XsvjULuULmvo98DbtOh8ms8e8FGWGlUwV7UozJ9QAiBUSxjNEa1RPO72qtrl/bwqhfxxnyLa600ZUs23hmUxI59am6Tg40yJw4eoJQzxOWNB4N0NChaJsdHajw2WmXYlBSQejOi0vDeBCdKuOAkXPckSeqZOlDkP743f/38eIfR2zc5fnTbuhrMHG0G27YZrRT45qjgxVHJSEEgLFMb46T2ikNKFvyYP7zW5kezDl50j44St/V3l+fgAZCds+00tU1mhMvOvf1nlow2OBLsyDltcNgzrTYNXSFw4+11usAAECSZ0bfvvfsYMDbd6LfPQuYanXl4DfK26J6g0i9K9YVPpv3Z5ORzT0xxB5C/PcgYV7FY5HBZ8FQ5ZrhogG1peZNEELgkVgG/McFM0+HyjRm63iBzxaVj2BvT3PdNxpd0jPfaOO880rWYGeFu8w7pf/36WsgMXtnPD0oApmlQLticG7L4wohgxEzzXKg02XLoIwR0MXn5VouXZ9boRvdb+ekRRMprlNIHKbVhLu9Gmr8qJfVuEUL/HodI30EFLsiE5ycq/M6TB3j+0Bi1SgXf8+h2u73DQJZTsmRbfOGJU3zlzBFGEwc78hDFsr6VzR/w0mdvML71E0DQJemsMW/U+dgc4+PFJnNLy8T3XfXrPpAbp9vauBXK+NMd+NGDI+N799HGXtsyGkT79hDy/d6Q9+8e6NMwTnsAAq2bm0IgNvUu1blMYwSxBCnv8VC5jxT961t9Ir9SaYTBXodKYgg8rZvm9/td9MNBYS2IeXe5y82Or1NH9MY9ARWjkByumPzygQqnhrUxoJRezDYaDYaGhmg0Gr2UMQOFEIyXLL40XePscBEjv/8inyCOWbYbzASCazMztNrt/k8YADbhxbs0lxpZG7J1lY7PhnW2syjYNqeOHubZQxM8Hs4zFTYxag0olHTbfIfI92naNT7qSn5w/jIX51f6P+YOyMa4r98b+MU+HibsASuJth2YQmD1clBs3FD6DkAQK4h3YVN9qtFjsJsxt/W5yIwqQogNLqKDui26Z2T9yHI29ZjZnRnXXlMmM4NJZnyxbZsDlQJnh2yGC6JXDgEZQ+iRmDZhdYTZtsvV2Xlcf5DhZNn45tZI/vd0jPfKctgzUOnazJSHjPfdJcdFNv9ik7xv90PZZ5GusaJt8dRQgS+M2IyaCYaM9f9VApGuMOYlknfXAt5a8Vjr+kSRDpX4VEPpL9r4lhnh8vPaR3fyBkrnPCvOoEKPkoqYKsLnp+r85TNTnB5rYFkWQRAQBEGPV2XJpG3T4PEj0zx3dIqThYhREaVecSIXUpJbb3eibP0FPrLbZk2UuKaqvLvQ4spSk3jHcsWlbfmk9t6V0rFVt++p7UNeptwDbTL/jzzUfY4V2fvy793HoCCEvig3jZx+ns1BumYVikgJIqmI0zQYmUzZxyehf22n1M+f74C9pqduCpmgokDrpv08WaUyZMD9kErhRglLbsSlps+SG65fSqG0fpN6mo0UBE8OF6lbAieIaLk+LS/AjRK8ROFKaEeKlSBmxY9Z8SJWvHDbac3TifxPNIpMV6zUcJiOWeQTxwktu85cABdvzrHa6vR3e0DIrdH8Wt1xXpw9LycLMrmiMhmx87Ati+mJcZ44MMpnyyEn7BDDykJUBUQBSejjCItLTswPLy/y0XKLMC12eFf0hjivz/TNwYD30j62F3vCEAdgCk1iw2Jad89WQCgVoVzPS7Yv6HcAKssFkG7u7AB3h81uGEYvT9TewibCf4OSc3tfHgaMDg9x4vBBaibQbescBFLqG0hAmTZLXZ+ZtQ7eQI0lfeNLPrQCbQDIvu8jh41rUqk02XVvj/W/nt4t+KAUcFMIzo5V+fyBGuMiwIp8DNNAGKaueus7hK7DQnGEG0aD60urrDab/R/z6YRKeWZvD2zm5dj3t7TIQt57Tsg4Lc7QRQHHajbfPVjmG0dGOX74EJYhcBynl2+RdF3kYRgG09UC3z7S4JmRQs+IihC6mVKHkSmZhcNuQr02xhCHEEesuiE/uOXw80UPf0cT02TyKGfE7G/vZtR7XbbPBtTmDXO8STs+ifJyabON/0ghlbmZUfh+Scn1odoXLQOBSHM4WwIMJTEymSVVz3iRSIWvDPxEEaYXA/kLnn1sEZvppjLHsx7W4dzA23I/Z30bFE/OwY8lV5tdrjVdulFCLOXGYkoy1h57SYwfK5Yjwbs3F/jTt87z0hvv8sevvs0fvfo2f/KL8/zg/cv88MoCfzbr8Gc3m/zp9RX+9OrSOl27T+p9xjJ/dm2ZP7u+zBtzLWadkG4YaRmcFV2KIv1zocxyqHhrZpG5dre/2wNCJkvz8qpvHndyreb1gp4RLmvP4NfWnTA9VOOvPneGrx4dw+qs6FQfpYouwBWH0G0z6wT8sFvinbZkudnGD6P+j9kEOT3jNtq9/u7j/rBnDHG6WIPA6AmejDlq12GVlp2O5MNZrEGlNzJRIvHjZANFO+ZVcD/o957IM9/bIdKwySzUbW8gJySkvINHSP97Hg40qmWmx4Z1VSW/C0msjdky0YVPhGDNj1joBgTx5nP24EgHLy8M84fRh3h8dwQqXZMbBOvOKKebwRAwXi5wslHiTN3iUFlg55QqFfokgYdrFrkVW/zi1gpXV9u3GYI+fciUvkx2bcIz83/v3yvZ+MkEFUeoOKQoIw4XEp4dLfErJ6d4cmqEcrGIUoowXC97L6XsXYLkvZHHKwW+dGiYp4aL1BJP55kxzJQf5tfaJu3sb3OSQODR9X0+9EzebSVcml9ite1sHIZBQaV75V7anbW9x4+yOdpuZDxwk+dvlXrrZRDt22PY6tzdjbJ5Hch87iODIQQF06RsGZRNsPK8I+Vh2hAn8BNJEIY9fgQ8NHJBwab6eRAnhIkOvx0sMh2gb3zVI7LOs75tJhd3oG9elHBxpcultS5enGjPIylTw1bqDZeOdVPZfCxrvNyCl2bdHHm8dKvLSzcdXrq+xktXlvmTq8u8dHWZl66s8NKV7Of7pOy9vc9Y4cczTc6veix6EUom622Wsf4uYMVPeGfZY64bDPSSFnLz2McDdk1+bdaeHVxXd0O9VOCpQ5M8P1HjWdtlqqB0Ub0sRUjg0vFDrgUmb6/4/OzmCgtdv/9jbodK+531tTf+u3du2Mf9Y09YSwRQtAzKpoGZCfne7XWiDetCEKnNDXHqIcg1pZQikYpulLDmh7T8iFYQseZHdO81UeNOIs/gbqP1NudD3fYs+pWAvPB4SFG2LUbKRYokqDBAJGk+r9TFniShE0lWI11YY2DorZNUmblNGA7w2Q87srG7TUFNx20XtpQAGgWTzx+o89x4haKQWgkEXfEsjhDAohfxg2vLvLPY3p9h0PPV4zN3UFZTuq04AkqHbicRKvRQMqFhKT5fifnmgSpffOoMkyNDOI5DFOlb00z2SSmxLKtXeCNLXDtUKvDUgTHODJeYUi4VQ+YqqKYHkLxXQD/lFTwpwXOIfY92ZYQrgcFfvPcxl2cXNg7BwHA3WXQ36n/foFZqul9lktNf7pF68mhQbdxLuBPf2wL1e5nuY2AwhKBasGgULOqWoGiwPm8pSaUIEARSXxDIh9AjTilFN4pp+hEtP6LpR6x5Ia0gwgljIjlgPTGvB/T4rlzXAx5mqPRL1p8N+znbw4PtYzdOOL/c4aOVDmGc8uhsnJNsvEEIkwUqvCrG+UEyzvejCV6SB/hX4iA/MA7yUjzGH3VKfP9mlz/8YIbvfzjH9y8u8f0ry3z/ygrfv7z6YHRlle9fXuEPr6zwLy4v8yfX1/jpfJer7TD1Xs+McTJNQxOw4ke85wpmfUUURZ8c3vjA6J/D3V6r+fbkHC6U2p3mpDBNk0KhwBMNi399SnGubmj9KytiGGdejpI351v8z+dnubS2hVzePdm3yX7SL+h7wz72MvaGIU5AyTSo2IZORinTOHiZHv7SHBSBFARK7FLU94Nh1gn48c1V/vmlRf6nDxb4Hz+Y5388P8//dGGBf3xhnn/24SwXltpp5Zv+d+8WUqa6YdOnNDDPggHhtj7kmJh+Qd8bHg7YhkHZMlMD9sYDtUh09VQvlrRjhR/FxGkOgm03/ObHNq9Ekh/jfWzE+v7qGWR6yvfuj1u1YPPMgRGenqjRUKGuzCt05TyVFgRxwpgros5lD27OzdPp7lRoxF7FZnwmR6lyuB6G2sdTpQLDxLB0fr6zVZNfOn2Y549PUyvaoDYq2tn3rMpyVqk6OwCbhkGlYHNmpMJ3jg1zvF7Q66zX3BwfvBtlSm0SI+OQJAqZ6Ub86VLEB62QIAhIBl64IT9mW2x373W59wyS16v8ZU9/Oz6J8u/p/+BHDfk+38d49cLbHm75/TAgyxFXMA2qlpEa4rK5y0JTJR4mbixxPR+l1EArSm43Vr2QC8sd/vDjBX737Rv892/f5HffvsnvvjPD7751g//5neu8OdtkzQsGG8HSG9fc3ngkdKh03/aiUbLfs3082C2cSIUTxFxec7nR8rQh7rYLKNVrR5hIOkFE0/VZcVxWux5rGTkeq+nfVro+K26gqZfbLdgecgNW3JBVN6TtR/hZUaz82kh0PmhfwrLd4JYTcGNufvCF2VTWjowy3TXjzzuMDfKjb04HubC2AMMwODhc5yunjnCubnAwWKZiAcWyvvGOIwg8lvyED1yDN2dXOX9zno53t5zefWN/W793vdv7uAfsCUMcCMqWSdUyMNH5cnpJYROtOCsFvhIEu7TPHxRXmy7//OI8/927s/zd12f4u6/d4O+9dpO/98Yt/os3bvBfv3aZ12ZWiaVE183bI9iwwfObX6UbXexwMoAHQD+z6nktZH15+GAaaUi3IDWupX3Kbs6SGD9ROLHCCyLCMCRJkylvL3LP7qd9qXBH6JHZTKDmx2x39le1YPH09ChPTdRpEFJQMYZh6ubIBOV28KOYxeoBroc2H129zlprJ6p27WGoVCnMG6N7/EZ/1x5wdyIFpoVZKjFtSz7TMPnWuTM8feIoSRzftn+zELBSqUSpVKJQKGBmt605nB2t8LeeOMDZ4aJW/ACEsTFfz50o1w+lpM6j4zrMOgH/ql3k/S54vr8zFVR7smeT8f0kGvhB4Q78b8uUk62POhQbw/HvdS5VaqDYly07BtuAas8jLq9nxDo0FRM3VnQ9DykfLkPcguPz+q1VfvedG3zvJxf5Oz/5mL/z04v8nZ9e4v/zk4/5uz/9iB9dXWTB8QkGZojL8Y9sP5BGOGxY4w/HmN6GTDb21k22l/v7t71QQCQlnTDiastlpuMRx/Ednp/+HIfgdqCzBq3ljdRZhW4LQn8jP8r6tK20XkBiY1vTtZLEELhEQKcyyq2Oz8Vr12k7g7oQVenj8zpr2tbs9wHO5ebItSWfFkRme2j3MT4yzPNPnuXpusFj3VvUTaBcXc8V5zt0pWBOVHntxhI//+gaze5djKm9Oeg3JmfzsNNzsI8HwZ4wxBkC6iWLkXJB55+QaV44lXrEJTqe35GCdgxeehjZU1U57wIFrPgR7y+7LLoRKlUhZWpgbEUJl9sBH8yv8P71W6x1BsVE7x069EkbR0m/60NgXgne25teoZmWIh8KJkElvbCw2wOeHx6sz8D6XKk06b+SCYlSxImuZhbH2ituW71XUg+fPGXePdrzZ88vkd1BTqHprUMldQL9nqKz+wN3oFrkm8dGeXykhEzWK42pJEbFOmHw1ZbHH15d43Lrbrd4jzrShZ5TUPPhp5tTzhsy5UkIgWFa1G2DYdvANgRSyp4nnGEYqDQc1bZtisUipVLprgVyauUSRyZGOV0RnDY96rbohajm27Dejjy/z/9PoZIEFbh6/ss1Pljq8E/f+JCrS2v9j90+pHslL4/6231nyr0vU1S3GzlRuPV29bdxY3sfbejBUupe5zKltMDJXuGRnwYUDIPRkkXF0vynN2eZLmEXCSQ0O12iVD/fW7mC74wlN+DSapdWECOBRCkSpZBAjKCbwBvX5/jxh9dYddz+t28PFH08Ny2m88jwA61n98sUld/DAzjOSam4utblvYW2nl+ZFbtKx5j0ez+P2bO0viaU1PtPKVCmxYwT8vZ8i1Uv7B+GbYb2Ztw4l/qCUE/lDq3XntzNyZL83O6xvfPCsQP8ay+c5UTFQPgOmDbKKqDSqsKh5/JuR/LjNcWV1Q4tp7tJmHGmaKT6WF9/9/HwYU9ISYGgXrAZKduUDF2ZKVOwdHJK7fruSINWDK7nE8cxlmXteUGfKIUfr5fMXvN1+W6VCnmldN64GTfk2nKTa7fmcdy7WMJ3HOsGgZ4RLlOcd4rZPiiytmYCP1Nu0r/pmXg4IVOFUSml+XMud45SEiklSUZJQpIkA8ohkRvfTCgq+fCFMO8C9NxJvQ7V+m3eXhGqk9UiXz8yxtmRCkYSoZMDpLw50dU0Z5yAP1sMuNz28fydCFPcg8gphZpyhoL8gWrD/3OvyeYeEIbOmVoxBWbq7ZqFlZOuGSFEzxBXLBbvaoirFAtMDjd4fKjAM3UYLggQht6ZfW3J2pj/3iPSi7LQ15WZTZuP1zz+6KNbXF5uEw6Et2iobGzznlQbxvNOtHM39r357c9h9omUtqv38yMOlRurrM+3jcndKJUtSg5yOveRQ8EUjKSGuN58Sc0PFKCsIr6EVccliJM9r5vnsdgNuLjape3H6RLL+B0kQuAruDi/zHvXb31CyNh9YoPcSCnjWXsg19WDI6+D53hxtod7ENtujEtUaohbbNHyI110I2sD6TgnmefZvfKh3aLcesnaLQSzbsi7y12W3ZAkGZQOqZ+rcjrD+lymz1MMxqq6KfrHJtemgfT//vH49DjffvIET9RNRqSHZdtgF3Q7o5DYd7nsKl5vK95bbDOz1iGWm/Qh1cX0ZVTGJ3J6zsPNLD512BOSUggo2SaNgs1IwaBuCd2wbGMlCUkiaWOzEgvWOg5hFFEsFjEMY2CK/3bAjRKuN13mnYBQKhKZoKQ2xiElKomRSayZWhxgBl1EEvd/zO6hx9DWN/u6As0OMtsHRE9w5RXIjGGn/3sIESYKN0o0s84Ozz3mLHuuywpdUIM0nC1JvUy3TVBvGN/cGGdrZV8wbA5FqsTkXOmVzOWF2f1xGykXePbgKKdGKjQMSUEoBGmuuDhEdVu4ymB56DCXWz4fXr1G+1ObKy4zWmU3lOs3tOt7I7dHcr/33iMTZKKraUe5nKGZJ1yS6EOubdtUKhVKpdKWPcOfOzLJX3rqONMlExV66cFHpGtwXZnL3yxvWJ89RQ+IAlRnhYUI3rUm+LgVMLuwiB8M8Da+J3syHr4F6r0nG/MB7amMB+YP0PdEubF95NE3H/czXiqV3XuAR34aULQMxss2ddvYyLuydWvZuAksdbp44Xoxmb2sn2eYdwIuLHVo+anHd54ME2EXKKuYauJjqQFeMuX3Q4+XyId/iWeqTK9v+b2f/n1AnZRKcaXp8t5Cm7YfrT83e14cQehBHICK9ZHGEHuQAKF0OKNpaNmdrdE4At9lMZB8FNosdAO63e4AL0T712nf771z4db0kgdG1oZ+WTrAdXU/sG2b4UqJXxq3+bUJk7GyDaadVlFNIAxQSrEcJHz/ygp/dmMNL77DHObHu5/28VBhTxjiACzDoGKbjJcshgsGpsgWmo6Dl0mCbxbpSJOlZhvX97FtGyFE7/ZqL8IJYz5acZhpeySZS3RW2VIppIwRSYQZB1RNwXCliG3qUKRdR8bD8kwtm5MNDG6HmO2DQmUCI1Mgcwz7IYUfJ7T8OE0grPuzbijVoalCKUwBVhrKnXnGba8hLn2mzN2MZbSHBOGeRLanMqWqp6TuDQW8bFtMNyqcGi7z1LDNaMFcn9MkRvkekVR07RofN31ev7HESncAXgMPA5T+0gudy+az/3C3Ka17kqq0EmGSemX0G9osy6JUKvU84fr/fyccGW3w3JEJTg8VmLQVtmloQ1xv3WUGwb52Z7/3SGnl33NwYsktUeHdZYe3ZpZo+YOa+5z8kfk9slXK+H//524HMj6Xl5H3SBv2/kAaubfQkxFZnzcZkztS7n09bG0P7OP+ULZMpqol6gUrzVmVzl+mzwpdrGG+49EN9WXytukXA4IfJyy7AbMdn5m2RzeI0svLVJdJ9EWmEDBcMJgomhTM9TPHtvcvW9c9vpvXobb5WTuN2/Z7bs8PCLGUdMOYmy2Xy2sO3TBaf37PaJNgyoi6Cpk0Qo4VJccKkiN2vKfoWCHhREkyZcU0RIxtoI1ypLLYd3ESgznKzLS6LKyuEkYDcOrozV1KMhvPwXqb3xX5fdPfvj0EwzColQo8f2CIr07XOWrH1ESMKJR0zt44hDii40e8terz2oLDxYXVO4fD99ZxXi5mfd5bfd/HnbFnDHEABUMwVbEYL2VVINONleYholjGM2zm1tq0ul4vR9y2C8NtRMuPeWehzZW1NNY7r0gCSkqMKKDit5mqFjl66CDlUmlACfXvB30Cs8fs5MO3z3tCo58eto6soxslLLkBfqQNbiiJUBJBZhSTWEgKBhRsC9M0kTINWd3uNdYTfjJVZtNEopl83j8nbYL8mOV+ztbpHtpkJxtFfuPYMMfqBT2lQh8OVJJAHCHigPdXXH4w6zDvDUABfCjQpxile/B2nrM56VQMuUNXumfyniWmaVIul6lUKpsWZrgbirbNWLXM8+MVnh0vUy3a6x5xeQNcfg3eiWSSKo4xcRTz6myLP76yzKI7II84xdaKS9xGffKrx5DYfqak1B0SKG+B8hcYjzpUusb7x+BeaMPho/8B+9huVGyTQ40yI8XUENcb/3S9A06UMNMNcNIKj1u9INgtrHkhHyy2mGm5dMKIaEMSfwkyhjjCTCKmGxWOjQ1Rtm1UX6qAB8cd9oPM1vfDvsDzes5m+3cw/XMjbWidc3xdaCOK+uZXr1PbFBw0I54pBPxyLeRbNZ+vldw9Rd+sBPzaUMzzBZcjyqFiApatl06ivfqkaROU6lxbaXFxZg43GNCl2AY9NT+vOd1lp6DS9myqr+w92WBbFicOH+TZowd4UrWYTjqYlWoaoip18Q3fpalsPm4F/OD9y3w0u7TxQzK22r+nVKbb7LFO7+Ou2FOGuKJlcKhW4kC1gJkp3CgtDJMEYdm4yuR6s8tyN9jTQl4qHTK40PW5sOIw0/GQG3IQ6EOPBKqm4pgtOVgrMToyggA8zxtQLq97xGYbXWWeBQ/TZs8pOhuER/b3h6kv61j1Qq6lSmS/QFRKe+YUBVRNQcHSyZNVGt62fR5xOSVrM2G4LxjugExJyK3HDeO3t5SIg40KXzwywbF6gZpIsMimVuowRbfDSmxwOSlzcanJzMKSVnw/VVAbK3epbG/0U36ONWkj2Pp3cnsz876wLItyuUyhULgnT7gMhiGol2w+d3iMLx4aZdiSmCoB00KJdC5va+udKO1DFCA9h9kQPvBMzt9a5ubCkj7UbhtSHtIzVt0+fnek23jSoDZVvl1bbNsGytqmPZjNNGrYtu3enD8sBaq2hF6f72e80vekXgYl26KQGqWz8bpXI/U+7o5qweL4SI2JagFTJTpXaDYXSQxRSDNMuOibLHoRnuejlL442KuY7Xj8+NoSV9cc4iR/EbGuFxpxQDHyODhU5cjEGJYpiKKIKIq2N/Rvs/U9cJ61Q1Dpl9v6levbALq44Pi8u9Bk3vEIYq3zar6RG2cUtYLNF46M8xtPHOU7Tx7nN546yW8+vbfoN86d4NefPMF3zhzkm0dHOVAt6E4aQvcniVFKESrBlabLR8udnmfq9uNOc5nbOzuGzfZNdjmQtWPvyEwhBJVSiaOjQ3zrsSk+O9WgKEPtPGFpY5yKAqIw5GbH58/mHN5bdmg5LmEUoxBIYaJyF6ioTDdKf1akfd47/d7HnbG3DHGmwZFGmelqURvipNR5iJJEh9gZFm4CV1oei6629Ash9qRimihFO4iYc3wurnaZc3xkkno7pMJAKUUiDOq2ydmqweF6iXqthpQS13UJ0+qw22MsuU/0mFv/gSZlfA8F+hl1vxDZacGxfVh2Ay6tOrSDnMt91p80oWfJgLolKKaGuMwAt23rSnG7MSmjh3hsdwa5dZnfXz2vnb0zdhP1Cp85MsWxeolhEVMQWdsUKgpQ3SaeWWSlNMIHs8t8eO0G3sDCFPci0vG4jVfemXqhqPl901sDG6GU6uWFy9Iy3A8qBZsvHDvAV45NMCYiTBmhrIIOjdisHXekVOELPJTTpGOUuCmq/OLaLB9cvUmQ5onaPmyyT7ZM2Zxk+63/s7cBKjf399rG3AFRCLAEWKluUygUaDQalMtlbNt+qJLg3xnpPPTCw/pl8idQT7botCbVYoFSwUIAxWKRarWKbdv9D93HA6BetHlsrMFUtYitEl1ULduTqUfOWpDwYVBg1olwHAfQPOt+edWgcbPl8S8vzXN5tbPR25aURwgw45BS2GV6qMbhyTFMBEEQEAQDKEp0m26arfNBMKwdRsYf+/fxAHWdmbbLqzeXWXS89bW6YUw1NUoFfvnsMX778+f4S59/ht/60nN896uf21P0V778At/5/LN89/kn+MtPHuVwo6z7YmT54nTBiShOuNzyudD06ca36xEPjpzOehulY7pj2z3TufJrKu+tm66tHWvP1jHVqPKbz57lGycPUA46iDTqD8PQFxtBl3nH40erirfXApabLbwwBCGQhokU5u3jn9Mj9mKf97E59pRGV7ZNTo7WOTZUoagShEpAkIbZxRC4OGHMJVnhRiBotlpEUbQnb4ndMOHlmyv85PoyzSBM8wXpW0Qh0EUa4gAZBQwXDJ6cGmayXu6F2iZJQhAEhOGAwnw+CXlBlWdovZuG/G3Dw4B8PzYRHPBQ3SBkuS9mOz4frTi0vKBXYVgfBJOeZ03NNhgpWtjpAW5bjXAZFOmayFM25oNRsh4ZZEpN3pNqD3qcCiGwTIOnp4b4pWPjTJR0iFIWEp1VUHV9nzeWPV5Z9ukMRBHcw1B3U1I19YoybPK/3n7p2zPZhZNhGBiG8UDyTgCmIZiu2HxrusazY2XMLFecYiOv3CrJGBX6NLsuP10OeGUtoumHxNvpFadye+VeKNtXWb8Gyotyc9ffjrtR1sYkQkYh3USy4Hh8dP0m73x0kV+c/5C3P77Cu1dneH9+jfPLDueX2pxfbHF+oblj9H5KHyy2+Gi5zer9VpDs3ycbZPIWSeqQeNf3ud50+Gh2ifOXr/HOhxd588OLvHt1hvNzK5xf7ujx2qQ/g6b3F5q8N7/GjWaXdhCluVwfThhCULQMpmtFzk3UdaLx3lzEEHpEGHSrI1xtOpy/dpO26+3Jy/JOEPHBYpMPFpvcaHVpZ0Ua8mtLALbNRMngbEVwsFGhVq0iZYLv+wRBQBRFxLH2RHpg3JW3qZRt7a1x3DpyPLE/h/AAdZ25jsebs2ssO37ugiRthxAIy2bcUhwrJEzVK9QqZeIoxPc8fNfdW+R5BL5PpVzi4NgIh+2ECTxsywLL0uMbBSS+y3JiciM0mF1p0my1tjeyKpPDm12ekK3THUS/vM1kcJ8OtddgmiaVUpGzw0X+6gGbp4ZtKBTBsHSz4wgVx8RK8c7sCv/LGx9xcbGJgaJsKEqG0raRfj7Bnu72PjbBnjLEFS2TI8NVjg6VGbIERZHlmEgTwgYu3TDipqhyzVPMLC7T9YMHPphsN8JEsuwFvHxrlVdurdIJ4g1MQgBKJqg4QkQBI0WTJ6fHmaxVNngrbauQvx/kmdmGjZ715SFBjx/n2r4Z83qI4KVhzzfaHtdaHh0/TBMoS20slTrflJKSum0yWrKxDb1HsvW1vQa5TPjlxlTlDHL7uAv6hWm2JveeImEgeGqiwdePTTBZtjCk1ObrbL6jgMDzeL8V8WYzZrkbfLrDU3tz2E+5//X4bG7+e/O+LteyA+12ybqJss03Dw/z7HiVglDrysCGtbcFUvqAowIPp9vlzXbCG82Y2aZD934NNf1Q2ZeMp+R5yydQni8xSH6v0nZ+0txvQln74pAkCunEcNMJePPaHD//6Bo/vnCFn358nZev3OKVG0u8cmuNV2ZWeOXm8o7SqzeXeeXGMq/dXOaNmWVmmi5BnJDcz5j2xuh+x0sb/ru+z+Wmxztzq7x2+SY///gaP/3wCi9fmdVjNbPGKzOrt/VlR+jGMi/fWOb9hSY3mg6dMNpGmbuzMITAMgwO1su8MD3MRNle510y0UYABEGxzpWmy9s35lnr+uy13iqlWPNC3ppd5b35JvOOvzGJv1JahxKAaTFZsnmyYTFdr1CpaB09DMMN4akPbujI1nWmN+V/fkR0qN74bqbrbC+kUoSJZK7tcX6hxarrrz8rM8gJAZbNZAFOlhTj1RIF2yYIAhzH6VGn09kT5DgO3W4X27IYG6pzuJAwLUIKtgmmpfsWB0jfZU2a3IotbiyvsbzW3Ib1mUc6X725y89pxqN3CNmjlASSnCzJZP3e3TtCCGzb5uRQmd86XOXp4SJFU+hQfsPQPDXR+fEvLKzxT9+/zoeLTcIopiQkFUNh3CYTd2EO9vHAML/3ve99r/+PuwYhMISg6YUsdTy8RLLiZ0YsLeyFYUCpRjEJCFYWGG3UOTQ23P9Ju4pLqx1en13lL26scHG1ix8nSCVBpYcpBLFSCJlQj7p8bqrObz19ivFGDQEEQYCUEsMwsG2bYrG4bYevrcIJY1bcgHcX27y/1E7/qo2ICBNlWgxLjwnl88LJI5yYHCVIE4Pato1p6jDIvYAFx+f8YpObbZ+5bpCup/SIKwQJgqMFxVPlhCNTk0yOjRCGIUopisXinulHHhdXHV66NMdrt9a40fZTvqvW14mS+nCkJM/X4bnxKicPHaBcLOD7PqZp9ubpQXO4LHZ9Xp1ZYabt44QyXetK71UFSRxxrGrx+YkKU0N1GvVaL+Q6a8OnEQsdn5vtLheWHW61/VR50GtSGSaYJgdll+MlwbnjhxmpVQiCANM0KRQKu3IBIQTYlq6a+uFCk0XHI1ICmVOwlZTIUoVqscBE1KYiJOPDDYwdbutOY8HxOb+wxvWmy622l1OINOn6p+p2I1zv5/SDTBvLNDmoPE7UbZ45cYR6qUAQBFiW1QtPfNC5Nw2DeqXMkhvx/uwSkZSEyuh51Gps7MOmpNB9k7pfqlShZIDZXKJiGxybHOt78r0hkYpFx+fKaoe35tb6vLA2ac+mhDZqGiZFYsoq4ktHJ3lqaniDl6FlWViWlfv8rWGh43Npuc2l1Q7Xmt3b5n7LpLR3UaQEbQpcTwq85wre7Qre6xq83Y55e7HDW7eWeWtmibdurfDW3NoOU5M3Z1f5xcwypgEj5QIly6Rsb33c3phZ5uc3lnCjhCBObh+HrZDSkRKJVLSxuZkU+MCzeNtRvOsI3m0nvLXs8NZMOlZzq5v0ZQdovsmFhSZXVlqMV0pM1csYhtZ1H0YkSlKyTC6vOVxe6aR/TecjDZNL4ohYGJyZHOZgrbRnolakUgRxwoWlNv/bO9d4/dYKq24asZI3CCmpc2+ZJi+MFPjWoQaPH5lmpF7F9/1eSKpt2z1ZfL96YiR1pdkrKw5vz63R8sN0jacC17KpGHAQj7MTQzxz4gjIhDAMe7lCt0MeDBIXFpu8ObvCUjek5UcbdB0MAcLg+WGLcyMlJsdHqZRKhGHY03XutW/tIOJmq8tfXF3kp9cXiZI0H3LPcKTANDHsAs81BF+aqPKZ4wcZqpTxPK83v9lldd5BYrcoK7Kmx8Ngdm6ela7LLVXCi7QhXBd6AoplqrbFROIwVrQ4MjWBtQ16thclfLjU0nJuzcWL4nStpglNTYtRW/BkSXJyfIhj0wdI4pgoiu65wvtWsNz1mWm7/OLWKrfaWWXRdAwsG8s0mFQeJxtFXjh5hHpRG1rzetT97tvtgmWZDDfqLLYcbs3OEpoFfLMIUaijTKTOJR+ZBY7US9gyYr7lsOT43HRCwrSyM6T7SRhMl02eH7Y5OjrE5PgYcXphkOWZ3cfewu6uwD6I9NZtslriS0dGOTlSXfcCUAoS7aoplWTGjfnxvMv5xSbzK2v4uxXCmUMQJzS9kPcWWvz0xjLX1rp0gjShq1IIoRVtKWOkgqIBx4qKxxpFDk2OU0qNJJkQ2AtMgtwBWyu+6e+ZMHuYoPJ5gvr7kCk++TfsPUSJZNUN+Hi5w19cW+Zq79CXvwlROvwtCjFDj7FKkemRBgVLV0xVuXnbNqGYKTnZOumNdc7osI/bodi4v7Kf2a5CGtuPRtHmUKPCE+NVTg6XKJi5+Y8jVBQQC4PFUPHKjUU+XFgj3u1clzsC1Tefn0D5UKjb/nbnsdqucSwVbA6ODXNmosFzoyWmynZ6kO7bv59AKuM9SQRxiJKKhW7IX9xc5b2FJl3X3YbCDWmfN3n+lok8n8x95rZgnffq5+Xl5j1QEiPjGDeB2RDeXAt5dTXkjVbMa6sBry50eXlmmZevzfPy9UVevrG083RziZ/fWOanN1f4+fVF3rwxz2rX7x+QT0Y2Rpnnwj1TAkmMH8fcCuF8R/Lyis+rqxGvN2NeWXR4eWaNl68v8PL1eV6+sRvjpT3jfnRtkT+9ssiFhVVW2g5RvM25xXYQU7Uyzx0c48RIjdFKgYKVHuyU9ojGc5j3E953BW/NN/l4YQVv2/NF3jtUqqNfXOnwxswyb9xa4dqao4uo5fUXtEHRRlGXAceHKnzm6DRD5SJRtO7RKLYpVcA6sjZswju2lVftEjbs94wXb9a/Bx/Lph9yYaHJTKuLH8ckt+miCqESzCTkSKPC41PDVAvWbQY3cuewvUAZbNPg5GiNU6N1yiL1SCXdgzIBBN1Y8tFym6trzvaHxPfP366u1bzcTdfWhp93uj33hmq5zOGpSZ6ZavCVMZsDZRNhGmDqC2+igDCRtKTJO4ttfn5tnrm1DkEYolTGu7Kx3z9vPYzYZSvP5piql/nGyQOcmRxGWCbCMBCGzhWn4gDlNFmJ4ULlAK/ONvn5exdYbmZeW7uHNT/ko+U2P7mxzA+vLDLvuL0NIlJvJZXEJFFIohRDpQKfn6pzbqxGqaBLomcFGrLb+d2/ScwYWd9G3xWG+yDImHWf8t/7/nCgE0S8v9jkzblVzi+3WXJ9nRtOyfX8g2mxEBEHFAOHA/UKhyfHsU1jQ3Lh7V9Xmwnkh2mN7BJuUxxyB4M9inrB4itHJ/jS4VGqhtJrUAhQCpXEEHisOi4/XYl4rx0Txp8CQ5zK5pJe3hsltYegzhGay/+XN3Jlf8/mvDf3OzNep0br/I2njvDERGP9j1kbNrR7nW7rV7bfkwTcNmtdn3eSKhc6klvzi3Td7Lb6QdCvcG+V+t4z0HHtky/3Sr0+ph4OvgNuJ6UWeG39d5WG4dzvcx6IEu3FUijy8cIqf/HBFRZamWfUVpGt72xu7mde0/GSEiIfgi647XXyOhB66cH0Pj//QSkNl3KVYCmGy/PLXLk1h5dGDzyMqBYsphsVHp8a4akDYzTKxZT3S4gD8DuECuZjg+9fmOH7719jNS2utptQStH0Q/7PD2/yB+dvsOh4qREu02tznsCFIjXL4Jh0OD1S4cyJ4xQLNp7nEccxQugQssyDdvt0qWztqPU2sbd1gXtDpt/k+7j9sm65G/D6rWVuNDs53pI+RwCmgZFE2H6HQ0MVHjs4Rdm2NxTHE2noYKlUolLRYcm7SeVymUqlgmVZFGyLU4emefzIASpCpzTAMHTfVNIL2f+wHXKtGxMl2ptuW6DSL9m+6fG6vGzd3vn8RGzgufk9tMPteAA8e/QAf+uL5zg1XMIIXYRlgV3Q/Uli4jjk9bkm//zSEj+bWeHKapswitbPCz0+sUtzsI/7xp40xFVsk+lGhSdGSnx+xGayauuyvoaJUBIV+YRhSDuUvNf0+fM5hzcX2lxrdgl2ITm4HyfMdTzeml3j+x/N8tb8GguOjx/psFqdUFEzLgkkCkpJyHQBPnt8mlMHxlAy2ZBrIhP0u+9GmleU88rsw7TJ07b2t38Ds97b/YmlYt7xeG+xxZ9fXeSN2TVW3LC3xnr9SG/0YmHQMOFYQXJwqMrIUANSQ69S2ii8fcpjNrY5um3d9L9hH711l93Abig/nhu7PYiibXJqrMETE0NMlkwqmVMEWilSoYcfBixQ5HIn5P2rN1lstvo+5dGD7r/2SN24/vOU+/uGxNW7o0BO1Mq8cGSSM0MlJs2EkqlDsnqKXR+pTf62oQ+hTxiFNKXJhbUuP/z4JjebTv9j7w93HNO70Q7uqduefZ8k14ufEAcphRBHvXCV9ddn62anSGlDnGXTDUKWm637q5C7oc/p594XSW0AjrVH5vp4pWO14bP7+zJo0s9MEPjKoOU4NFst4uhBPUR3D5ZhUClYPDM1zNePjTFZsTGEDgVDCO3VGQa4rsdHax4/m2vzwysLvLfQxL/ffIIPgEQq/Djhvfk1XvroFj+9tsiHS03cMNIydzNjlzCYqhb58nSDM+N1atUKAgjDECll76LcSL3htkeX6lvT+e87KA8Gg6wP2Tjn94da//c2eMNJpVh1A96bX2O2nTlD5Pa+0LyrbgmOWBEHGxXGR4YxxMb5NU2TYrFIuVymVCrtOpXLZcrlcs9BY2xkmMMTYxwaqjBSshD5fsYBQRSymFjMeAmzS8t0ut3+obp/aEWnjw9nc7vDazV7Zn87envn4cBYvcrj0xN8bqzMsw1DX3BYtt4TSueUX3UDrrd9bjoBK57OIb+eG3yz/bSPhwF70hBnCEHBNHiqbvHXpgucaJSQhVIq6IEkRgUuymnyoZPwg7bJD2+1eXu+SXcXFJxOEPHxSosfXpnnH711lfOLLWD9wCIAgUTFEbHSpYfrscdRW/L8qeOcmD5AlCZ/zYS6YRg9hrurUHmFOcfo+xWXhwKbCYyHow9RIrm43OEn1xb5w4/meGN2VTPhdD5E2hclY6RSJKbNeOn/396bPkeWpfd5z91vbti3QqH26n2b6Z7u2TgihzNDsi0OTVG0aCrCtBxyWLY/+G+Yz47wJ29hS6GwzbAdYUumKJJDkSMOJQ45zVl6eq3uquraC/uSyP3mXY8/3HsSF1moKgAFoJCY80ScQgFIZN6zv+d33vMek1cqOnPZbV9RFOH7/rYdv4MxIDPyZbtNYOh/oWILaUT0T6THu39ZhsHMcInzo2VOl22GnZznbpKA75FEIaFb5l4r4C/f/4S7y2v9b3OikLUl5NHwnerzoX1Eiuj5dtD3AYfEUMHh4tQYlysWF62AsmVkBuD2Pt07rvOolCQ5AUTw6Vqd/+vDO1xf36vH1EPYNh/tJeXq4lDJlcMDz7CXlLWDfm/Ex7Wpo0qk8YB0Eow4SBeBe2Hf9fiwtEN5PWxMfRpJ0xCaTuj7hF4n9cQaYHRN442ZYd6+MMnpkomhg2a76Ya5ENBtE7XqbMQa79Vj/rcP7vK9m0u0w4hIxrE6IsIkoRVEfO+zRf6XH13jp/PrVDtdQhlbSdZRfsAVgjPDBd5+9jTPTQwDEMfbN8sP3j4XD2mz2feDjuzz2+zwg/WIE9m0uun5XF2ts9rcOpXU+yUamA5jrskLRThdKVApp3GLu91u76Zv0zSxbfsBQexpJ8uyMHSdUrHI1OgIz06NMlspoufHvsAnCkMaRoHlbsxnd++zsVnrL659IOuqf4zLyviA6nHP5OeT3i28+XT8sSyL4aLL16YKvD1TYLJcAMtJPR2FgCwsVygEzUjQihKSOL2Y77D6k+JoOJZCHNm+yOzoEG9emuOVss550aboOOCU0XQDLY4RgU8YhNQ6Pu8u1fjTG8v8wSf3+dt7a2x6fhYE+HBIhKDph7y/VOXffLbIv/h4nh8vVGkHIVGU3laZ3iSYpiROCKOEOElwDZ0vnR7l6+cnmSwX0LT0ggZ5Q2reG07uuD01+ge3fBoktk0Y8sjVVl60vqOaBy5S7YMgTmj4IR8sVfnja/P866sL/Ps7a2mA/KyNkd1aCWke4zghikKSwOfscIGvXZ7j1HBpW9wLKfQeWNvKT4I9o+dBA1eWcX4X+UA+f9DJt0shjanjPZlqgKFpnKoU+MblWV6ZGu7d8NTrX1F6RHWh4fGX6yE3mmFvx/nkkusDPQ/HvtQnFEjRLhW5cn3niOpf0zQMXee10xP8+ovnmRsups8AWX7yHn67SWmsQDoN6kHCba3CJ6s1Pr11l0b7CY6obhtn9psOs2xFdpqs/zNPWJL5S5L0Js1MjJDBxHd3BD2rg+QhtsVJSr38pd44QksvNBhkNKBom8wNFfjW6WF+cXaYciET4qSIH0ckYUCj0+HGeoPvXV/kf3znKn92bZ6bGw2a/j68KPdAKwi5udHgz6/P8z/8zRW+d32B29Umza5PEssxWNZR9n/boVJ0ebkQ8fkRm+fPnqZSdGm1Wj2BRtrnB37R1APjm3w++fvd9Ktjisj+kf2hN4bkhZMnpxNGfLZe59ZGk2Y3SGMx9spze/lOl1w+PzPCVMlF07StjSboXRIhQwMdpyTRNI0Rx+K1yQqXhl0MkWvTSSrQCN1g3Qt5f36NhYPySqe/nebqUv7/qNn2LJntlcg673/x8cU0TS7PTvPG+VlesANmtC5GoZRtcMSp53ccI+IYEefGr6dd/o9YfCkAADv9SURBVIon4tgKcQATwxVePnea14YtXrR8hl0L3XHRjOx2riiEMMTr+lxZrfNvb63yL6/c5y9vr3Bns8VGx8cL4/R8/AE0TiEgShK6UUzTD1lseLxzb50/ubbIv7q6wIfL6Y6DELmJHRBJQpwIwiTBEAmjls5Xz07wixemGXbSuATyGnQhRC/2hBTini4PG9wGrMM/YOTkBi9AI73FTE50Wk4wOgpEJu5GicCPEzphRLXjM19r8879df7wk/t89/oiP55fp9EN0klWiJ7Yq2VGRJSkcZrcsMuF4SJfvnyGyXLhgdgX/cFfnwzZDnYoXyn+AYa+JSwf7OcPOL2y6hdvsr52jBdtU+UCX780yyvTI1gixshiFUIWvN9rs9L2eaehcaMZ0GwfROD+Y8y2tt9nKOUN5VzfeOjrj5iXTk3wH7x0nvMjRWxNZLc6ao/37OtPZHNzp0knEqxYQ1xZqfOzm3eptZ7keMwOn7WnlM9H9pYH2bUeNsecxJQkkMTomoaR2WMid7vgrhDiwTZ/0lJPcMjyqWnpbeJZu9t1WR1DTMNgouTwzTOjfGNuhMmig21baVwj3UjzGwZ0PY/Feou/ur3M//zOVf7o03t8sLjBUqNDO4jwo5g4s8OelDgRBHFMO4hYbnT4cLHKn3x6n//ph5/yg9vLrLY8uoE8SdCXAMN2GCu5fGFI543xAmdnpnBtm3a7TRimwqF2WEKcJN92TtLiur+8e7ZOzn58QtpByNXVGjfW63hBmF3S8GBda0nMdNHh87MTTJScnggnco4Qh1a/B8iQbfDqZJlLQy5G/rivPK6oaWx4Ie8tpbeKPvF4I3r/bLdn8u20Z7Me5OT6GHao4958PEAYus7czBSvnD3Fa0XBeTPGcotbnsZyE7e3kdvfp3I/UwwMx34lbOg6X3ruAr/1xvO8YAUM+w2MYgnc1JNMnp0WUUDT87ix0eDffLbIf/fXn/L7793iL24u8tlGg3o3JHoCT4woEXhRxJ3NFj+8u8Lvv3eL//6dq/zh1Xk+WqnhBWEavDqO0XrHUdMBMQpDIgGJW+KFIYu3xzVeOzXK5NgoQeDjed42wUdOAsdGqOh17P5AmINEfsCSR2sTRDapmKZO0XWwsh0wN4vJcFR1EMZxeuV6rcXPFjb446vz/PN3b/Df/uAT/r8r9/lgpUbV6255zyDS9qWl7SyOQsIoJrYcJksOXxsWfG6ixKmpKXRdp91u94IMSxFM7vYdCL02ssPXbKenXCriOg66rmPbNo7jHHtD59CRho1sk8i+tb38jiuuZTI7VOTcSInzwwWGHKNnAIk4RgTddD1RHOL6ao2//PAqy5snP1bctjqUY07fz7aLcP11fvR1X3AsJiolXh0r8OqIQ8m1EUa2oN7J6HtkyuaJKCDxWry33uLPFtsstsMn9Ijs/5x9pEMtV7GPshq01Df/Z1NIkiQEWYiNxy/45O9z73cSk7SXsvm659mCRhzHBEHQ87QaRBzL5uzsDF+Ym+RXhyNeKmlQHALb3bqBOUlvtw2CgHrH4we3lvinP7rGP/3RVf6fD27y3sIGyy3viTfLBbDa8nh/YYN/8eEt/tcfXeWf/fgaf3VriaYfEET98QJF+n0cg2VjlCqMayEvFODXXnuO1y+dJYmjXnuWbTq/UX5w9lM2Z2xrO9nz9b4fZLLnl2Xey9/BjsetIOLK8iY31uvZ0eN8eQKGgakJimGb6aLFM2fnKLnuA7HhTNM8Xmuwh1C0TS6OlTk9XMQxdAwt147iBPwuNc/naluw0A7pdDoHM95sa6O5ce6ptdO+viPtjwNuX0fFRLnI268+wy89c5pS4qOJeGtMfWAMy+VZMZAc71Emi0VxeWaCr14+wxcnizxX0iibafw0bDvdYUxiRBTR9QNWWh4fLG3y3WsL/On1Bb53Y4kf3Fnlp/PrXFmpcbPaZL7eZqXlUfV86t2Alh/SDiLaQUQrCGl0QzY9n9VWl4VGh9vVJp+u1vjZ4gY/vLfKX9xc5k+uzfPdawu8u7DBfL2dTvK946jp19QTLiESYBs6E47O5ycKfPPsCJfGhyi4DmEQPBBA37IsLMs6uEl+3+wwqG0bfAdvgOsJHULuOKY7+36UsBkkLNbb3F6rcq/a4F6txe3NNrdrWdpscava3He6naVb1SY3N5p8tt7g6lqdT1ZqvL+0yU/m1/mbe2v8u1vL/Nn1Rb57bYE/vjrPj+fXuVdr0/bDXj1ovXpIjwPFIpXmXEPjQsXhl8+M8vL0MJVyCXK38ZIZkvnjoQfDTm0l/b8mBEGcsOGFLNRb3F6tcrfa4J4s16xsb1efrHx3m2Q9yLrYTVppejT9JxPzH8pOE+qA9C/b0BkpOFwYLfP67BhTRTfXvxJEGCCSGGEYfFZt8le3lliqt/fmOTNo9I+R/YZTGkUuq99cyte9LJsj3Fi2TJORosvnp4d5Y3qIIdvs++hsI6b/uXdKMg9hgPDa3G76/HQz5Pp6jZXNenpkaM/kynQ/qVcH/e97kOzwuSc1ZWUpm2iSJIRh+IBw8XCesD4HIW3r96nnvZxzpXCZv8l80DBNg/GRYZ6fGeMbsxW+MO5yqmBQcuxcfKPs1r8wxAtCrq3W+P6NRf7k03v88Sf3+IsbC7xzZ5n3Fze4ulrjTrXJYqPDejsVERrdgFYQ9lLDD6h5PmvtLouNDnc2m1xbq/HB4gbv3F3h+zcW+eNP7vEnn9zj+zcWubpaoxtGxPkbUqWdQibOWBZl1+aFYZsvzVR48+IcZybH0k30LGSMbM/yptQDOzGRvm32/x3aTm/MHXRy81v+/48dJ3ZHlAga3YBrazXubDZTIS5flqQXirimzqQWMluyOT09iWOZ+L6/zT6W6UDq9xBxTIOpcoFTlQJTZYeilV2yBKkAHnRpBxHzkclC22d1o4rXfcIbjEX2T6/uto9xR99WHzePDB7lgsPnzs/y5tlJnikIxhwdnEJ6iZbI+s5Otpgc0xQDhfGd73znO/0/PI5Yhs6pSpGiqXFnaZl2JPALw2hJghaHkO04pl4G6d+0w4j5Rocry6nQcW2tzq1qk+Wmx3qnS6Mb0vBDWkFE0w+pewGbXirmLdQ7XF+v8+HyJn97b43v31ziT68v8Dd31/hwpcZ8vUMrCInirQWllrmta0KQiJgojgnRid0Sc67Om47Hrz03xy+9/CxFxyKOom2TvNyNKRQKOJnn0NOaCFpBxEbH58OlTT5e2QrymXphGQjDYkQETGoBb1w8w4WpMXw/HeClS/dx2U1aaXa5slLjfr3NUsvLBqxsfStSN18jCvA6Hkv1FjeX1vng7iIfLG5wpdbl4/U2H602+GipykeLG3y0UuOjlc09pY9XNrO/q/HhUpWfLVb5yfwG79xd5a/urPAXN5f4/q1lfnh3lfeXNrlVbbHW9vCj9Ehp2saydqblFj9xTBRHRFYBx7aYo8svzA7xD956ibPjo5Ckx55lOzOy2Be2bWNZWSyXJ2S11eVH99eYb3RoBRGJPO4rto4fGHFIp93i1uoGVxdW+PD+Ch8ubnCl5qflu7yZpWr6dYcyPKj08Yr8rMenD5eqfLi8STsI0TWNomXiWtnR+CdkpeVxv97i09U68/U0dlZatwJhmGBanNa6nC8avHz+NKOlIr7v9+rwaY4P/WiaxkTR4V6tzfX1OojMY5PsOJZI8IKQpjB4bXaci6PlgTB098JKq8OV5Sp3N1ss1LIjmLlFRjo3PSplLzRtTMtkVg+4MOTy2oU5Kq6N7/vbduoPo+x0XWOk4IKu8dN7K6w1O6T+3bIvZ3l6XJKI9PIG4RQwbIei18CNfU5PjOHauxt/4kSw2vK4tdHkvfl1qu3ug5+3m6TpoBs4WkJBS/jyuSlemh7teQhr2U2Iprn3/r3S6nBjrc6N9Tp3NhoPfvZJS7oBps2YHjLraLx1+Sxnxobodru9eUbLvK934qf31/jhnWU6QYQfPuSo4ElIkPYd08axLV4qwbMj6ZFHxzLxPA95AmKQsS2T6bERjDgkWFukpZls6IXMvoq3YoeSmV8iwQsjllsdrq7U+HBpg/cW1rm2VuN+rcVK02Oz06XRDWj6YWqfd1MbfS3bIL+5XufjpU1+cn+N799Y5I8+ucu/vb7A39xZ5rP1Omstj24UZ7eRi+1rVrlotR0oDVM2Nc7Ygt95+Sy//uI5To8OIeKYdjvdNCIbv3Vd79nnpmkeyBgcxgnLzQ63Nhq8v7BB3fO32o+mgWVTNHRm9YDnpkZ47cIZSFJvStu2D1YUPCQ+Xa3xs/l11lreVv7IjFjDAMPk9RGbl8cKTE2MUXQdgiDo2TqPy1siBJ0w4sZ6nT+6cofrq3XCfAwtRCoKu0UmCiYvF2K+fG6GNy6dJQiC3iUNWuYI4TjOQPRJueZcaXZYrHdo+cHW/CjbuG4Qu2XOuhozicfwUJnhSrn/rXaFF0ZcXU09Du9Um3hBmKvLtK2OOSYvFgUXJ0Y4d2qaOEq9Sg+yz0jW2x7z9Tbvyhh4+bHXsjBNgyl8Lg4XeOPiGSqO9YAd9bA56mmiZacBE9/H7tRpCYPbobV1c3q2ht2WX00DPb1E6VTR4vVRh7Pjw0xNjBNloa9k3EPF8WJghDhTTz0vbF0jzjzI6n4qLkRatguQed/IFY0fxTT9gPV2l/VOlw3PZ63ls5rtpN2vt7mz2eLWRpPPNhpcX29wbb3Op6u11FNpVaYa19bqfLbRYKnlsekFdKM4FRx6x1CRFgYJglhoRJqBa5mcLpq8NVHgV8+N8flzpzib7bRJTziRxVYxTRPHcXBd98AHrL3SCiI22j4fLqfCRUqaV3Q9FeIImNTC4y/EtTyurGymQlzT2z45C4EmUmOtk8BGKFj0Qm43A+60Qu61Q+7V2tytNrlTbXB3s8ndzTZ3ay3ubu4+3dlscXczbW+p91fOIyv7/f1am5VWl2rHpx2EBHGces7kjjprpINv2mYEETqJblKyTc6VLH5xtsIvXZzhCxfncAwNz/MeuOmrd/PSAQ3Iq60uP7q3xny9nRPitiaKVCCHViRY7sbMdwLuNAPuttJ0r97mbrXBnWozLa89lu1e051cSuvzwdf0XltrcafWZqPt0/JDJksuowV7WzzB/ZIKce1UiGu0e2UFIAwrE+L8gRDiLF1nuGDz2XqNWxsNYpHGxUxJY7IEmkFoOFwo6IybUC4UcA5I1DwOrDQ9rixvcnezyUK9vdUHeh5wjyPrN6aFadqZEOccrRCnaRQdizAR3N2o0/RDGlGSXQyTee7s5WNFkgYZNi2ErhN1PVzT4NmpEcr27kSvnhBXbfLe/BpVr9v/kt2h6WAYOIhDEOI8bqw30gXK5gHdEHucyTYKxvSIWUfnrUtnmBtNhTiyeeZRi5yf3l/dEuIG2CNs10ghrqxtE+K63S5mdjvjIGMaBuVCAZOEkgiJNINuFBPEAl+QDRrZCYRsNAzimLYfUu10WW93WWl2WGt5rDY9Fhot7tda3Kk2ubHR4PpanaurNa6ubHJlZZMry1U+Xq7yUfb146Uqn66mY+9Ko0PLz+yn3HqgZ/NppEKy7eA4DhXH4rXxAl8/M8q3np3jhZkxNJHg+/62Y9a6np7EKRQKvfn3IOgJcesN3l9cp97vsWQ5FM0BF+JWNjMhrrs9f7IuTIvXR/cvxEWJ4O5mi/cX1vnLm4ssNrL5N49ugO0yV7L46rjN62emuXR6Bt/3e2sXwzBwXbdXroOABjT9kG4YsdJMPURTMiHOsBBukXF8KmGbuelJZsZG+t5ld6RCXI0b66m97oW5Y65SiHMNXixwREJcl/l6i3fvr7NQ77uMItvQnNKCwRPisk0sQyRUTNjohtzebKVe55AepxfJg7aYpoFpcapo8/qorYS4AWFghDjZMIcLDi9Oj4Lf5e6dO3imS8uuoIkEXcTpWereVC+VYoiFoJN5ed2vtflsvcGV1U3eX6zy7uI6P7m/zk/m1/npwjo/W6zy4XKVa2t1bldbLLU86t2AIM7dCpZN6pqWebFoIERCEkdEQiPUTWK7wFTR4ivFgLcvTfObX3yNiXKRMAx6t6Rq2W09SZLgOA7FYvFARZL90vOIW67y8bIU4lIxCN1AmBYjImRSHyAhrtZmqdnpCUQy6UlCbJi0rRKbRoFVrcCasFkLYaXZYbneZLnWYKXpsdL2WWl195WWWx6rLY+VVmp4bng+dT+kHYRZwOLccT35NWv7aRvTUnM2iYnjhCBJiK0CmlvijB7w1pjF7731Al++dJqCZeH7XTzPQ2TelkIILMuiWCz2jLeDIBXiVjMhLkxjvQjRc53WNYgMi6ZVZEN3WdMKrAmTtVCwWm+xXGuyXG9n5ftguR1KanqsZHWx/Ii02k6PwNzYaHC/1ub5iSHmhotYppEFs98/W0Jcjfl6KsQhUk9CYZgI0x4YjzjT0Ck7FrfW6yzUmrSDODXSRGYMxiE4RXS3iNWsYvptzk9PMFwq9L/VwJIKcVXuVpssSqNQ7E6C2yL1njEti1k9PHIhjkyMi7OAwJ0o5kbNI4ojiKMHDb/dIgRxHLOeGDiFAq+NOoy6NsXC4+t/yyOuwXsLa1Q7+xTidOkRJyho4hCEuMwjrvpzIsRZFmNazKy7JcTt1gb46b1MiAvTYP0nl8wOtaQQp/eEONs0CIIAy7IGXoiTDJcKXD59CrPbJKmts5KYVLFSr6ckgWjnY3FxIuiGEZsdn/l6ixvrdT5ervLewjo/ub/Kj+6u8Ld3Vvjbu8v8+N4q786v8+HSBtfXatytNllre7T9aMsLqocU4nI/07U03lJllGHbYBaP335+lv/09cucnxzBNgyazSa+72+zz6WnVKFQ2NcY8TC2e8Stpx5jEk0D26FoGoMvxC2sbXnEAWhZnWSifirEFfclxAVxzLvzq/zNnWU+WqpuL0Okt5ABpskzwwXePjvMC7OTTIyObBNcpdAq59hBQQgo2CafrdX4aHF9+y+yME524KH5HV46e5oL0+P5P981W0JcnTsbeSEuK2PbZsw1ebF4hEJcLecRl8eyMU1rIIU4iePYTI2NsL5Z5/7dO3QMh6bhQuin9li/QaZpYFicKimPuEHi+LbAHdA0DdeymBwq88WLs/yjL73E23NDvGp3KZsQGjaxXUSYqVHTuzQhWwxGSYwfhnSCgJYfUPfSWBObHZ9NL0sdP41L4QU0uwGdIMAPQ0LpVZR5rciEiNPjgVF6DDW0CiSGRdnU+eKIybfPDPHtVy7yubMzOIZOEkf4uXgE8qs0xg5yp+3JkELm1v+3unwu/wNF3ihLn13L/knihCgICLoefqeN73Xodr10tywTyvwoeuLUlf+PY4I4JoxjokTe6ptvW7LdpsGOkzgmjiPCRBDoFqHpEJsOs67GV4YFf+/5WX7ztctcmhzFMXQ6nTZBEEAWi0YaGY9bIO2PXJn2RLhc+QpBEscEvk/gZeXb6dD1unSz/tVfToeSQpnSz+tGId0oxH9kivDjhGYEG0HC8sYmG9XqgQS8ld6OO6ZcGx0EdE3D1HVePjXGNy6fZrrspgJwb5wELQoIux7XmiHv16P06JDvb4nPJ4C0+mSIhNymza4TW/3oKdb/SMHhC2eneWV6lFFT4GRHHkDb4ZkflbKFcRSShD5+LLhX9/jzT+/ywcLqruu+59nywPvvJcm4UIdQtiL3jg987glMj2iju19oia32ceJTFrtHbJXX7stpcLBMk3LB5ZWzs7z9ymX+/sUxvjnlMOvquK4D5VFwiqko0qv/1OM2jhOCKMILQlrdgIbnU+t02Wx3qba7VNse1Xb6fa3TpeH5tLoBXhAShFF6M3z+1sBtbQswLHBLUByiXCrynJvwrdND/OO3nuPvXD7N9EgFLTuOKm+Zl+OTnl0w5bruAdtOW6RbNo/oD4OOEA/ewH1At8JGieDWeoNPlqu0/dzRXvl5holhmVREyLSrc3F2mpFKqXckVWTHjuVGzGHV8WEx5FpcHB9iplygZJmY6Y592sfiELodNrohn3mw1OzQaDafzIYVO7TV3vf9Lz5cBI+Yc4/6YQ4YQ9dxbJtX56b47c8/y+WxMnocoRlmZo/l2nj/eKcYGAZrtMkmRMuyeO3cLP/4F9/gPzw/wpcLPpMW6JadBjS00ksckJ5EcvMl65hbC6WHJ/ma/Ou0TFjQMw84yI4HJglhnBBrBolTxHEcpgsWX5+0+Pvnh3n71Wd57vQ0ge/T7Xbxc4tPeVOP4zjbdreeOnIck6JQ9kMtE91BBlkbFGMyPR6mZR5HW3lCKnGIwEN4bUSnieg0odtJz+NLI5pHDPgHkDQZ+LrXvtJnTRKRCoVxQigEsWGh2QWcQpFnyibfHNP4nZfP8u3XnmVqqEQYhrRaLYIgQNf1XjvOC3EHuggQ9BbK24TE/GviCPwOwmul5eu1wO+kPxe5WWOHcjmwRGoIpuXxCIP3gQSJYRJqOtXNGhsbVaK8S/5+6T1WZjDknnNQZ9KXZsb55rNnmB0qYvRiGaaenAQ+YbvFbS/hSgcW6y1a7c6uxZhBYGveSG833jGg7uOS4KnXf8W1eXl2gpemR5ixoWTpYFqZ67fM125Slqck6o2lS4023/30Lu/eXyWM4sfelih/m3bF/vffS5Ll++jP2w+iF5+2/zNPaOoJmtuR88rj5hdBGtepJz6c+CT793YeV06DyuW5U3zztef5nWem+I1TBZ4pGYwWCzjDYxiFUrqI1DJRHx5SVntJ2d9mwl6a5NNkawHbwSiUscvDTFZKvFEW/PrZYf7JV17mrQuzOHbqdSzjwmma1gvpIT2zZOzmg0auM9K5sK/t9PIxuAgh+k5K5OyvXggLdhnCYTuJEPhRzO1qg2urm7T8oK8tpV53pmUxokeccnXOzUxRKRbxPK8nSBm5SxoOo44Pk5JtMTdcYqpSZNi1sQ3Zt6QQ16YWxNwOTRbqHaq1GmEY9r/NYxFZXfbWxdvaqay7vdfhfhGQ9pv8GJCv+6N7lEPlxdNT/IO3XuaF8QpuEqAbJph21ody5S/DAsGR1oPiyRis0WYHXjo/x2+++TL/+cuz/MO5Ap+3fcb1mNB0Ce0ioV0iNiwSTcvG/fTGybxX2+OSNLKTJCGOY8IoIkgEgWYQWAVCu0RkuUzYGl9wff7hhWH+mzfO8/Yrl7k8N4uIIzqdDr7vkyRJTxwhN8HLI6nHhQSIsltf5aKyt8BM5GIznTiPe3ePE4EXxASRzMPWQvmppyRNSZIQJzFREhPGCWEsCNHwdYvAKuA7JULLxTVNLtox3xjX+K+eGeL3XjvP26+/zMxImW63S7PZxPO8noEvDUrDMHpi70Eb/7EQeGFEN4zSxdVxKt8sJVkZb9X/XlJq2AshiEVMkmSx+56QKBH4mUekSBI50mSfKQ2MLXtqECjZJlOVApcnR7gwPoRjmb02kcQRSRQgDJOqH/Pvrt7mp7fns9vNBp84SehGUe62NomswF2kXGX3/vsU6/7CaJn/6OVzvDw7kQY2N4ytXQLI5PZdJE1L89Ht4AUB80aZa42QD6/fYH1z6zKgHRHpXBQlSWbr7/D+u0q9tzvwIk2P1sWEcf6d+z//JKT+vO2vPIMopuNHRLHY4TNOctpHYQ0gQghMw2Du1DRfe/ES/+StZ/nPnpvgW5WQiwUwHRe9PAyV0dRLzXRy5ZPblNp1yv5OIx1rshhwFIfSzxgaY6TgcNlJ+Pakzj+6NMLvvvUib146g4ag0+lQr9eJoqgnwsj5X4bzsCwL7QBiw/YjEESJIEySrGnk2or8dsAJk/Syph1vndeyHbt9stbyuLqyyXytRd3ziZL8mJJhWhQcl2eGHC5VbArZRUFhdmSPbC12kEeOnwZzI2U+NzfJWMndyn4iII4QhkloF7m5XuPK3UWa247v7g4hBEEU42drqZS+ss5WzUcx0KWOMGk/ffA5UmQ/HmQMw6RUcPnKdIlfPzPEzHA5PV7fb49p6T+CtPgHO9c/Pwy8EDc3Mcabl87wdy9N8xvnRvg700VeHS1wZrjIRNGhbFuYhoFAJ9F0Es0g0U2EbmwlTd8xpa9P/ybWdCJ0IjQioSGEhq7plGyTiZLDuZESr02U+fpMid+4OM7fe36Wz52ZZmK4QhxFPRdoKYxIZNwJeX7+uKBrGrZpYBoGmm5sK4NY04l1MyuL49/ZdV3DNk0M3SBCI9a0NA/HKaGl7UtoxAJiARoatqFTtk0mSi5zQ0WeHy/zxakyvzI3zG9fHucbl2Z49dwsFcem201jwuV3uqTwK3dzpTF5kKRtJXXpfyBfxzYZu0zp65NsrIiFSONnHQCWoeNaJrphEOtGb7yJ9WyMMiwSNOJMkBsEHNNgrOjy8swYL86MUXBsRJafBC3dp9QNqqHgncUa7y1tUm97hE9yTOKYYOg6rmWlGyqGmR6F2kcSWUo0nfgpj69zwyW+9ewZXp4eo+LYWI6TLnBNO/WQ23Wy01g1SYKfwIZR4lor4t/fXOBetdE7CrYTmgaWYeBYqVeD9sB77zIZNph26t2KTk/+PYDx0NR1CraJZaXxjk5uyte7TawZqT3UXyCPwTQNXNvGMLN2/8DnnLRkI8y0T+ccgE40hmEwPjLMi3Mz/Nqzp/n1S5P8ymyJt6YrPD8xxJnRISYqJUoFF8vOykm2BXn0SjcengyZzHRsMdP+jWmjWTaWbVMuuExWipwdG+KliQpfmanw9twQf/fCOF+7NMf5iRGSOKbb7dLpdHqijByL8kdSDzq+lUTTNGxTx7EsDLNvfMvKQxgmMVrv4upBwzQMXMfGsLb6A6aVnl6S/UPLHBQeMg88jJYfsdLy2PQj2gnEen4MtsFywHJwXYfLIyUuDBdwzTROllyTkV0wc+CnRY6Ys6MV3jw7zeRQOWtHdtaPdIRpE9oFbmy2+XBxg0Z372FBpK3v7DgPp31PGFu23mG3VtPQccz01mnjgWdKx9xY04kO/UkOF8PQcR2b12dG+MbZcc4NuRRtC90ppIJcrvzTccNIbe1BzvTPEQNzWcPDCMOQOIooFlwmx0Z49tQUl0eKXLRjJoSPFXQIowhPaASmQ2Q6JJaTesnpJrFuEhs7JPk73SQ2LGLDJrZsYsMm0U0KOkwYgheLGl8at/m1syP82jOzfP2ly1w6NclQsUDg+71bK0UuYL4c+C3LolQq4brusZsARDZ5flLt8N5Gm1A3CTQjLRu7QFKoUBQxQ4nPmxfneOYYX9bgRTGtSLDgRXy86RHpWX0asm6fctJtYt3KBBgD0LFIGDYEs1bCCyWdLwwb/PLsEL96aYpfefECb1w4zZnJMSzdoOt5BEHQi3VB3y5QsVikWCweWvzBVhiz3AlZDwT32hG+Jsv1mJSvYaXl2/+zXabItIndIsVCgddKGpeGC8xMTOA8YYDtGNAMnffWWlyrd4lNO02GRVIoI0pDTCYep23BqxfmGC8f38sa8uiaxpBrk6Dx/mqDagSJXSSxHIRpk5gWkWHRsEoMF4s86yYUTINS8fGB+48z3VjQFRpLXsyVRoCwnb0lK/1KeQSjVGEs6XKmaPL6xTmGj/CyhjymYVApFliqNVna2MSzCnSsUm9xg+3uLVluGiPKLdGKBTcaPudGKzw/WsIwHhY4OfWoqwUx7661WI80kv18tluEQplEMwjjmK+dm+LzMyO9uUrX9X17RQRJeonR7VbIxzUf7MxAPqmpWIHyCCViRo2EL1+a49xYBd/3e+FDHmUD3G/6rAYJTWFQE0ZaXo67vzZ13JNTgNIwTrnCc3bMpYrJuZkpXNs6cZc1SKStK29s14ChUpHz01NcGivz4rDNKSOkEnchjog0HU93EU4h7aey7OQ4Y20JKmkbkf/PlbFbAqeI5qT29Kilc9EVvDFi8o3pAm8/e4pfffE8L89NMzUyBEmMn4WKkQIcme2UJAmGYVAoFLbdknpoY66msxnE/GS1RTXWEPl8lUdxXYexyOOZ8SHeuDh4lzVUuyGtRGM5ECz5bOXNKUCxDMUKr1UMXqyYzEyOU3TdXV/W4EUxzTDhxytNbjbD7X3PLUGhBLbLZNHhV04P8frpcabHx3oCrJadGCkUCr2jx4/6vOOMZRqUXIePqh632nFuPC1AsYJwS/heF0PXeP3cKU4NlR46Ru9ELAReIqiGgk/rPk1hbr2/W4TyCKMFl8uWz8WxIS7OzhzqZQ0C8IXG++tt5rsJselu9Z3yMEaxzFDscaZk88XLZxgasMsa8mhA0XWxLYvFlRVqXZ9GcYzYKqZiq1NIbatShZmyy+fKcHZ0iJlJdVnDcUcTe5XEjxlhGBJFUa9xJUlCrdlirVrj1kaDm9UmN1sh852IapjQCRO6cUIQpcHyozgmTgSJkMdettA1DUPXMQ0dyzCwTQPX0CmYOpOOwamCwaUhh0sjRS5NjDA5MsTY8BBklzC022nA/PzAI4tbesLlXd6PE2Gc4EUJf3htnj/4dJ7VWpN6JzvyaNnglJhOOpyjw+9++TW+cnmOViu9taZUKvUMhOPAhhdwc7PN9z5b4F9fuUMQpfWuZbeQPn20tK1pYOkarqFRMjQmCianijazRYvZksPcWIWZkSHGhoexLBMhBJ7n0e12t+1sSRFOz4LPHrbYu9bxeXepxg9uL/P96/fpBOkRVe3JThwcPGJHz/VHo2mpq7ftMl60+fakwVdnR3n2wlnKxSJadpvzfibzdhix1vb539+7xV/cWKTl+YRxepMybhHdLfFcUuf1IZ1vv/kq5yZGaLVa2LZNuVx+5EL3aZLGbEl4b3Gdf/bja1xbb9AI4l5sRnQdoZskls0XJ1z+47kCz52Z5cypmUNpn0fFZjfkdq3Dn1+f5w+u3CEII6IoG2dktnYx2wq3hOW4XEzqvDnu8ltffJXpSpFWq4XrupRKpSOPJfqDz+7z/Wv3eLfa5U7T78V769XWLvKVkgbOxnaIo4g46PJfv36R33npDENDFVzH6f8DEiHohDFXVuv8/vu3+Xh5g81mB0G6ubWNRzyHMAwwbfQowIp8/osvXOLbz53GMAyMTIRzHAfXdfv/9LE0/JCVts+/+uQef3DlHl0/IMxuRd9L3Q8KwnLALTIZtbjsxPzeV17j82emaLfb6Lres2seZgO8t1zjh/c3+OubC3yyvNGzvU5cWWnpP8ItUnRdfrkc8tXpEm88/wzlgkOn06FYLFIul/v/cuCRQlz/xQcdz6PeanNnvcbtaoubLZ97rZD5dkQ7ivGiBD+KCKKYMEpDN6QhUra/v65p6LqGaejYppna56aJaxpULI0Z1+RSxeLicIFLI0XmpsaZGhlG0zTiTITJe0SRs891Xd9mnz+sHR8EiRC0g5j3lzf5P96/xdWVTertDgCabiAKZSqmxqWoxi9dnOG3vvQaRCGe51EqlXq3uD4wFh4jbm22+XitwXc/vcdP7q0QxTGJAE3X0/WE7fDtSZNvzRR59vxZRippqBXbtimVSo/MW60bstDw+D8/vM0Pbi/T6nSJkhhd0xC6AbqOoRucH3L5T54Z5wuzY4yNjRIGAa1Wq7dxUKlUcF33kZ913AnihNW2zz9/9ybfv7lEo9MhjOM0Sq/tolk2dqfOC0M2/+UvvMzn5qb2JD76ccJ8w+NH99f5fz+6zf3NJn4QpvOcYSDcEqcLBn+n4PPl89O8+dJzREFAt9vtle9B2i1eFDPf8Pi/P7rDO3dWWa03CeIYHQ1RKGFZNqeDTd6cLPG7X/0c0+VCz44qFos9L8hBYq3R4nsfXOOHC5v8rKOnMRH9bhoHU9cRtstzFZtvTxl8/sw0z54/i+/7RFFEuVw+cZs+J4GBF+Lk7pXv+wRB0NthLBSLBHFCN4xYrzdYrta4t7rBcq3JatNjwwvY9CNaQUQnm/BjIQCRBRfXsC2DgmVQsUxGHJPxgs1Upcj0UImz0+OcHh9jpFyi5NrYhkEYpB5w+VhUEhlfTooj5XK5J44c5MB0UIisbO9t1Lm1WuXqrTssra2nA3a2kB5xTCaLDq9eOsfZ6Qm63S66rvc6+2EaL3shTgRBknDlzjw/vnaTWqNF2+tiGga6nsYOfNqWv2NZFGyLSsFhuFRgrFJmYmSYidERbNPA1nUsQ0eIJDUgw/CBdib7gvy+UCj0POEO01CLEkE3ivn07gJ//dEnNDseQZiK43oWm/Fpl++ToYGuU3RtXp2d4PzkGGMjwzjZ7pI88rtXkizexif3l7g2v8zdpWVaHS89Sq8baIbJbMnmzGiF58+fYbiUesS5rnushTiyvG00Wnx6b5EbiyvcWllHR2BoaaywGIg0nVNDRV6YGOLy2TnOnp7NhIvDaaeHTSwEQZzwyd0FfnztFpuNJu2sPvcyzgg9Pa48U7Q5Oz7ESxfOUXLTo+fFYvGpCHGdIGSj1eEHH13l2v1FROblomd1tSczIlPo/SjBCyJ+4dlzvHlxjomJcUrFYv+rIWtPtbbH9aU1bswv8dm9+d5mg2wvjy1fTUOgYxkarqHzhctneW52CnKxWl3X3ZcQl4g0Vs2Ve4t8eHue5fUNGq02pinHwEc81yCi6QjdYMQxmS4X+Nwz5zk1NkK32+15+j9KwOhGMfVuwF9/cIUrt+8RxakYYuTic50khG5i2xbPTQxxcXKEU5OTOLZFFEUnVogjq0chBFEWnqXT6WDZNrZlI3SdMEno+CHL1Rp3l1dZ3GywXG+z4flUuyH1IKYdRPhRumEu24WmpQKcaxoUrbQdjjkmk2WXqUqJ0+MjnJ4YY3ZynLKTBq+Pw4goCgmCYJsHnBTmpCAnvaPkWHAUc1IiBButDlcXV7k5v8St+wsA6JktULAsposWl05N8uKFs4g4JgxDyuXyQAhxQZzghRE/vHKdj2/fo93xiOIE0zSysUTnlVPjPDc9zvjoMK7jIITAcZzHCnGxEHTDiE/mV7i+sMy9hSU63dS+T6N8g2uZTA+XefPyOWZGh9CyY6l5j9RKpTLwIoUA/DDi6sIKn80vc3N+kbbXxTB00HXQdHSRMFku8sVnznFuZpJKpbJre0KINN7fwkaNd2/c4f7KOuubNXQ99SoUusFI0eXZ8Qpnp8Y5PT1FkonxhyHEJQK8MOT2apXPFpa5evsuna6Pka1RDdNgwjE5Oz7Mq5fPU8pC+BQKhZ4dNWhCXBQnNL0u1xdW+OtPPqPR7iCSBF2TtpXOVKXEK7PjnBobYXx0pBcSSwlxx5OBF+LIJvswDAnDdJLVNA3TTD2GkiQhiiK8IKDe9mh4Ps1uQCuIaUcx3SgmiBPCOCbJbhzRSCdey9zygitZBiXLYMi1GSo4DJWKlF1n22I4CILejah5gUSiaRp2FqtLxpw4yEHpMOh0fRodj+W1DerNJpqelo1Aw7VMirZFpeDiZkalNMKPW8w7gLXNOotr63S6XfwgzC3inn7gDdM0sAyDgm3h2haubeM6ds9DRLalOI57Ryl22sklMyQty8J1XRxnexs9TNY369xZXKIbhESZ6HxcyveJ0TQMQ2e0WKDkWBjZLqplWT2jfT8kQrDZaFJtNNmo1ekGAbqmZxOqRtm2KDkWJdfBNAySJMF1XSqVypHV637xg4Bao8l6vclavbEl3GQx72I0HEOnbBtMjIwwNjqClR1pG2TWa3UW1jboeF387ObivfQDoWloWfzRkmNTLjjo2WKxVCo9FSEOIIxibi4sslqtIeTN03KBtA8zIso2SCbLRSaHSowMj1AsFraJa3mCMKLR7rBeq7Na3UyFuKyfpDy+fAUahq5hGTojpSJl1952DG2/Qpxko95gdbNOo9nCy45palmbP0mIrMylDTBULGCbBlEU4TgO5XL5kUIc2eUmtxeWWN6opnOZ9JBhf+3pOCMyz+mRgkPJsdKYtZmHeqlUOrFCHJltkiRJzz4mP25kdIOQludR73Spd7q0wph2GNOJEvzcRvk2IS7bnHRMg6KpU7J0Ko7FkJtuZpYLLoXM2ye/RsiH8CBnO8l1gxTkH9d+Dxo/DKm1OmzU6qxVNyGLbyzQMA0jnQ9ch5LrpJc7CUGlUhkIIY6snO8tr7KysYkfBqk4oOtoaAgNRosFhlwbQzcwjNRhQQomj8tbkiRUm22qjQYbm3WCMLXvSWcFLF2n4FiMV8rpBVKZY0Qcx70xv1Ao7GtD9biRJAn1Vptqo8latYYfhr15UpDGnnZMg5Fito4tl/e8mdzyuixvVKk105vvtcw7VZDGkBsu2BRtG9tK+4+u64cixJHNI61Ol2qjwfL6BkEYpZtfWhrHvZDZUZWCi66la6j8huYg2ptCCDbqDW4tLNMNgnS+zE54CTQKlslI0Unj6mY3AVuWpYS4Y8qJEOIkSZIQhiHdbpd2u91ziZfu29IFtx+RudDni0LL4gbkX5//fTeLLSFdPiVywpDGh/wbOcEXi8Uj22U7LPLlkCQJtVqNdrsN0DPCj6MQtxPHsfnLdiwNV2kw7NReZBuTOx5SgDsubtfHsXz3S5IkdDodOp0Onueh6zpu5p1WfIgnz36R5ZZk3r71ep0wMy6LxeJACHE70d8efN/vjR2GYfQ8OE8a/fneDUIIut0utVqNMAwxDOOpCnH97CdPO9FoNPA8j2Kx2FsQ7DZvT/IMjUaDVqvVC20h7YQnEeJ24kmecRBIkoTNzU06nfQ4ndwo2I+QcZLLSgiBn8UNlmE8ZJiBkyzESUQmpMk5VG5aS7u4XC4/YONomkbSd+O5RAqZMuV/J72dOp3OjpekyfcSme1vZpdNSfv8OIyv7GBrt9ttarX0lmnDMAZKiNuJfP48z+u1DSFE70THboS4h9HfJhqNBr7vb7Obpf1mn/D4WfmyCIKAzc1N4jimkMVBLBSeLEavfH9ps3Y6HVqtFkbmbX5YQtzDyOfX931qtVrPUSdvR52UOu9v67IvdTqdntCshLjjyYkS4uTAGmXBIYMgIAyz8+vZjmR+4n7YJC6Rg7+csPNEUdQTSJLMM0m+Rn7Vs9hR0nPGtu2ex8d+J5anhcgMlm6328uzzIPv+4RhiMiMquMuxMWZW7+ckGUbOC7IdpxvX/k2mG+Lsl0bWZBxuZCVhuTTyFe+/8XbPOMGG5EdsZF5M7JjqaVS6UCEOJHt2ne73V6dkzNsZFstFAoDJcTJtis3L8jaraZpvfKUP5MLi5PQXmT/lWPmXscZOeZKMV7rMyCfVt3LZwqzAMByDNov3SxWk/REKRaLjzWORSZqyMW8yC5D2kv5ylAWcRz3ROCDEuKkHZKve3bwBDoJyL4tPY3k5sRuhbgk23iSicx2OmnI/ixFIi3zwPp5EeLYYQ4NsxAb0oaRyDHlUf1F/i5vG+W/l2Wdn0vzr5WfIYWCvH3+uM8+TOQz5sc3SRRFvZ/pmZfRoAlx+TYg7QFd13s/k2OAjNG3VyFOCEGQxSWTZallazw53ss1G0ClUunNOSdt3OkvC0mSJHieB7lLA0ulUu4vd0eSieR+FhpKlrMc06WdbJrmkQlxMr+y32vZaQJZ9yJzzjkpQlwQBHie90Bbz8+pjuP0nGSUEHf8OFFCXB6Rm8jyE75sqPmJXqZ+ZMPOp0eR7whazs1dTvCD3AFkx261WviZF2B/uSVJ0hPiZJ6PI3KCaLVavcljp/o/DshBlawO8l+1zGsz386Ow66enAg7nQ7BtqN5JwORGRpmdvNSOYvT8qQkSRr/r9ls9oT+fNnJeh80jzhZXs1mk3a7va39yt/LcVMaxYO0sHgYcsGdH2f2iyyjUnaM7WkKcVEU0Wq16Ha7vXw9ybPIvOlZgPShoSGsR1xgJF/fbrdpt9s9AWi/z3AYQpw0/JvNJkEQwAkV4fpJkgTHcfbkESfHPekRwwkV4vLkxaefJyFOIjJ7MsjEcLlgzM8N/fb5Tv1Hzi1yTHgU+d/L95eb5K7rYj/mds6jQual1WptO9kj+0S+jAZRiJMijed5tNvtXl/I/17LwvjsVYiTZfcoO4rcZxiZV+FePmNQkGUhPXClKC3LWpaBlsUOq1QqD+1nDyPJNpxarVZv7KbPtpPlPDQ0dOhCXD6/cs2fz5MsE9mupPA+yEjPwzDbGO1fM8TZbalKiDu+GN/5zne+0//Dk4DsfGbmcr7TTpfIJvGkz/so/zM5yecne5nkz+Tn6dlFDLZt91x93SzWhDGAXnB58s+eZPE+ZN7z5aHrOnZ2OcBxHeBk25D1Kycocnk5Lin/zEburL+deY9I931Z5v0Gx9NA9oUwF49F5qU/f4OaZHsxst30gxKd5fvHmdemJD/+yPqX5Xzckf0tP65GueP85HZWZfsdFJHxUch8y8XAfseZfN1Lg+pp172W8zCQz8Ye89X/d7Js9MyT/GHzhxzf5N/3t6f+939Uku1Oy471S1vhSZHPKNt7XmTof4aTkmQ7lTbQXvqwnsXxCoI0dpQ4wWWVz5+Wixv884QcG6U9I23kfJuRZZWfN/Lfy5/ly/Rh5UzWxuTnOY7Ts8/l6Y3dttXDpn98i6Jox/GN7GiztAXk3w0Csr/LuVHWI9kmhnxN3tbZDf1lt9PcINuNbAtyjXbS2Kks8jZlf1nIPrDXfqDreq8OZX3SN6drmtY7rbPbutwP0i4hd/JJIsshyRxG9jpHHWdkHezU1pPcpo9cJyqOFyfWIy6PHGzkhCYHjTg3sZM13N0iB5O8QSFTXvw7CZ1cIidOuZMl+nbpRC7ex3Hv8EkW70t6dXAMd+FlG9MzcUJOknLykGKncQxF3iRJel4z0sg6buW7X+QEJw25Uql0IF405LyoPM/rxaHTM6NVUsgCGA+aERFkMQ89zyPq86iViyZpGEuvuEHnIMYZWfcit5P7NOtetv9ut0ur1dpmbD8JckGQXyA/CtlXpOdtvj3tlnxfLmRxZA+qL8fZEV7p7SXH8JOKtAHkcX1pB+0GkZ1gyHtu7Kc+BwFZTlq2USz79M8zefs8b6NL+zw/Bu6WvP0k7SZpn8u5W/7uOCI9BjudDmEuxI4sAy0LVVAoFI6lDfg48mN3mMW/1bINOy3bGJEbzXvNW5Qdc83bUfI9RJ+XUKFQwD7BXkKyLKQdslNZuK7b8xDb7ZidR85xMoyG7FMis/uNzPPXzeKjHyZSgOvkYjnn8yty8QflWDDIyDFSrrfy44O0b6SgLdfmiuPFz4UQR64Dyuzmxbi9TPj5yV3LCXD53QQ5YR72gPM0EJkY1x+7QiINnKe5UNwNMh9ykmIfC+TDID+I5pNsW/IZZds6ru1MZEdPpFHNASzUjwtyHJEGxn6Nl52QE6c0wtmh3MzM4yRvYAwCcowNslgdEmkwiNziVO5WDjoHMc7kx1npPfK0615kBrz0YDoI4UQKenIT63FeCrKvBEFAtMOFSbslyXaMpXB0kH1ZCgz7FQoHhXwbNbKd9/x8tRvkAkraZCe1vPJjnZ6dIHhcWz/pyPYjyybJnVKRSf48//qdkO1Gtj9po8uUf81xbl/5MTY/X+aRbee452Unkuw0ikwyD3Iukeuq/QgHsq2EuZhz9Nkacp457muVJ+VxZZFkYVZk2o/dJec5OX5L+0T2UznOmUdwhFrWrxR4dyJf94f9PEeBeMh6S5aFtG9knhXHi58bIa4fOQDlkyyKxxVJfhLXcgFfB3Ey3A/SSGKHspIT6CCURb7u2ccC7jCQ5Smfpb+tHYdn3C3HsXwPgnwdyf5/kIacHJseZnzL8YYBLFORLS5kmyBnMOS/PwqD7ah40n6QL5v8XPO0kXUpjT32kbc8+ffIt/HHEeWO/LKPZxA5UUR+PSj6+/Jen21Q6G+jsiz3kl9ZVnlbbC9/P0jk83fShYD9kG8Lsj3IPp5vaw9Dtr18Wzzoefoo2Gm+zCPbziD2Ezlv9M+Nsn5lfe23zvrHXh7y/nsdpwaRR5WFyISafHnsFfk+sq3KMhXZ3EqurR4VUsDfiZNY9/nxkr62LvN5XGxHxXZ+boU4hUKhUCgUCoVCoVAoFAqF4ig5OnlaoVAoFAqFQqFQKBQKhUKh+DlGCXEKhUKhUCgUCoVCoVAoFArFEaCEOIVCoVAoFAqFQqFQKBQKheIIUEKcQqFQKBQKhUKhUCgUCoVCcQQoIU6hUCgUCoVCoVAoFAqFQqE4ApQQp1AoFAqFQqFQKBQKhUKhUBwBSohTKBQKhUKhUCgUCoVCoVAojgAlxCkUCoVCoVAoFAqFQqFQKBRHgBLiFAqFQqFQKBQKhUKhUCgUiiNACXEKhUKhUCgUCoVCoVAoFArFEaCEOIVCoVAoFAqFQqFQKBQKheIIUEKcQqFQKBQKhUKhUCgUCoVCcQQoIU6hUCgUCoVCoVAoFAqFQqE4ApQQp1AoFAqFQqFQKBQKhUKhUBwBSohTKBQKhUKhUCgUCoVCoVAojgAlxCkUCoVCoVAoFAqFQqFQKBRHgBLiFAqFQqFQKBQKhUKhUCgUiiNACXEKhUKhUCgUCoVCoVAoFArFEaCEOIVCoVAoFAqFQqFQKBQKheIIUEKcQqFQKBQKhUKhUCgUCoVCcQQoIU6hUCgUCoVCoVAoFAqFQqE4Av5/d9sHeBvPSYAAAAAASUVORK5CYII=;" parent="1" vertex="1">
                    <mxGeometry x="735" y="630" width="156.25" height="20" as="geometry"/>
                </mxCell>
                <mxCell id="69" style="edgeStyle=orthogonalEdgeStyle;html=1;exitX=0;exitY=0.5;exitDx=0;exitDy=0;strokeWidth=2;strokeColor=light-dark(#000000,#FF3399);" parent="1" source="67" target="60" edge="1">
                    <mxGeometry relative="1" as="geometry">
                        <mxPoint x="185" y="777" as="targetPoint"/>
                        <mxPoint x="480" y="660" as="sourcePoint"/>
                        <Array as="points">
                            <mxPoint x="735" y="610"/>
                            <mxPoint x="505" y="610"/>
                            <mxPoint x="505" y="590"/>
                        </Array>
                    </mxGeometry>
                </mxCell>
                <mxCell id="70" style="edgeStyle=orthogonalEdgeStyle;html=1;exitX=0;exitY=0.5;exitDx=0;exitDy=0;strokeWidth=2;strokeColor=light-dark(#000000,#FF3399);" parent="1" source="68" target="60" edge="1">
                    <mxGeometry relative="1" as="geometry">
                        <mxPoint x="475" y="620" as="targetPoint"/>
                        <mxPoint x="534" y="650" as="sourcePoint"/>
                        <Array as="points">
                            <mxPoint x="505" y="640"/>
                            <mxPoint x="505" y="590"/>
                        </Array>
                    </mxGeometry>
                </mxCell>
                <mxCell id="60" value="" style="sketch=0;outlineConnect=0;fontColor=#232F3E;gradientColor=none;fillColor=#01A88D;strokeColor=none;dashed=0;verticalLabelPosition=bottom;verticalAlign=top;align=center;html=1;fontSize=12;fontStyle=0;aspect=fixed;pointerEvents=1;shape=mxgraph.aws4.sagemaker_model;" parent="1" vertex="1">
                    <mxGeometry x="425" y="570" width="40" height="40" as="geometry"/>
                </mxCell>
                <mxCell id="71" value="" style="endArrow=classic;html=1;dashed=1;strokeColor=light-dark(#000000,#FF8000);" parent="1" edge="1">
                    <mxGeometry width="50" height="50" relative="1" as="geometry">
                        <mxPoint x="445" y="94.5" as="sourcePoint"/>
                        <mxPoint x="495" y="94.5" as="targetPoint"/>
                    </mxGeometry>
                </mxCell>
                <mxCell id="73" value="" style="endArrow=classic;html=1;strokeColor=light-dark(#000000,#FF3399);strokeWidth=2;" parent="1" edge="1">
                    <mxGeometry width="50" height="50" relative="1" as="geometry">
                        <mxPoint x="445" y="124.5" as="sourcePoint"/>
                        <mxPoint x="495" y="124.5" as="targetPoint"/>
                    </mxGeometry>
                </mxCell>
                <mxCell id="74" value="Securityログ／ネットワーク通信ログ" style="text;strokeColor=none;align=left;fillColor=none;html=1;verticalAlign=middle;whiteSpace=wrap;rounded=0;" parent="1" vertex="1">
                    <mxGeometry x="500" y="80" width="205" height="30" as="geometry"/>
                </mxCell>
                <mxCell id="75" value="モデル学習用DataSet" style="text;strokeColor=none;align=left;fillColor=none;html=1;verticalAlign=middle;whiteSpace=wrap;rounded=0;" parent="1" vertex="1">
                    <mxGeometry x="500" y="110" width="205" height="30" as="geometry"/>
                </mxCell>
                <mxCell id="76" value="" style="shape=table;startSize=0;container=1;collapsible=0;childLayout=tableLayout;fontSize=10;fontColor=light-dark(#000000,#FFFFFF);" parent="1" vertex="1">
                    <mxGeometry x="500" y="690" width="1080" height="382" as="geometry"/>
                </mxCell>
                <mxCell id="77" value="" style="shape=tableRow;horizontal=0;startSize=0;swimlaneHead=0;swimlaneBody=0;strokeColor=inherit;top=0;left=0;bottom=0;right=0;collapsible=0;dropTarget=0;fillColor=none;points=[[0,0.5],[1,0.5]];portConstraint=eastwest;fontSize=16;" parent="76" vertex="1">
                    <mxGeometry width="1080" height="32" as="geometry"/>
                </mxCell>
                <mxCell id="78" value="&lt;font style=&quot;font-size: 13px;&quot;&gt;&lt;b&gt;データセット名&lt;/b&gt;&lt;/font&gt;" style="shape=partialRectangle;html=1;whiteSpace=wrap;connectable=0;strokeColor=inherit;overflow=hidden;fillColor=none;top=0;left=0;bottom=0;right=0;pointerEvents=1;fontSize=16;" parent="77" vertex="1">
                    <mxGeometry width="230" height="32" as="geometry">
                        <mxRectangle width="230" height="32" as="alternateBounds"/>
                    </mxGeometry>
                </mxCell>
                <mxCell id="79" value="&lt;font style=&quot;font-size: 13px;&quot;&gt;&lt;b&gt;提供元/説明&lt;/b&gt;&lt;/font&gt;" style="shape=partialRectangle;html=1;whiteSpace=wrap;connectable=0;strokeColor=inherit;overflow=hidden;fillColor=none;top=0;left=0;bottom=0;right=0;pointerEvents=1;fontSize=16;" parent="77" vertex="1">
                    <mxGeometry x="230" width="230" height="32" as="geometry">
                        <mxRectangle width="230" height="32" as="alternateBounds"/>
                    </mxGeometry>
                </mxCell>
                <mxCell id="80" value="&lt;font style=&quot;font-size: 13px;&quot;&gt;&lt;b&gt;コンテンツタイプ&lt;/b&gt;&lt;/font&gt;" style="shape=partialRectangle;html=1;whiteSpace=wrap;connectable=0;strokeColor=inherit;overflow=hidden;fillColor=none;top=0;left=0;bottom=0;right=0;pointerEvents=1;fontSize=16;" parent="77" vertex="1">
                    <mxGeometry x="460" width="190" height="32" as="geometry">
                        <mxRectangle width="190" height="32" as="alternateBounds"/>
                    </mxGeometry>
                </mxCell>
                <mxCell id="106" value="&lt;span style=&quot;font-size: 13px;&quot;&gt;&lt;font style=&quot;color: light-dark(rgb(192, 192, 192), rgb(255, 255, 255));&quot;&gt;&lt;b&gt;学習における目的&lt;/b&gt;&lt;/font&gt;&lt;/span&gt;" style="shape=partialRectangle;html=1;whiteSpace=wrap;connectable=0;strokeColor=inherit;overflow=hidden;fillColor=none;top=0;left=0;bottom=0;right=0;pointerEvents=1;fontSize=16;" parent="77" vertex="1">
                    <mxGeometry x="650" width="270" height="32" as="geometry">
                        <mxRectangle width="270" height="32" as="alternateBounds"/>
                    </mxGeometry>
                </mxCell>
                <mxCell id="109" value="&lt;font style=&quot;font-size: 13px;&quot;&gt;&lt;b&gt;データ形式&lt;/b&gt;&lt;/font&gt;" style="shape=partialRectangle;html=1;whiteSpace=wrap;connectable=0;strokeColor=inherit;overflow=hidden;fillColor=none;top=0;left=0;bottom=0;right=0;pointerEvents=1;fontSize=16;" parent="77" vertex="1">
                    <mxGeometry x="920" width="80" height="32" as="geometry">
                        <mxRectangle width="80" height="32" as="alternateBounds"/>
                    </mxGeometry>
                </mxCell>
                <mxCell id="136" value="&lt;font style=&quot;font-size: 13px;&quot;&gt;&lt;b&gt;言語&lt;/b&gt;&lt;/font&gt;" style="shape=partialRectangle;html=1;whiteSpace=wrap;connectable=0;strokeColor=inherit;overflow=hidden;fillColor=none;top=0;left=0;bottom=0;right=0;pointerEvents=1;fontSize=16;" parent="77" vertex="1">
                    <mxGeometry x="1000" width="80" height="32" as="geometry">
                        <mxRectangle width="80" height="32" as="alternateBounds"/>
                    </mxGeometry>
                </mxCell>
                <mxCell id="81" value="" style="shape=tableRow;horizontal=0;startSize=0;swimlaneHead=0;swimlaneBody=0;strokeColor=inherit;top=0;left=0;bottom=0;right=0;collapsible=0;dropTarget=0;fillColor=none;points=[[0,0.5],[1,0.5]];portConstraint=eastwest;fontSize=16;" parent="76" vertex="1">
                    <mxGeometry y="32" width="1080" height="60" as="geometry"/>
                </mxCell>
                <mxCell id="82" value="&lt;font style=&quot;font-size: 12px;&quot;&gt;MITRE ATT&amp;amp;CK Enterprise (日本語)&lt;/font&gt;" style="shape=partialRectangle;html=1;whiteSpace=wrap;connectable=0;strokeColor=inherit;overflow=hidden;fillColor=none;top=0;left=0;bottom=0;right=0;pointerEvents=1;fontSize=16;" parent="81" vertex="1">
                    <mxGeometry width="230" height="60" as="geometry">
                        <mxRectangle width="230" height="60" as="alternateBounds"/>
                    </mxGeometry>
                </mxCell>
                <mxCell id="83" value="&lt;font style=&quot;font-size: 12px;&quot;&gt;STIX API (mitreattack-python経由)&lt;/font&gt;&lt;div&gt;&lt;font style=&quot;font-size: 12px;&quot;&gt;DeepL翻訳&lt;/font&gt;&lt;/div&gt;" style="shape=partialRectangle;html=1;whiteSpace=wrap;connectable=0;strokeColor=inherit;overflow=hidden;fillColor=none;top=0;left=0;bottom=0;right=0;pointerEvents=1;fontSize=16;" parent="81" vertex="1">
                    <mxGeometry x="230" width="230" height="60" as="geometry">
                        <mxRectangle width="230" height="60" as="alternateBounds"/>
                    </mxGeometry>
                </mxCell>
                <mxCell id="84" value="&lt;font style=&quot;font-size: 12px;&quot;&gt;戦術、技術、サブテクニック、&lt;/font&gt;&lt;div&gt;&lt;font style=&quot;font-size: 12px;&quot;&gt;手順、グループ、ソフトウェア&lt;/font&gt;&lt;/div&gt;" style="shape=partialRectangle;html=1;whiteSpace=wrap;connectable=0;strokeColor=inherit;overflow=hidden;fillColor=none;top=0;left=0;bottom=0;right=0;pointerEvents=1;fontSize=16;" parent="81" vertex="1">
                    <mxGeometry x="460" width="190" height="60" as="geometry">
                        <mxRectangle width="190" height="60" as="alternateBounds"/>
                    </mxGeometry>
                </mxCell>
                <mxCell id="107" value="&lt;span style=&quot;font-size: 12px;&quot;&gt;&lt;font style=&quot;color: light-dark(rgb(192, 192, 192), rgb(255, 255, 255));&quot;&gt;攻撃パターン、手法、攻撃者の行動特性の学習&lt;/font&gt;&lt;/span&gt;" style="shape=partialRectangle;html=1;whiteSpace=wrap;connectable=0;strokeColor=inherit;overflow=hidden;fillColor=none;top=0;left=0;bottom=0;right=0;pointerEvents=1;fontSize=16;" parent="81" vertex="1">
                    <mxGeometry x="650" width="270" height="60" as="geometry">
                        <mxRectangle width="270" height="60" as="alternateBounds"/>
                    </mxGeometry>
                </mxCell>
                <mxCell id="110" value="&lt;font style=&quot;font-size: 12px;&quot;&gt;JSON&lt;/font&gt;" style="shape=partialRectangle;html=1;whiteSpace=wrap;connectable=0;strokeColor=inherit;overflow=hidden;fillColor=none;top=0;left=0;bottom=0;right=0;pointerEvents=1;fontSize=16;" parent="81" vertex="1">
                    <mxGeometry x="920" width="80" height="60" as="geometry">
                        <mxRectangle width="80" height="60" as="alternateBounds"/>
                    </mxGeometry>
                </mxCell>
                <mxCell id="137" value="&lt;font style=&quot;font-size: 12px;&quot;&gt;日本語&lt;/font&gt;" style="shape=partialRectangle;html=1;whiteSpace=wrap;connectable=0;strokeColor=inherit;overflow=hidden;fillColor=none;top=0;left=0;bottom=0;right=0;pointerEvents=1;fontSize=16;" parent="81" vertex="1">
                    <mxGeometry x="1000" width="80" height="60" as="geometry">
                        <mxRectangle width="80" height="60" as="alternateBounds"/>
                    </mxGeometry>
                </mxCell>
                <mxCell id="85" value="" style="shape=tableRow;horizontal=0;startSize=0;swimlaneHead=0;swimlaneBody=0;strokeColor=inherit;top=0;left=0;bottom=0;right=0;collapsible=0;dropTarget=0;fillColor=none;points=[[0,0.5],[1,0.5]];portConstraint=eastwest;fontSize=16;" parent="76" vertex="1">
                    <mxGeometry y="92" width="1080" height="58" as="geometry"/>
                </mxCell>
                <mxCell id="86" value="&lt;font style=&quot;font-size: 12px;&quot;&gt;Cyber Kill Chain (日本語)&lt;/font&gt;" style="shape=partialRectangle;html=1;whiteSpace=wrap;connectable=0;strokeColor=inherit;overflow=hidden;fillColor=none;top=0;left=0;bottom=0;right=0;pointerEvents=1;fontSize=16;" parent="85" vertex="1">
                    <mxGeometry width="230" height="58" as="geometry">
                        <mxRectangle width="230" height="58" as="alternateBounds"/>
                    </mxGeometry>
                </mxCell>
                <mxCell id="87" value="&lt;font style=&quot;font-size: 12px;&quot;&gt;Lockheed Martin定義&lt;/font&gt;&lt;div&gt;&lt;font style=&quot;font-size: 12px;&quot;&gt;DeepL翻訳&lt;/font&gt;&lt;/div&gt;" style="shape=partialRectangle;html=1;whiteSpace=wrap;connectable=0;strokeColor=inherit;overflow=hidden;fillColor=none;top=0;left=0;bottom=0;right=0;pointerEvents=1;fontSize=16;" parent="85" vertex="1">
                    <mxGeometry x="230" width="230" height="58" as="geometry">
                        <mxRectangle width="230" height="58" as="alternateBounds"/>
                    </mxGeometry>
                </mxCell>
                <mxCell id="88" value="&lt;font style=&quot;font-size: 12px;&quot;&gt;攻撃フェーズ、各フェーズの説明&lt;/font&gt;" style="shape=partialRectangle;html=1;whiteSpace=wrap;connectable=0;strokeColor=inherit;overflow=hidden;fillColor=none;top=0;left=0;bottom=0;right=0;pointerEvents=1;fontSize=16;" parent="85" vertex="1">
                    <mxGeometry x="460" width="190" height="58" as="geometry">
                        <mxRectangle width="190" height="58" as="alternateBounds"/>
                    </mxGeometry>
                </mxCell>
                <mxCell id="108" value="&lt;span style=&quot;font-size: 12px;&quot;&gt;&lt;font style=&quot;color: light-dark(rgb(192, 192, 192), rgb(255, 255, 255));&quot;&gt;攻撃の進行段階の理解&lt;/font&gt;&lt;/span&gt;" style="shape=partialRectangle;html=1;whiteSpace=wrap;connectable=0;strokeColor=inherit;overflow=hidden;fillColor=none;top=0;left=0;bottom=0;right=0;pointerEvents=1;fontSize=16;" parent="85" vertex="1">
                    <mxGeometry x="650" width="270" height="58" as="geometry">
                        <mxRectangle width="270" height="58" as="alternateBounds"/>
                    </mxGeometry>
                </mxCell>
                <mxCell id="111" value="&lt;span style=&quot;font-size: 12px;&quot;&gt;&lt;font style=&quot;color: light-dark(rgb(192, 192, 192), rgb(255, 255, 255));&quot;&gt;JSON&lt;/font&gt;&lt;/span&gt;" style="shape=partialRectangle;html=1;whiteSpace=wrap;connectable=0;strokeColor=inherit;overflow=hidden;fillColor=none;top=0;left=0;bottom=0;right=0;pointerEvents=1;fontSize=16;" parent="85" vertex="1">
                    <mxGeometry x="920" width="80" height="58" as="geometry">
                        <mxRectangle width="80" height="58" as="alternateBounds"/>
                    </mxGeometry>
                </mxCell>
                <mxCell id="138" value="&lt;span style=&quot;font-size: 12px;&quot;&gt;&lt;font style=&quot;color: light-dark(rgb(192, 192, 192), rgb(255, 255, 255));&quot;&gt;日本語&lt;/font&gt;&lt;/span&gt;" style="shape=partialRectangle;html=1;whiteSpace=wrap;connectable=0;strokeColor=inherit;overflow=hidden;fillColor=none;top=0;left=0;bottom=0;right=0;pointerEvents=1;fontSize=16;" parent="85" vertex="1">
                    <mxGeometry x="1000" width="80" height="58" as="geometry">
                        <mxRectangle width="80" height="58" as="alternateBounds"/>
                    </mxGeometry>
                </mxCell>
                <mxCell id="112" style="shape=tableRow;horizontal=0;startSize=0;swimlaneHead=0;swimlaneBody=0;strokeColor=inherit;top=0;left=0;bottom=0;right=0;collapsible=0;dropTarget=0;fillColor=none;points=[[0,0.5],[1,0.5]];portConstraint=eastwest;fontSize=16;" parent="76" vertex="1">
                    <mxGeometry y="150" width="1080" height="58" as="geometry"/>
                </mxCell>
                <mxCell id="113" value="&lt;font style=&quot;font-size: 12px;&quot;&gt;マッピング済みATT&amp;amp;CK-CKC (日本語)&lt;/font&gt;" style="shape=partialRectangle;html=1;whiteSpace=wrap;connectable=0;strokeColor=inherit;overflow=hidden;fillColor=none;top=0;left=0;bottom=0;right=0;pointerEvents=1;fontSize=16;" parent="112" vertex="1">
                    <mxGeometry width="230" height="58" as="geometry">
                        <mxRectangle width="230" height="58" as="alternateBounds"/>
                    </mxGeometry>
                </mxCell>
                <mxCell id="114" value="&lt;font style=&quot;font-size: 12px;&quot;&gt;内部マッピングロジック&lt;/font&gt;&lt;div&gt;&lt;font style=&quot;font-size: 12px;&quot;&gt;DeepL翻訳&lt;/font&gt;&lt;/div&gt;" style="shape=partialRectangle;html=1;whiteSpace=wrap;connectable=0;strokeColor=inherit;overflow=hidden;fillColor=none;top=0;left=0;bottom=0;right=0;pointerEvents=1;fontSize=16;" parent="112" vertex="1">
                    <mxGeometry x="230" width="230" height="58" as="geometry">
                        <mxRectangle width="230" height="58" as="alternateBounds"/>
                    </mxGeometry>
                </mxCell>
                <mxCell id="115" value="&lt;font style=&quot;font-size: 12px;&quot;&gt;ATT&amp;amp;CK戦術とCKCフェーズの&lt;/font&gt;&lt;div&gt;&lt;font style=&quot;font-size: 12px;&quot;&gt;対応関係&lt;/font&gt;&lt;/div&gt;" style="shape=partialRectangle;html=1;whiteSpace=wrap;connectable=0;strokeColor=inherit;overflow=hidden;fillColor=none;top=0;left=0;bottom=0;right=0;pointerEvents=1;fontSize=16;" parent="112" vertex="1">
                    <mxGeometry x="460" width="190" height="58" as="geometry">
                        <mxRectangle width="190" height="58" as="alternateBounds"/>
                    </mxGeometry>
                </mxCell>
                <mxCell id="116" value="&lt;span style=&quot;font-size: 12px;&quot;&gt;&lt;font style=&quot;color: light-dark(rgb(192, 192, 192), rgb(255, 255, 255));&quot;&gt;TTPと攻撃フェーズの関連付け学習&lt;/font&gt;&lt;/span&gt;" style="shape=partialRectangle;html=1;whiteSpace=wrap;connectable=0;strokeColor=inherit;overflow=hidden;fillColor=none;top=0;left=0;bottom=0;right=0;pointerEvents=1;fontSize=16;" parent="112" vertex="1">
                    <mxGeometry x="650" width="270" height="58" as="geometry">
                        <mxRectangle width="270" height="58" as="alternateBounds"/>
                    </mxGeometry>
                </mxCell>
                <mxCell id="117" value="&lt;span style=&quot;font-size: 12px;&quot;&gt;&lt;font style=&quot;color: light-dark(rgb(192, 192, 192), rgb(255, 255, 255));&quot;&gt;JSON&lt;/font&gt;&lt;/span&gt;" style="shape=partialRectangle;html=1;whiteSpace=wrap;connectable=0;strokeColor=inherit;overflow=hidden;fillColor=none;top=0;left=0;bottom=0;right=0;pointerEvents=1;fontSize=16;" parent="112" vertex="1">
                    <mxGeometry x="920" width="80" height="58" as="geometry">
                        <mxRectangle width="80" height="58" as="alternateBounds"/>
                    </mxGeometry>
                </mxCell>
                <mxCell id="139" value="&lt;span style=&quot;font-size: 12px;&quot;&gt;&lt;font style=&quot;color: light-dark(rgb(192, 192, 192), rgb(255, 255, 255));&quot;&gt;日本語&lt;/font&gt;&lt;/span&gt;" style="shape=partialRectangle;html=1;whiteSpace=wrap;connectable=0;strokeColor=inherit;overflow=hidden;fillColor=none;top=0;left=0;bottom=0;right=0;pointerEvents=1;fontSize=16;" parent="112" vertex="1">
                    <mxGeometry x="1000" width="80" height="58" as="geometry">
                        <mxRectangle width="80" height="58" as="alternateBounds"/>
                    </mxGeometry>
                </mxCell>
                <mxCell id="118" style="shape=tableRow;horizontal=0;startSize=0;swimlaneHead=0;swimlaneBody=0;strokeColor=inherit;top=0;left=0;bottom=0;right=0;collapsible=0;dropTarget=0;fillColor=none;points=[[0,0.5],[1,0.5]];portConstraint=eastwest;fontSize=16;" parent="76" vertex="1">
                    <mxGeometry y="208" width="1080" height="58" as="geometry"/>
                </mxCell>
                <mxCell id="119" value="&lt;font style=&quot;font-size: 12px;&quot;&gt;SIEM QRadar 異常時ログ (前処理済み)&lt;/font&gt;" style="shape=partialRectangle;html=1;whiteSpace=wrap;connectable=0;strokeColor=inherit;overflow=hidden;fillColor=none;top=0;left=0;bottom=0;right=0;pointerEvents=1;fontSize=16;" parent="118" vertex="1">
                    <mxGeometry width="230" height="58" as="geometry">
                        <mxRectangle width="230" height="58" as="alternateBounds"/>
                    </mxGeometry>
                </mxCell>
                <mxCell id="120" value="&lt;font style=&quot;font-size: 12px;&quot;&gt;ローカルSIEM&lt;/font&gt;&lt;div&gt;&lt;font style=&quot;font-size: 12px;&quot;&gt;(&lt;span&gt;&lt;font style=&quot;color: light-dark(rgb(192, 192, 192), rgb(255, 255, 255));&quot;&gt;SIEM QRadar&lt;/font&gt;&lt;/span&gt;)&lt;/font&gt;&lt;/div&gt;" style="shape=partialRectangle;html=1;whiteSpace=wrap;connectable=0;strokeColor=inherit;overflow=hidden;fillColor=none;top=0;left=0;bottom=0;right=0;pointerEvents=1;fontSize=16;" parent="118" vertex="1">
                    <mxGeometry x="230" width="230" height="58" as="geometry">
                        <mxRectangle width="230" height="58" as="alternateBounds"/>
                    </mxGeometry>
                </mxCell>
                <mxCell id="121" value="&lt;font style=&quot;font-size: 12px;&quot;&gt;イベントログ、アラート&lt;/font&gt;" style="shape=partialRectangle;html=1;whiteSpace=wrap;connectable=0;strokeColor=inherit;overflow=hidden;fillColor=none;top=0;left=0;bottom=0;right=0;pointerEvents=1;fontSize=16;" parent="118" vertex="1">
                    <mxGeometry x="460" width="190" height="58" as="geometry">
                        <mxRectangle width="190" height="58" as="alternateBounds"/>
                    </mxGeometry>
                </mxCell>
                <mxCell id="122" value="&lt;span style=&quot;font-size: 12px;&quot;&gt;&lt;font style=&quot;color: light-dark(rgb(192, 192, 192), rgb(255, 255, 255));&quot;&gt;インシデント指標の認識、異常パターンの学習&lt;/font&gt;&lt;/span&gt;" style="shape=partialRectangle;html=1;whiteSpace=wrap;connectable=0;strokeColor=inherit;overflow=hidden;fillColor=none;top=0;left=0;bottom=0;right=0;pointerEvents=1;fontSize=16;" parent="118" vertex="1">
                    <mxGeometry x="650" width="270" height="58" as="geometry">
                        <mxRectangle width="270" height="58" as="alternateBounds"/>
                    </mxGeometry>
                </mxCell>
                <mxCell id="123" value="&lt;font style=&quot;font-size: 12px;&quot;&gt;Text&lt;/font&gt;" style="shape=partialRectangle;html=1;whiteSpace=wrap;connectable=0;strokeColor=inherit;overflow=hidden;fillColor=none;top=0;left=0;bottom=0;right=0;pointerEvents=1;fontSize=16;" parent="118" vertex="1">
                    <mxGeometry x="920" width="80" height="58" as="geometry">
                        <mxRectangle width="80" height="58" as="alternateBounds"/>
                    </mxGeometry>
                </mxCell>
                <mxCell id="140" value="&lt;font style=&quot;font-size: 12px; color: light-dark(rgb(0, 0, 0), rgb(255, 255, 255));&quot;&gt;日本語/英語&lt;/font&gt;" style="shape=partialRectangle;html=1;whiteSpace=wrap;connectable=0;strokeColor=inherit;overflow=hidden;fillColor=none;top=0;left=0;bottom=0;right=0;pointerEvents=1;fontSize=16;" parent="118" vertex="1">
                    <mxGeometry x="1000" width="80" height="58" as="geometry">
                        <mxRectangle width="80" height="58" as="alternateBounds"/>
                    </mxGeometry>
                </mxCell>
                <mxCell id="124" style="shape=tableRow;horizontal=0;startSize=0;swimlaneHead=0;swimlaneBody=0;strokeColor=inherit;top=0;left=0;bottom=0;right=0;collapsible=0;dropTarget=0;fillColor=none;points=[[0,0.5],[1,0.5]];portConstraint=eastwest;fontSize=16;" parent="76" vertex="1">
                    <mxGeometry y="266" width="1080" height="58" as="geometry"/>
                </mxCell>
                <mxCell id="125" value="&lt;font style=&quot;font-size: 12px;&quot;&gt;&lt;span&gt;&lt;font style=&quot;color: light-dark(rgb(192, 192, 192), rgb(255, 255, 255));&quot;&gt;SIEM QRadar&lt;/font&gt;&lt;/span&gt;&amp;nbsp;正常時ログ (前処理済み)&lt;/font&gt;" style="shape=partialRectangle;html=1;whiteSpace=wrap;connectable=0;strokeColor=inherit;overflow=hidden;fillColor=none;top=0;left=0;bottom=0;right=0;pointerEvents=1;fontSize=16;" parent="124" vertex="1">
                    <mxGeometry width="230" height="58" as="geometry">
                        <mxRectangle width="230" height="58" as="alternateBounds"/>
                    </mxGeometry>
                </mxCell>
                <mxCell id="126" value="&lt;font style=&quot;font-size: 12px;&quot;&gt;ローカルSIEM&lt;/font&gt;&lt;div&gt;&lt;font style=&quot;font-size: 12px;&quot;&gt;(&lt;span&gt;&lt;font style=&quot;color: light-dark(rgb(192, 192, 192), rgb(255, 255, 255));&quot;&gt;SIEM QRadar&lt;/font&gt;&lt;/span&gt;)&lt;/font&gt;&lt;/div&gt;" style="shape=partialRectangle;html=1;whiteSpace=wrap;connectable=0;strokeColor=inherit;overflow=hidden;fillColor=none;top=0;left=0;bottom=0;right=0;pointerEvents=1;fontSize=16;" parent="124" vertex="1">
                    <mxGeometry x="230" width="230" height="58" as="geometry">
                        <mxRectangle width="230" height="58" as="alternateBounds"/>
                    </mxGeometry>
                </mxCell>
                <mxCell id="127" value="&lt;font style=&quot;font-size: 12px;&quot;&gt;イベントログ&lt;/font&gt;" style="shape=partialRectangle;html=1;whiteSpace=wrap;connectable=0;strokeColor=inherit;overflow=hidden;fillColor=none;top=0;left=0;bottom=0;right=0;pointerEvents=1;fontSize=16;" parent="124" vertex="1">
                    <mxGeometry x="460" width="190" height="58" as="geometry">
                        <mxRectangle width="190" height="58" as="alternateBounds"/>
                    </mxGeometry>
                </mxCell>
                <mxCell id="128" value="&lt;span style=&quot;font-size: 12px;&quot;&gt;&lt;font style=&quot;color: light-dark(rgb(192, 192, 192), rgb(255, 255, 255));&quot;&gt;ベースライン活動の学習、正常と異常の区別&lt;/font&gt;&lt;/span&gt;" style="shape=partialRectangle;html=1;whiteSpace=wrap;connectable=0;strokeColor=inherit;overflow=hidden;fillColor=none;top=0;left=0;bottom=0;right=0;pointerEvents=1;fontSize=16;" parent="124" vertex="1">
                    <mxGeometry x="650" width="270" height="58" as="geometry">
                        <mxRectangle width="270" height="58" as="alternateBounds"/>
                    </mxGeometry>
                </mxCell>
                <mxCell id="129" value="&lt;span style=&quot;font-size: 12px;&quot;&gt;&lt;font style=&quot;color: light-dark(rgb(192, 192, 192), rgb(255, 255, 255));&quot;&gt;Text&lt;/font&gt;&lt;/span&gt;" style="shape=partialRectangle;html=1;whiteSpace=wrap;connectable=0;strokeColor=inherit;overflow=hidden;fillColor=none;top=0;left=0;bottom=0;right=0;pointerEvents=1;fontSize=16;" parent="124" vertex="1">
                    <mxGeometry x="920" width="80" height="58" as="geometry">
                        <mxRectangle width="80" height="58" as="alternateBounds"/>
                    </mxGeometry>
                </mxCell>
                <mxCell id="141" value="&lt;span style=&quot;font-size: 12px;&quot;&gt;&lt;font style=&quot;color: light-dark(rgb(192, 192, 192), rgb(255, 255, 255));&quot;&gt;日本語/英語&lt;/font&gt;&lt;/span&gt;" style="shape=partialRectangle;html=1;whiteSpace=wrap;connectable=0;strokeColor=inherit;overflow=hidden;fillColor=none;top=0;left=0;bottom=0;right=0;pointerEvents=1;fontSize=16;" parent="124" vertex="1">
                    <mxGeometry x="1000" width="80" height="58" as="geometry">
                        <mxRectangle width="80" height="58" as="alternateBounds"/>
                    </mxGeometry>
                </mxCell>
                <mxCell id="130" style="shape=tableRow;horizontal=0;startSize=0;swimlaneHead=0;swimlaneBody=0;strokeColor=inherit;top=0;left=0;bottom=0;right=0;collapsible=0;dropTarget=0;fillColor=none;points=[[0,0.5],[1,0.5]];portConstraint=eastwest;fontSize=16;" parent="76" vertex="1">
                    <mxGeometry y="324" width="1080" height="58" as="geometry"/>
                </mxCell>
                <mxCell id="131" value="&lt;font style=&quot;font-size: 12px;&quot;&gt;提案補足データセットX &lt;br&gt;(例: ja_wiki_cybersecurity)&lt;/font&gt;" style="shape=partialRectangle;html=1;whiteSpace=wrap;connectable=0;strokeColor=inherit;overflow=hidden;fillColor=none;top=0;left=0;bottom=0;right=0;pointerEvents=1;fontSize=16;" parent="130" vertex="1">
                    <mxGeometry width="230" height="58" as="geometry">
                        <mxRectangle width="230" height="58" as="alternateBounds"/>
                    </mxGeometry>
                </mxCell>
                <mxCell id="132" value="&lt;font style=&quot;font-size: 12px;&quot;&gt;Huggingface dataset / GoogleDataset&lt;/font&gt;&lt;div&gt;&lt;font style=&quot;font-size: 12px;&quot;&gt;などから選定、必要に応じて処理・翻訳&lt;/font&gt;&lt;/div&gt;" style="shape=partialRectangle;html=1;whiteSpace=wrap;connectable=0;strokeColor=inherit;overflow=hidden;fillColor=none;top=0;left=0;bottom=0;right=0;pointerEvents=1;fontSize=16;" parent="130" vertex="1">
                    <mxGeometry x="230" width="230" height="58" as="geometry">
                        <mxRectangle width="230" height="58" as="alternateBounds"/>
                    </mxGeometry>
                </mxCell>
                <mxCell id="133" value="&lt;font style=&quot;font-size: 12px;&quot;&gt;脅威レポート、技術記事、&lt;/font&gt;&lt;div&gt;&lt;font style=&quot;font-size: 12px;&quot;&gt;Q&amp;amp;Aペアなど&lt;/font&gt;&lt;/div&gt;" style="shape=partialRectangle;html=1;whiteSpace=wrap;connectable=0;strokeColor=inherit;overflow=hidden;fillColor=none;top=0;left=0;bottom=0;right=0;pointerEvents=1;fontSize=16;" parent="130" vertex="1">
                    <mxGeometry x="460" width="190" height="58" as="geometry">
                        <mxRectangle width="190" height="58" as="alternateBounds"/>
                    </mxGeometry>
                </mxCell>
                <mxCell id="134" value="&lt;font style=&quot;font-size: 12px;&quot;&gt;サイバーセキュリティに関する全般的な知識、&lt;/font&gt;&lt;div&gt;&lt;font style=&quot;font-size: 12px;&quot;&gt;自然言語理解能力、対話能力の向上&lt;/font&gt;&lt;/div&gt;" style="shape=partialRectangle;html=1;whiteSpace=wrap;connectable=0;strokeColor=inherit;overflow=hidden;fillColor=none;top=0;left=0;bottom=0;right=0;pointerEvents=1;fontSize=16;" parent="130" vertex="1">
                    <mxGeometry x="650" width="270" height="58" as="geometry">
                        <mxRectangle width="270" height="58" as="alternateBounds"/>
                    </mxGeometry>
                </mxCell>
                <mxCell id="135" value="&lt;span style=&quot;font-size: 12px;&quot;&gt;&lt;font style=&quot;color: light-dark(rgb(255, 255, 255), rgb(255, 255, 255));&quot;&gt;Text&lt;/font&gt;&lt;/span&gt;" style="shape=partialRectangle;html=1;whiteSpace=wrap;connectable=0;strokeColor=inherit;overflow=hidden;fillColor=none;top=0;left=0;bottom=0;right=0;pointerEvents=1;fontSize=16;" parent="130" vertex="1">
                    <mxGeometry x="920" width="80" height="58" as="geometry">
                        <mxRectangle width="80" height="58" as="alternateBounds"/>
                    </mxGeometry>
                </mxCell>
                <mxCell id="142" value="&lt;span style=&quot;font-size: 12px;&quot;&gt;&lt;font style=&quot;color: light-dark(rgb(192, 192, 192), rgb(255, 255, 255));&quot;&gt;日本語&lt;/font&gt;&lt;/span&gt;" style="shape=partialRectangle;html=1;whiteSpace=wrap;connectable=0;strokeColor=inherit;overflow=hidden;fillColor=none;top=0;left=0;bottom=0;right=0;pointerEvents=1;fontSize=16;" parent="130" vertex="1">
                    <mxGeometry x="1000" width="80" height="58" as="geometry">
                        <mxRectangle width="80" height="58" as="alternateBounds"/>
                    </mxGeometry>
                </mxCell>
                <mxCell id="143" value="Internet" style="text;strokeColor=none;align=center;fillColor=none;html=1;verticalAlign=middle;whiteSpace=wrap;rounded=0;" parent="1" vertex="1">
                    <mxGeometry x="105" y="110" width="50" height="30" as="geometry"/>
                </mxCell>
                <mxCell id="144" value="ONU" style="text;strokeColor=none;align=center;fillColor=none;html=1;verticalAlign=middle;whiteSpace=wrap;rounded=0;" parent="1" vertex="1">
                    <mxGeometry x="80" y="185" width="50" height="30" as="geometry"/>
                </mxCell>
                <mxCell id="145" value="10.0.2.250" style="text;strokeColor=none;align=left;fillColor=none;html=1;verticalAlign=middle;whiteSpace=wrap;rounded=0;" parent="1" vertex="1">
                    <mxGeometry x="845" y="465.2" width="90" height="14.8" as="geometry"/>
                </mxCell>
                <mxCell id="146" value="10.0.2.100" style="text;strokeColor=none;align=left;fillColor=none;html=1;verticalAlign=middle;whiteSpace=wrap;rounded=0;" parent="1" vertex="1">
                    <mxGeometry x="845" y="247.3" width="90" height="14.8" as="geometry"/>
                </mxCell>
                <mxCell id="147" value="10.0.2.101" style="text;strokeColor=none;align=left;fillColor=none;html=1;verticalAlign=middle;whiteSpace=wrap;rounded=0;" parent="1" vertex="1">
                    <mxGeometry x="845" y="307.4" width="90" height="14.8" as="geometry"/>
                </mxCell>
                <mxCell id="149" value="192.268.2.252" style="text;strokeColor=none;align=center;fillColor=none;html=1;verticalAlign=middle;whiteSpace=wrap;rounded=0;" parent="1" vertex="1">
                    <mxGeometry x="512.5" y="250.7" width="90" height="14.8" as="geometry"/>
                </mxCell>
            </root>
        </mxGraphModel>
    </diagram>
</mxfile>